<svg xmlns="http://www.w3.org/2000/svg" xmlns:xlink="http://www.w3.org/1999/xlink" width="500" zoomAndPan="magnify" viewBox="0 0 375 374.999991" height="500" preserveAspectRatio="xMidYMid meet" version="1.0"><defs><g/></defs><g fill="#ffffff" fill-opacity="1"><g transform="translate(126.716733, 143.989347)"><g><path d="M -0.121094 -0.707031 L 0.296875 -0.335938 L 3.894531 -4.390625 L 3.347656 -4.875 L 1.351562 -2.625 L 0.441406 -1.542969 L -2.308594 -9.742188 L -2.726562 -10.113281 L -6.175781 -6.226562 L -5.628906 -5.742188 L -3.78125 -7.824219 L -2.871094 -8.90625 Z M -0.121094 -0.707031 "/></g></g></g><g fill="#ffffff" fill-opacity="1"><g transform="translate(131.896331, 138.261878)"><g><path d="M -5.34375 -6.980469 L 0.609375 -0.566406 L 4.1875 -3.882812 L 3.691406 -4.417969 L 0.707031 -1.648438 L -1.589844 -4.125 L 0.984375 -6.511719 L 0.496094 -7.039062 L -2.078125 -4.652344 L -4.253906 -6.996094 L -1.265625 -9.765625 L -1.761719 -10.300781 Z M -5.34375 -6.980469 "/></g></g></g><g fill="#ffffff" fill-opacity="1"><g transform="translate(137.48178, 133.161037)"><g><path d="M -0.84375 -3.824219 L 0.445312 -4.800781 C 0.550781 -4.882812 0.65625 -4.960938 0.757812 -5.054688 L 4.023438 -3.050781 L 4.730469 -3.585938 L 1.269531 -5.640625 C 1.769531 -6.355469 1.921875 -7.289062 1.082031 -8.394531 L 0.945312 -8.574219 C -0.273438 -10.183594 -1.703125 -9.691406 -2.695312 -8.9375 L -4.625 -7.476562 L 0.660156 -0.5 L 1.304688 -0.988281 Z M -1.285156 -4.40625 L -3.542969 -7.382812 L -2.238281 -8.371094 C -1.636719 -8.824219 -0.609375 -9.253906 0.296875 -8.054688 L 0.398438 -7.921875 C 1.308594 -6.722656 0.621094 -5.847656 0.0195312 -5.394531 Z M -1.285156 -4.40625 "/></g></g></g><g fill="#ffffff" fill-opacity="1"><g transform="translate(143.87614, 128.420769)"><g><path d="M -1.410156 -8.554688 L 0.492188 -9.726562 L 0.109375 -10.347656 L -4.371094 -7.585938 L -3.988281 -6.964844 L -2.097656 -8.128906 L 2.109375 -1.300781 L 2.796875 -1.726562 Z M -1.410156 -8.554688 "/></g></g></g><g fill="#ffffff" fill-opacity="1"><g transform="translate(150.096408, 124.718965)"><g><path d="M -2.542969 -8.542969 L -3.257812 -8.171875 L 0.785156 -0.410156 L 1.503906 -0.78125 Z M -2.542969 -8.542969 "/></g></g></g><g fill="#ffffff" fill-opacity="1"><g transform="translate(153.682301, 122.843008)"><g><path d="M -2.714844 -8.359375 L 0.761719 -0.328125 L 1.503906 -0.652344 L -0.128906 -4.417969 L 2.929688 -5.742188 L 2.644531 -6.402344 L -0.414062 -5.078125 L -1.683594 -8.011719 L 1.890625 -9.558594 L 1.597656 -10.230469 Z M -2.714844 -8.359375 "/></g></g></g><g fill="#ffffff" fill-opacity="1"><g transform="translate(160.348237, 120.078132)"><g><path d="M -1.292969 -8.820312 L -2.054688 -8.554688 L 0.835938 -0.292969 L 1.597656 -0.558594 Z M -1.292969 -8.820312 "/></g></g></g><g fill="#ffffff" fill-opacity="1"><g transform="translate(164.155297, 118.727478)"><g><path d="M 0.289062 -0.65625 L 0.433594 -0.117188 L 5.667969 -1.515625 L 5.480469 -2.222656 L 2.574219 -1.445312 L 1.21875 -1.046875 L 3.441406 -9.398438 L 3.296875 -9.941406 L -1.722656 -8.597656 L -1.53125 -7.894531 L 1.15625 -8.613281 L 2.511719 -9.011719 Z M 0.289062 -0.65625 "/></g></g></g><g fill="#ffffff" fill-opacity="1"><g transform="translate(171.692102, 116.84045)"><g><path d="M 0.0429688 -8.914062 L -0.75 -8.765625 L 0.871094 -0.164062 L 1.664062 -0.3125 Z M 0.0429688 -8.914062 "/></g></g></g><g fill="#ffffff" fill-opacity="1"><g transform="translate(175.661162, 116.07964)"><g><path d="M -0.152344 -8.789062 L 0.824219 -0.09375 L 5.675781 -0.636719 L 5.59375 -1.363281 L 1.546875 -0.90625 L 1.167969 -4.265625 L 4.660156 -4.65625 L 4.578125 -5.371094 L 1.089844 -4.976562 L 0.730469 -8.15625 L 4.777344 -8.609375 L 4.699219 -9.335938 Z M -0.152344 -8.789062 "/></g></g></g><g fill="#ffffff" fill-opacity="1"><g transform="translate(183.183624, 115.293848)"><g><path d="M 1.589844 -3.578125 L 3.207031 -3.597656 C 3.339844 -3.601562 3.476562 -3.601562 3.609375 -3.617188 L 5.046875 -0.0664062 L 5.933594 -0.078125 L 4.371094 -3.78125 C 5.199219 -4.0625 5.875 -4.722656 5.855469 -6.113281 L 5.851562 -6.335938 C 5.828125 -8.355469 4.382812 -8.808594 3.140625 -8.792969 L 0.714844 -8.761719 L 0.832031 -0.0117188 L 1.636719 -0.0195312 Z M 1.582031 -4.308594 L 1.535156 -8.042969 L 3.171875 -8.0625 C 3.921875 -8.074219 5.003906 -7.808594 5.023438 -6.304688 L 5.027344 -6.136719 C 5.046875 -4.632812 3.972656 -4.339844 3.21875 -4.328125 Z M 1.582031 -4.308594 "/></g></g></g><g fill="#ffffff" fill-opacity="1"><g transform="translate(191.143417, 115.276656)"><g><path d="M 3.945312 -7.71875 L 6.167969 -7.535156 L 6.230469 -8.261719 L 0.988281 -8.699219 L 0.925781 -7.972656 L 3.140625 -7.789062 L 2.472656 0.207031 L 3.277344 0.273438 Z M 3.945312 -7.71875 "/></g></g></g><g fill="#ffffff" fill-opacity="1"><g transform="translate(198.305679, 115.933293)"><g><path d="M 2.363281 -8.46875 L 0.816406 0.148438 L 5.621094 1.007812 L 5.75 0.289062 L 1.742188 -0.429688 L 2.335938 -3.753906 L 5.792969 -3.132812 L 5.921875 -3.839844 L 2.464844 -4.460938 L 3.03125 -7.605469 L 7.039062 -6.886719 L 7.167969 -7.605469 Z M 2.363281 -8.46875 "/></g></g></g><g fill="#ffffff" fill-opacity="1"><g transform="translate(205.739281, 117.328637)"><g><path d="M 2.546875 -2.972656 L 4.101562 -2.535156 C 4.230469 -2.496094 4.359375 -2.460938 4.492188 -2.433594 L 4.855469 1.378906 L 5.710938 1.621094 L 5.269531 -2.375 C 6.140625 -2.410156 6.976562 -2.847656 7.359375 -4.1875 L 7.417969 -4.402344 C 7.96875 -6.347656 6.71875 -7.191406 5.519531 -7.53125 L 3.1875 -8.191406 L 0.796875 0.226562 L 1.574219 0.445312 Z M 2.746094 -3.675781 L 3.765625 -7.269531 L 5.339844 -6.824219 C 6.066406 -6.617188 7.023438 -6.054688 6.613281 -4.609375 L 6.566406 -4.445312 C 6.15625 -3 5.046875 -3.023438 4.320312 -3.230469 Z M 2.746094 -3.675781 "/></g></g></g><g fill="#ffffff" fill-opacity="1"><g transform="translate(213.403792, 119.642316)"><g/></g></g><g fill="#ffffff" fill-opacity="1"><g transform="translate(216.89066, 120.886717)"><g><path d="M 4.660156 -2.441406 C 5.960938 -1.613281 6.328125 -0.878906 5.902344 0.0585938 L 5.859375 0.152344 C 5.417969 1.121094 4.4375 1.351562 3.355469 0.859375 L 3.285156 0.828125 C 2.210938 0.339844 1.75 -0.648438 2.386719 -2.046875 L 1.648438 -2.378906 L 1.601562 -2.277344 C 0.855469 -0.632812 1.328125 0.738281 3.011719 1.507812 C 4.605469 2.230469 5.996094 1.851562 6.640625 0.445312 L 6.6875 0.34375 C 7.242188 -0.882812 6.847656 -1.914062 5.21875 -2.9375 C 3.851562 -3.808594 3.640625 -4.507812 4.027344 -5.355469 L 4.0625 -5.4375 C 4.453125 -6.292969 5.425781 -6.480469 6.394531 -6.039062 L 6.46875 -6.007812 C 7.683594 -5.453125 7.925781 -4.578125 7.238281 -3.066406 L 7.972656 -2.734375 L 8.085938 -2.976562 C 8.832031 -4.621094 8.515625 -5.875 6.738281 -6.683594 C 5.226562 -7.371094 3.871094 -7.015625 3.265625 -5.6875 L 3.21875 -5.585938 C 2.742188 -4.535156 3.03125 -3.464844 4.660156 -2.441406 Z M 4.660156 -2.441406 "/></g></g></g><g fill="#ffffff" fill-opacity="1"><g transform="translate(224.265574, 124.319822)"><g><path d="M 6.9375 -6.179688 L 0.28125 0.164062 L 1.035156 0.609375 L 2.714844 -1.007812 L 5.46875 0.613281 L 4.875 2.863281 L 5.628906 3.308594 L 7.933594 -5.59375 Z M 6.980469 -5.125 L 5.65625 -0.125 L 3.257812 -1.535156 Z M 6.980469 -5.125 "/></g></g></g><g fill="#ffffff" fill-opacity="1"><g transform="translate(231.336592, 128.592729)"><g><path d="M 4.320312 3.136719 L 4.75 2.546875 L 1.753906 0.371094 L 6.46875 -6.117188 L 5.8125 -6.59375 L 0.671875 0.488281 Z M 4.320312 3.136719 "/></g></g></g><g fill="#ffffff" fill-opacity="1"><g transform="translate(236.91666, 132.672636)"><g><path d="M 2.632812 2.507812 C 4.132812 3.84375 5.707031 3.578125 7.722656 1.316406 L 8.019531 0.980469 C 10.035156 -1.28125 10.117188 -2.875 8.617188 -4.210938 C 7.125 -5.539062 5.550781 -5.273438 3.535156 -3.011719 L 3.238281 -2.675781 C 1.222656 -0.414062 1.140625 1.179688 2.632812 2.507812 Z M 3.09375 1.941406 C 1.996094 0.964844 2.203125 -0.261719 3.859375 -2.125 L 4.15625 -2.457031 C 5.8125 -4.320312 7.007812 -4.667969 8.105469 -3.6875 L 8.164062 -3.636719 C 9.261719 -2.660156 9.054688 -1.429688 7.398438 0.429688 L 7.101562 0.765625 C 5.445312 2.625 4.25 2.972656 3.152344 1.996094 Z M 3.09375 1.941406 "/></g></g></g><g fill="#ffffff" fill-opacity="1"><g transform="translate(243.333881, 138.487173)"><g><path d="M 10.894531 -0.96875 L 10.386719 -1.539062 L 6.40625 2.039062 L 4.917969 3.421875 L 7.648438 -4.582031 L 7.0625 -5.234375 L 0.554688 0.617188 L 1.066406 1.183594 L 5.046875 -2.394531 L 6.523438 -3.785156 L 3.804688 4.230469 L 4.386719 4.882812 Z M 10.894531 -0.96875 "/></g></g></g><g fill="#ffffff" fill-opacity="1"><g transform="translate(73.323666, 186.627806)"><g><path d="M 13.003906 0.519531 C 18.207031 0.519531 21.214844 -1.039062 23.554688 -2.898438 L 23.554688 -16.125 L 13.003906 -16.125 L 13.003906 -10.03125 L 16.496094 -10.03125 L 16.496094 -6.316406 C 15.640625 -5.832031 14.492188 -5.574219 13.191406 -5.574219 L 12.820312 -5.574219 C 8.917969 -5.574219 8.398438 -8.730469 8.398438 -13.746094 L 8.398438 -15.234375 C 8.398438 -20.25 8.917969 -23.40625 12.632812 -23.40625 L 13.003906 -23.40625 C 15.976562 -23.40625 16.535156 -21.179688 16.535156 -17.835938 L 23.59375 -17.835938 L 23.59375 -19.285156 C 23.59375 -26.75 19.730469 -29.5 12.632812 -29.5 C 4.832031 -29.5 1.226562 -25.265625 1.226562 -15.234375 L 1.226562 -13.746094 C 1.226562 -3.714844 4.832031 0.519531 13.003906 0.519531 Z M 13.003906 0.519531 "/></g></g></g><g fill="#ffffff" fill-opacity="1"><g transform="translate(102.263168, 186.627806)"><g><path d="M 12.632812 0.519531 C 20.433594 0.519531 24.039062 -3.714844 24.039062 -13.746094 L 24.039062 -15.234375 C 24.039062 -25.265625 20.433594 -29.5 12.632812 -29.5 C 4.832031 -29.5 1.226562 -25.265625 1.226562 -15.234375 L 1.226562 -13.746094 C 1.226562 -3.714844 4.832031 0.519531 12.632812 0.519531 Z M 12.445312 -5.574219 C 9.101562 -5.574219 8.398438 -8.730469 8.398438 -13.746094 L 8.398438 -15.234375 C 8.398438 -20.25 9.101562 -23.40625 12.445312 -23.40625 L 12.820312 -23.40625 C 16.164062 -23.40625 16.867188 -20.25 16.867188 -15.234375 L 16.867188 -13.746094 C 16.867188 -8.730469 16.164062 -5.574219 12.820312 -5.574219 Z M 12.445312 -5.574219 "/></g></g></g><g fill="#ffffff" fill-opacity="1"><g transform="translate(131.202671, 186.627806)"><g/></g></g><g fill="#ffffff" fill-opacity="1"><g transform="translate(142.310941, 186.627806)"><g><path d="M 1.859375 -28.980469 L 1.859375 0 L 12.261719 0 C 16.867188 0 22.292969 -1.003906 22.292969 -8.546875 L 22.292969 -9.289062 C 22.292969 -12.222656 20.992188 -13.96875 19.136719 -14.972656 C 20.582031 -15.976562 21.550781 -17.539062 21.550781 -19.988281 L 21.550781 -20.734375 C 21.550781 -28.015625 16.496094 -28.980469 12.074219 -28.980469 Z M 12.445312 -11.742188 C 13.597656 -11.742188 15.160156 -11.332031 15.160156 -9.066406 L 15.160156 -8.769531 C 15.160156 -6.503906 13.597656 -6.09375 12.445312 -6.09375 L 8.917969 -6.09375 L 8.917969 -11.742188 Z M 11.964844 -22.886719 C 13.003906 -22.886719 14.417969 -22.589844 14.417969 -20.582031 L 14.417969 -20.136719 C 14.417969 -18.132812 13.003906 -17.835938 11.964844 -17.835938 L 8.917969 -17.835938 L 8.917969 -22.886719 Z M 11.964844 -22.886719 "/></g></g></g><g fill="#ffffff" fill-opacity="1"><g transform="translate(169.950246, 186.627806)"><g><path d="M 19.136719 0 L 19.136719 -6.09375 L 8.917969 -6.09375 L 8.917969 -28.980469 L 1.859375 -28.980469 L 1.859375 0 Z M 19.136719 0 "/></g></g></g><g fill="#ffffff" fill-opacity="1"><g transform="translate(193.317477, 186.627806)"><g><path d="M 12.632812 0.519531 C 20.433594 0.519531 24.039062 -3.714844 24.039062 -13.746094 L 24.039062 -15.234375 C 24.039062 -25.265625 20.433594 -29.5 12.632812 -29.5 C 4.832031 -29.5 1.226562 -25.265625 1.226562 -15.234375 L 1.226562 -13.746094 C 1.226562 -3.714844 4.832031 0.519531 12.632812 0.519531 Z M 12.445312 -5.574219 C 9.101562 -5.574219 8.398438 -8.730469 8.398438 -13.746094 L 8.398438 -15.234375 C 8.398438 -20.25 9.101562 -23.40625 12.445312 -23.40625 L 12.820312 -23.40625 C 16.164062 -23.40625 16.867188 -20.25 16.867188 -15.234375 L 16.867188 -13.746094 C 16.867188 -8.730469 16.164062 -5.574219 12.820312 -5.574219 Z M 12.445312 -5.574219 "/></g></g></g><g fill="#ffffff" fill-opacity="1"><g transform="translate(222.256975, 186.627806)"><g><path d="M 23.777344 -28.980469 L 17.089844 -28.980469 L 17.089844 -18.578125 L 17.277344 -13.003906 L 9.289062 -28.980469 L 1.859375 -28.980469 L 1.859375 0 L 8.546875 0 L 8.546875 -10.402344 L 8.359375 -15.976562 L 16.347656 0 L 23.777344 0 Z M 23.777344 -28.980469 "/></g></g></g><g fill="#ffffff" fill-opacity="1"><g transform="translate(251.567969, 186.627806)"><g><path d="M 23.667969 -13.746094 L 23.667969 -15.234375 C 23.667969 -25.265625 20.25 -28.980469 11.148438 -28.980469 L 1.859375 -28.980469 L 1.859375 0 L 11.148438 0 C 20.25 0 23.667969 -3.714844 23.667969 -13.746094 Z M 8.917969 -6.09375 L 8.917969 -22.886719 L 10.773438 -22.886719 C 15.605469 -22.886719 16.496094 -20.25 16.496094 -15.234375 L 16.496094 -13.746094 C 16.496094 -8.730469 15.605469 -6.09375 10.773438 -6.09375 Z M 8.917969 -6.09375 "/></g></g></g><g fill="#ffffff" fill-opacity="1"><g transform="translate(280.135991, 186.627806)"><g><path d="M 1.859375 -28.980469 L 1.859375 0 L 20.0625 0 L 20.0625 -6.09375 L 8.917969 -6.09375 L 8.917969 -11.742188 L 18.207031 -11.742188 L 18.207031 -17.835938 L 8.917969 -17.835938 L 8.917969 -22.886719 L 20.0625 -22.886719 L 20.0625 -28.980469 Z M 1.859375 -28.980469 "/></g></g></g><g fill="#ffffff" fill-opacity="1"><g transform="translate(76.740572, 221.510352)"><g><path d="M 0.859375 3.820312 C 4.289062 3.527344 13.75 -2.78125 20.773438 -8.609375 C 20.851562 -8.707031 20.933594 -8.800781 20.917969 -8.976562 C 20.894531 -9.242188 20.695312 -9.488281 20.433594 -9.464844 C 20.257812 -9.449219 20.167969 -9.445312 20.089844 -9.347656 C 12.238281 -2.828125 3.589844 2.613281 0.777344 2.855469 C -0.714844 2.984375 -1.1875 2.671875 -1.292969 1.441406 C -1.445312 -0.316406 -0.535156 -3.140625 1.210938 -6.480469 C 15.371094 -16.820312 39.5 -41.921875 39.0625 -47.019531 C 38.960938 -48.164062 38.207031 -48.71875 36.976562 -48.613281 C 29.59375 -47.972656 -3.152344 -8.847656 -2.257812 1.523438 C -2.109375 3.28125 -1.160156 3.996094 0.859375 3.820312 Z M 2.363281 -8.527344 C 10.800781 -23.597656 31.609375 -47.175781 37.058594 -47.644531 C 37.761719 -47.707031 38.050781 -47.464844 38.09375 -46.9375 C 38.457031 -42.71875 17.054688 -19.886719 2.363281 -8.527344 Z M 2.363281 -8.527344 "/></g></g></g><g fill="#ffffff" fill-opacity="1"><g transform="translate(95.899552, 219.857082)"><g><path d="M -0.464844 0.75 C 2.34375 0.507812 4.660156 -4.476562 3.835938 -7.855469 C 3.824219 -8.03125 3.894531 -8.214844 4.085938 -8.054688 C 9.457031 -5.332031 16.253906 -5.5625 20.597656 -8.59375 C 20.765625 -8.699219 20.925781 -8.890625 20.910156 -9.066406 C 20.886719 -9.328125 20.609375 -9.480469 20.34375 -9.457031 L 20.082031 -9.4375 C 16.074219 -6.609375 9.894531 -6.433594 4.902344 -8.835938 C 4.722656 -8.90625 4.714844 -8.996094 4.882812 -9.097656 C 4.960938 -9.195312 5.136719 -9.207031 5.21875 -9.304688 C 5.480469 -9.328125 5.554688 -9.511719 5.53125 -9.773438 C 5.507812 -10.039062 5.308594 -10.285156 5.046875 -10.261719 C 4.957031 -10.253906 4.871094 -10.25 4.878906 -10.160156 C 4.445312 -10.035156 4.023438 -9.820312 3.6875 -9.613281 C 3.519531 -9.511719 3.519531 -9.511719 3.335938 -9.585938 C 2.976562 -9.640625 2.644531 -9.347656 2.5 -8.980469 C 2.507812 -8.894531 2.421875 -8.886719 2.429688 -8.796875 C -0.488281 -6.6875 -2.523438 -3.589844 -2.3125 -1.128906 C -2.203125 0.101562 -1.519531 0.839844 -0.464844 0.75 Z M -0.550781 -0.21875 C -0.988281 -0.179688 -1.285156 -0.507812 -1.34375 -1.210938 C -1.519531 -3.234375 0.28125 -5.957031 2.863281 -7.863281 C 3.546875 -5.085938 1.558594 -0.398438 -0.550781 -0.21875 Z M -0.550781 -0.21875 "/></g></g></g><g fill="#ffffff" fill-opacity="1"><g transform="translate(114.882774, 218.218978)"><g><path d="M -4.480469 8.621094 C -2.105469 8.414062 3.527344 1.910156 7.125 -3.625 C 7.878906 -3.070312 8.964844 -2.808594 10.285156 -2.925781 C 14.855469 -3.316406 20.066406 -6.511719 22.96875 -8.800781 C 23.136719 -8.902344 23.210938 -9.085938 23.195312 -9.261719 C 23.171875 -9.527344 22.894531 -9.679688 22.628906 -9.65625 L 22.367188 -9.632812 C 19.464844 -7.347656 14.507812 -4.261719 10.199219 -3.890625 C 9.058594 -3.792969 8.238281 -4.074219 7.671875 -4.46875 C 9.296875 -7.175781 10.425781 -9.488281 10.328125 -10.628906 C 10.273438 -11.246094 9.796875 -11.648438 9.09375 -11.585938 C 7.335938 -11.433594 5.644531 -8.457031 5.851562 -6.082031 C 5.902344 -5.46875 6.042969 -4.859375 6.34375 -4.441406 C 2.910156 0.898438 -2.628906 7.488281 -4.5625 7.652344 C -4.738281 7.667969 -5.019531 7.515625 -5.046875 7.164062 C -5.296875 4.265625 0.429688 -5.261719 2.261719 -7.632812 L 2.320312 -7.992188 C 2.296875 -8.253906 2.011719 -8.496094 1.746094 -8.472656 C 1.660156 -8.464844 1.492188 -8.363281 1.410156 -8.265625 C -0.421875 -5.894531 -6.382812 4.003906 -6.101562 7.253906 C -6.019531 8.222656 -5.359375 8.695312 -4.480469 8.621094 Z M 6.972656 -5.382812 C 6.949219 -5.648438 6.839844 -5.902344 6.816406 -6.167969 C 6.664062 -7.925781 8.042969 -10.433594 9.097656 -10.523438 C 9.273438 -10.539062 9.273438 -10.539062 9.28125 -10.453125 C 9.347656 -9.660156 8.453125 -7.722656 6.972656 -5.382812 Z M 6.972656 -5.382812 "/></g></g></g><g fill="#ffffff" fill-opacity="1"><g transform="translate(136.238888, 216.376112)"><g><path d="M 2.921875 0.0117188 C 5.648438 -0.222656 13.960938 -3.417969 19.71875 -8.519531 C 19.886719 -8.621094 19.957031 -8.804688 19.941406 -8.980469 C 19.921875 -9.246094 19.640625 -9.398438 19.378906 -9.375 C 19.289062 -9.367188 19.203125 -9.359375 19.121094 -9.265625 C 13.4375 -4.347656 5.378906 -1.261719 2.832031 -1.042969 C 0.8125 -0.867188 -0.289062 -1.304688 -0.386719 -2.445312 C -0.488281 -3.589844 0.269531 -5.070312 1.308594 -6.398438 C 1.855469 -6.179688 2.566406 -6.152344 3.535156 -6.238281 C 5.117188 -6.375 7.023438 -7.867188 6.925781 -9.007812 C 6.851562 -9.886719 6.1875 -10.363281 5.222656 -10.277344 C 2.320312 -10.027344 -1.691406 -5.253906 -1.441406 -2.355469 C -1.292969 -0.597656 0.375 0.234375 2.921875 0.0117188 Z M 3.453125 -7.203125 C 2.835938 -7.152344 2.390625 -7.199219 2.03125 -7.257812 C 3.089844 -8.324219 4.257812 -9.132812 5.3125 -9.222656 C 5.753906 -9.261719 5.9375 -9.1875 5.957031 -8.925781 C 6.003906 -8.398438 4.417969 -7.289062 3.453125 -7.203125 Z M 3.453125 -7.203125 "/></g></g></g><g fill="#ffffff" fill-opacity="1"><g transform="translate(154.255361, 214.821431)"><g/></g></g><g fill="#ffffff" fill-opacity="1"><g transform="translate(173.678018, 213.145407)"><g><path d="M 5.347656 -11.882812 C 5.523438 -11.898438 5.613281 -11.90625 5.6875 -12.089844 L 6.007812 -12.472656 C 6.234375 -12.933594 6.546875 -13.402344 6.707031 -13.59375 C 6.789062 -13.691406 6.773438 -13.867188 6.765625 -13.953125 C 6.742188 -14.21875 6.542969 -14.464844 6.28125 -14.441406 C 6.105469 -14.425781 5.9375 -14.324219 5.855469 -14.230469 C 5.703125 -13.949219 5.394531 -13.390625 5.164062 -13.019531 L 4.839844 -12.636719 C 4.761719 -12.539062 4.769531 -12.453125 4.785156 -12.277344 C 4.808594 -12.011719 5.085938 -11.859375 5.347656 -11.882812 Z M 0.75 0.464844 C 3.738281 0.207031 12.59375 -4.894531 17.082031 -8.292969 C 17.160156 -8.386719 17.234375 -8.570312 17.21875 -8.746094 C 17.195312 -9.007812 17.003906 -9.171875 16.652344 -9.140625 L 16.390625 -9.117188 C 12.078125 -5.734375 3.382812 -0.824219 0.65625 -0.589844 C -0.308594 -0.503906 -0.777344 -0.816406 -0.855469 -1.695312 C -0.960938 -2.925781 0.890625 -6.097656 3.613281 -9.429688 C 3.695312 -9.527344 3.773438 -9.621094 3.757812 -9.796875 C 3.734375 -10.0625 3.457031 -10.214844 3.191406 -10.191406 C 3.015625 -10.175781 2.929688 -10.167969 2.847656 -10.074219 C -0.113281 -6.453125 -1.964844 -3.285156 -1.820312 -1.613281 C -1.699219 -0.207031 -0.746094 0.59375 0.75 0.464844 Z M 0.75 0.464844 "/></g></g></g><g fill="#ffffff" fill-opacity="1"><g transform="translate(189.05792, 211.818241)"><g><path d="M 0.0117188 4.25 C 2.914062 4 6.425781 0.597656 7.964844 -2.105469 L 8.210938 -2.300781 C 10.4375 -3.203125 13.171875 -4.324219 16.085938 -5.460938 C 18.996094 -6.597656 22.085938 -7.75 24.648438 -8.855469 C 24.902344 -8.964844 24.976562 -9.148438 24.953125 -9.414062 C 24.929688 -9.675781 24.738281 -9.835938 24.476562 -9.816406 L 24.300781 -9.800781 C 21.738281 -8.695312 18.652344 -7.542969 15.738281 -6.40625 C 13.339844 -5.488281 10.945312 -4.484375 8.890625 -3.6875 C 8.808594 -3.59375 8.714844 -3.671875 8.699219 -3.847656 C 8.773438 -4.03125 8.757812 -4.207031 8.835938 -4.304688 C 8.761719 -5.183594 8.117188 -5.480469 7.0625 -5.390625 C 6.359375 -5.328125 5.492188 -5.078125 4.542969 -4.820312 C 3.589844 -4.558594 2.550781 -4.292969 1.761719 -4.226562 C 0.96875 -4.15625 0.691406 -4.308594 0.667969 -4.574219 C 0.492188 -6.59375 4.761719 -10.503906 7.398438 -10.730469 C 7.835938 -10.769531 7.9375 -10.601562 7.960938 -10.335938 C 8.015625 -9.722656 7.308594 -8.6875 6.722656 -8.28125 C 6.554688 -8.179688 6.480469 -7.996094 6.496094 -7.820312 C 6.527344 -7.46875 6.804688 -7.316406 7.070312 -7.339844 C 7.15625 -7.347656 7.246094 -7.355469 7.324219 -7.449219 C 8.078125 -7.957031 8.777344 -9.082031 8.953125 -10.15625 C 9.03125 -10.253906 9.015625 -10.429688 9.007812 -10.515625 C 8.941406 -11.308594 8.28125 -11.78125 7.3125 -11.699219 C 4.148438 -11.425781 -0.605469 -7.03125 -0.386719 -4.480469 C -0.304688 -3.515625 0.527344 -3.144531 1.84375 -3.257812 C 2.722656 -3.332031 3.761719 -3.601562 4.800781 -3.867188 C 5.496094 -4.015625 7.664062 -4.558594 7.773438 -4.300781 C 7.972656 -4.050781 7.660156 -3.582031 7.433594 -3.121094 C 7.441406 -3.03125 7.351562 -3.023438 7.265625 -3.015625 C 3.863281 -1.394531 -1.722656 1.566406 -1.582031 3.234375 C -1.511719 4.027344 -0.953125 4.332031 0.0117188 4.25 Z M -0.078125 3.195312 C -0.519531 3.230469 -0.605469 3.238281 -0.621094 3.0625 C -0.660156 2.625 2.265625 0.601562 5.828125 -1.210938 C 6.089844 -1.234375 6.1875 -1.152344 6.027344 -0.960938 C 4.425781 1.035156 1.941406 3.019531 -0.078125 3.195312 Z M -0.078125 3.195312 "/></g></g></g><g fill="#ffffff" fill-opacity="1"><g transform="translate(212.171734, 209.823699)"><g/></g></g><g fill="#ffffff" fill-opacity="1"><g transform="translate(231.594391, 208.147675)"><g><path d="M 5.347656 -11.882812 C 5.523438 -11.898438 5.613281 -11.90625 5.6875 -12.089844 L 6.007812 -12.472656 C 6.234375 -12.933594 6.546875 -13.402344 6.707031 -13.59375 C 6.789062 -13.691406 6.773438 -13.867188 6.765625 -13.953125 C 6.742188 -14.21875 6.542969 -14.464844 6.28125 -14.441406 C 6.105469 -14.425781 5.9375 -14.324219 5.855469 -14.230469 C 5.703125 -13.949219 5.394531 -13.390625 5.164062 -13.019531 L 4.839844 -12.636719 C 4.761719 -12.539062 4.769531 -12.453125 4.785156 -12.277344 C 4.808594 -12.011719 5.085938 -11.859375 5.347656 -11.882812 Z M 0.75 0.464844 C 3.738281 0.207031 12.59375 -4.894531 17.082031 -8.292969 C 17.160156 -8.386719 17.234375 -8.570312 17.21875 -8.746094 C 17.195312 -9.007812 17.003906 -9.171875 16.652344 -9.140625 L 16.390625 -9.117188 C 12.078125 -5.734375 3.382812 -0.824219 0.65625 -0.589844 C -0.308594 -0.503906 -0.777344 -0.816406 -0.855469 -1.695312 C -0.960938 -2.925781 0.890625 -6.097656 3.613281 -9.429688 C 3.695312 -9.527344 3.773438 -9.621094 3.757812 -9.796875 C 3.734375 -10.0625 3.457031 -10.214844 3.191406 -10.191406 C 3.015625 -10.175781 2.929688 -10.167969 2.847656 -10.074219 C -0.113281 -6.453125 -1.964844 -3.285156 -1.820312 -1.613281 C -1.699219 -0.207031 -0.746094 0.59375 0.75 0.464844 Z M 0.75 0.464844 "/></g></g></g><g fill="#ffffff" fill-opacity="1"><g transform="translate(246.974294, 206.82051)"><g><path d="M -2.460938 0.210938 C -2.109375 0.183594 -1.378906 -0.589844 -0.386719 -1.382812 C 2.832031 -4.140625 9.332031 -9.835938 12.144531 -10.078125 C 12.496094 -10.109375 12.609375 -9.851562 12.621094 -9.675781 C 12.660156 -9.238281 12.429688 -7.800781 12.183594 -6.539062 C 12.019531 -5.375 11.855469 -4.210938 11.902344 -3.683594 C 11.992188 -2.628906 12.835938 -2.082031 14.066406 -2.1875 C 17.230469 -2.460938 22.570312 -5.222656 27.628906 -9.203125 C 27.796875 -9.304688 27.867188 -9.488281 27.851562 -9.664062 C 27.832031 -9.925781 27.550781 -10.082031 27.289062 -10.058594 L 27.023438 -10.035156 C 22.054688 -6.066406 16.882812 -3.40625 13.984375 -3.15625 C 13.28125 -3.09375 12.992188 -3.335938 12.957031 -3.773438 C 12.917969 -4.214844 13.007812 -5.195312 13.261719 -6.367188 C 13.414062 -7.710938 13.644531 -9.144531 13.574219 -9.9375 C 13.507812 -10.726562 12.941406 -11.121094 12.0625 -11.046875 C 9.777344 -10.847656 5.851562 -8.121094 -0.660156 -2.511719 C -1.074219 -2.210938 -1.195312 -2.554688 -1.042969 -2.832031 C 0.65625 -5.722656 4.058594 -10.445312 7.34375 -13.382812 C 7.425781 -13.480469 7.496094 -13.664062 7.484375 -13.839844 C 7.460938 -14.101562 7.269531 -14.261719 7.003906 -14.238281 C 6.828125 -14.222656 6.742188 -14.21875 6.660156 -14.121094 C 1.898438 -9.816406 -3.082031 -1.859375 -3.246094 -0.695312 C -3.289062 -0.160156 -2.988281 0.257812 -2.460938 0.210938 Z M -2.460938 0.210938 "/></g></g></g><g fill="#ffffff" fill-opacity="1"><g transform="translate(90.960239, 264.553047)"><g><path d="M -16.617188 23.921875 C -16.179688 23.886719 -15.710938 23.136719 -15.332031 22.394531 C -15.179688 22.117188 -15.203125 21.851562 -15.386719 21.78125 C -8.167969 7.964844 1.285156 -6.664062 11.082031 -20.347656 C 18.699219 -21.359375 26.519531 -22.03125 34.011719 -22.414062 C 34.363281 -22.445312 34.523438 -22.636719 34.503906 -22.898438 C 34.480469 -23.164062 34.28125 -23.410156 34.015625 -23.386719 C 26.699219 -23.023438 19.230469 -22.378906 11.957031 -21.484375 C 16.226562 -27.429688 20.507812 -33.203125 24.816406 -38.707031 C 24.894531 -38.804688 24.878906 -38.980469 24.871094 -39.066406 C 24.851562 -39.332031 24.652344 -39.578125 24.300781 -39.550781 C 24.210938 -39.542969 24.042969 -39.4375 23.964844 -39.34375 C 19.503906 -33.558594 14.980469 -27.5 10.558594 -21.273438 C 2.671875 -20.328125 -4.921875 -19.054688 -11.699219 -17.582031 C -11.957031 -17.472656 -12.117188 -17.28125 -12.09375 -17.019531 C -12.070312 -16.753906 -11.785156 -16.515625 -11.519531 -16.535156 L -11.433594 -16.542969 C -5.003906 -17.984375 2.238281 -19.230469 9.765625 -20.234375 C -0.1875 -6.269531 -9.628906 8.445312 -16.921875 22.445312 C -16.996094 22.628906 -17.066406 22.8125 -17.140625 22.996094 L -17.21875 23.089844 C -17.351562 23.632812 -17.234375 23.976562 -16.617188 23.921875 Z M -16.617188 23.921875 "/></g></g></g><g fill="#ffffff" fill-opacity="1"><g transform="translate(104.055127, 263.423061)"><g><path d="M -4.90625 5.734375 C -4.554688 5.707031 -3.589844 4.558594 -2.394531 3.039062 C -1.34375 1.886719 0.03125 0.351562 1.394531 -1.269531 C 5.835938 -6.257812 9.050781 -9.015625 10.457031 -9.136719 C 10.632812 -9.152344 10.726562 -9.070312 10.75 -8.808594 C 10.804688 -8.191406 10.445312 -7.1875 10.179688 -6.191406 C 9.832031 -5.097656 9.488281 -3.917969 9.574219 -2.949219 C 9.710938 -1.367188 10.847656 -0.492188 12.695312 -0.652344 C 16.824219 -1.007812 25.160156 -5.976562 29.472656 -9.359375 C 29.640625 -9.464844 29.714844 -9.648438 29.699219 -9.824219 C 29.675781 -10.085938 29.398438 -10.238281 29.132812 -10.21875 L 28.871094 -10.195312 C 24.558594 -6.8125 16.46875 -2.039062 12.601562 -1.707031 C 11.285156 -1.59375 10.632812 -1.980469 10.539062 -3.035156 C 10.480469 -3.738281 10.835938 -4.742188 11.097656 -5.828125 C 11.445312 -6.917969 11.792969 -8.011719 11.71875 -8.890625 C 11.640625 -9.769531 11.164062 -10.171875 10.371094 -10.101562 C 8.527344 -9.945312 5.3125 -7.1875 0.632812 -1.914062 C -0.742188 -0.378906 -2.113281 1.15625 -3.15625 2.398438 C -3.953125 3.441406 -4.386719 3.566406 -3.789062 2.273438 C -2.652344 0.0507812 -0.71875 -3.214844 1.78125 -7.058594 C 19.566406 -20.546875 35.5 -42.109375 35.121094 -46.503906 C 35.039062 -47.46875 34.464844 -47.953125 33.5 -47.867188 C 28.664062 -47.453125 -6.140625 -0.355469 -5.667969 5.09375 C -5.632812 5.53125 -5.34375 5.773438 -4.90625 5.734375 Z M 3.589844 -9.695312 C 13.953125 -25.019531 30.777344 -46.570312 33.589844 -46.8125 C 34.027344 -46.851562 34.125 -46.773438 34.15625 -46.421875 C 34.488281 -42.554688 20.222656 -23.171875 3.589844 -9.695312 Z M 3.589844 -9.695312 "/></g></g></g><g fill="#ffffff" fill-opacity="1"><g transform="translate(131.826847, 261.026578)"><g><path d="M 2.921875 0.0117188 C 5.648438 -0.222656 13.960938 -3.417969 19.71875 -8.519531 C 19.886719 -8.621094 19.957031 -8.804688 19.941406 -8.980469 C 19.921875 -9.246094 19.640625 -9.398438 19.378906 -9.375 C 19.289062 -9.367188 19.203125 -9.359375 19.121094 -9.265625 C 13.4375 -4.347656 5.378906 -1.261719 2.832031 -1.042969 C 0.8125 -0.867188 -0.289062 -1.304688 -0.386719 -2.445312 C -0.488281 -3.589844 0.269531 -5.070312 1.308594 -6.398438 C 1.855469 -6.179688 2.566406 -6.152344 3.535156 -6.238281 C 5.117188 -6.375 7.023438 -7.867188 6.925781 -9.007812 C 6.851562 -9.886719 6.1875 -10.363281 5.222656 -10.277344 C 2.320312 -10.027344 -1.691406 -5.253906 -1.441406 -2.355469 C -1.292969 -0.597656 0.375 0.234375 2.921875 0.0117188 Z M 3.453125 -7.203125 C 2.835938 -7.152344 2.390625 -7.199219 2.03125 -7.257812 C 3.089844 -8.324219 4.257812 -9.132812 5.3125 -9.222656 C 5.753906 -9.261719 5.9375 -9.1875 5.957031 -8.925781 C 6.003906 -8.398438 4.417969 -7.289062 3.453125 -7.203125 Z M 3.453125 -7.203125 "/></g></g></g><g fill="#ffffff" fill-opacity="1"><g transform="translate(149.84332, 259.471897)"><g/></g></g><g fill="#ffffff" fill-opacity="1"><g transform="translate(169.265977, 257.795873)"><g><path d="M -4.90625 5.734375 C -4.554688 5.707031 -3.589844 4.558594 -2.394531 3.039062 C -1.34375 1.886719 0.03125 0.351562 1.394531 -1.269531 C 5.835938 -6.257812 9.050781 -9.015625 10.457031 -9.136719 C 10.632812 -9.152344 10.726562 -9.070312 10.75 -8.808594 C 10.804688 -8.191406 10.445312 -7.1875 10.179688 -6.191406 C 9.832031 -5.097656 9.488281 -3.917969 9.574219 -2.949219 C 9.710938 -1.367188 10.847656 -0.492188 12.695312 -0.652344 C 16.824219 -1.007812 25.160156 -5.976562 29.472656 -9.359375 C 29.640625 -9.464844 29.714844 -9.648438 29.699219 -9.824219 C 29.675781 -10.085938 29.398438 -10.238281 29.132812 -10.21875 L 28.871094 -10.195312 C 24.558594 -6.8125 16.46875 -2.039062 12.601562 -1.707031 C 11.285156 -1.59375 10.632812 -1.980469 10.539062 -3.035156 C 10.480469 -3.738281 10.835938 -4.742188 11.097656 -5.828125 C 11.445312 -6.917969 11.792969 -8.011719 11.71875 -8.890625 C 11.640625 -9.769531 11.164062 -10.171875 10.371094 -10.101562 C 8.527344 -9.945312 5.3125 -7.1875 0.632812 -1.914062 C -0.742188 -0.378906 -2.113281 1.15625 -3.15625 2.398438 C -3.953125 3.441406 -4.386719 3.566406 -3.789062 2.273438 C -2.652344 0.0507812 -0.71875 -3.214844 1.78125 -7.058594 C 19.566406 -20.546875 35.5 -42.109375 35.121094 -46.503906 C 35.039062 -47.46875 34.464844 -47.953125 33.5 -47.867188 C 28.664062 -47.453125 -6.140625 -0.355469 -5.667969 5.09375 C -5.632812 5.53125 -5.34375 5.773438 -4.90625 5.734375 Z M 3.589844 -9.695312 C 13.953125 -25.019531 30.777344 -46.570312 33.589844 -46.8125 C 34.027344 -46.851562 34.125 -46.773438 34.15625 -46.421875 C 34.488281 -42.554688 20.222656 -23.171875 3.589844 -9.695312 Z M 3.589844 -9.695312 "/></g></g></g><g fill="#ffffff" fill-opacity="1"><g transform="translate(197.037697, 255.39939)"><g><path d="M 11.871094 -0.9375 C 14.949219 -1.203125 22.746094 -5.238281 27.363281 -9.179688 C 27.445312 -9.273438 27.515625 -9.457031 27.5 -9.632812 C 27.480469 -9.898438 27.289062 -10.058594 27.023438 -10.035156 C 26.847656 -10.019531 26.761719 -10.011719 26.679688 -9.917969 C 22.078125 -5.800781 14.503906 -2.226562 11.78125 -1.992188 C 10.285156 -1.863281 9.546875 -2.242188 9.449219 -3.382812 C 9.304688 -5.050781 10.527344 -7.285156 11.453125 -8.867188 C 11.992188 -9.800781 12.296875 -10.359375 12.269531 -10.710938 C 12.238281 -11.0625 11.953125 -11.300781 11.601562 -11.273438 C 11.160156 -11.234375 10.167969 -10.441406 8.441406 -8.875 C 7.832031 -9.796875 7.1875 -10.09375 5.867188 -9.980469 C 2.878906 -9.722656 -4.605469 -4.117188 -4.347656 -1.128906 C -4.273438 -0.25 -3.609375 0.222656 -2.644531 0.140625 C -0.183594 -0.0742188 4.917969 -4.585938 8.378906 -7.539062 C 9.039062 -8.128906 9.613281 -8.621094 10.03125 -8.921875 C 10.191406 -9.113281 10.464844 -9.046875 10.222656 -8.761719 C 9.304688 -7.089844 8.328125 -5.058594 8.480469 -3.300781 C 8.632812 -1.542969 9.761719 -0.753906 11.871094 -0.9375 Z M -2.734375 -0.914062 C -3.175781 -0.878906 -3.359375 -0.949219 -3.378906 -1.214844 C -3.5625 -3.324219 2.964844 -8.753906 5.953125 -9.011719 C 6.917969 -9.097656 7.195312 -8.945312 7.609375 -8.269531 C 4.242188 -5.234375 -0.625 -1.097656 -2.734375 -0.914062 Z M -2.734375 -0.914062 "/></g></g></g><g fill="#ffffff" fill-opacity="1"><g transform="translate(222.700202, 253.184916)"><g><path d="M 5.347656 -11.882812 C 5.523438 -11.898438 5.613281 -11.90625 5.6875 -12.089844 L 6.007812 -12.472656 C 6.234375 -12.933594 6.546875 -13.402344 6.707031 -13.59375 C 6.789062 -13.691406 6.773438 -13.867188 6.765625 -13.953125 C 6.742188 -14.21875 6.542969 -14.464844 6.28125 -14.441406 C 6.105469 -14.425781 5.9375 -14.324219 5.855469 -14.230469 C 5.703125 -13.949219 5.394531 -13.390625 5.164062 -13.019531 L 4.839844 -12.636719 C 4.761719 -12.539062 4.769531 -12.453125 4.785156 -12.277344 C 4.808594 -12.011719 5.085938 -11.859375 5.347656 -11.882812 Z M 0.75 0.464844 C 3.738281 0.207031 12.59375 -4.894531 17.082031 -8.292969 C 17.160156 -8.386719 17.234375 -8.570312 17.21875 -8.746094 C 17.195312 -9.007812 17.003906 -9.171875 16.652344 -9.140625 L 16.390625 -9.117188 C 12.078125 -5.734375 3.382812 -0.824219 0.65625 -0.589844 C -0.308594 -0.503906 -0.777344 -0.816406 -0.855469 -1.695312 C -0.960938 -2.925781 0.890625 -6.097656 3.613281 -9.429688 C 3.695312 -9.527344 3.773438 -9.621094 3.757812 -9.796875 C 3.734375 -10.0625 3.457031 -10.214844 3.191406 -10.191406 C 3.015625 -10.175781 2.929688 -10.167969 2.847656 -10.074219 C -0.113281 -6.453125 -1.964844 -3.285156 -1.820312 -1.613281 C -1.699219 -0.207031 -0.746094 0.59375 0.75 0.464844 Z M 0.75 0.464844 "/></g></g></g><g fill="#ffffff" fill-opacity="1"><g transform="translate(238.080105, 251.85775)"><g><path d="M 1.960938 9.394531 C 7.234375 8.9375 21.667969 -2.3125 29.914062 -9.398438 C 29.992188 -9.496094 30.066406 -9.675781 30.050781 -9.851562 C 30.027344 -10.117188 29.835938 -10.277344 29.484375 -10.246094 C 29.398438 -10.238281 29.308594 -10.230469 29.230469 -10.136719 C 21.074219 -3.058594 6.878906 7.90625 1.871094 8.339844 C 0.816406 8.429688 0.433594 8.109375 0.359375 7.230469 C 0.136719 4.679688 4.242188 -0.101562 8.183594 -4.691406 C 11.636719 -8.796875 15.097656 -12.8125 14.914062 -14.921875 C 14.824219 -15.976562 13.53125 -16.574219 11.917969 -17.851562 C 14.945312 -21.742188 17.125 -25.207031 17.019531 -26.4375 C 16.96875 -27.050781 16.578125 -27.460938 15.960938 -27.40625 C 13.238281 -27.171875 7.488281 -21.984375 7.675781 -19.785156 C 7.746094 -18.996094 8.679688 -18.457031 10.351562 -17.539062 C 7.714844 -14.210938 4.3125 -10.554688 1.019531 -7.703125 C 0.9375 -7.605469 0.863281 -7.421875 0.871094 -7.335938 C 0.902344 -6.984375 1.09375 -6.824219 1.355469 -6.847656 C 1.53125 -6.859375 1.621094 -6.867188 1.699219 -6.964844 C 4.667969 -9.523438 8.320312 -13.378906 11.273438 -17.085938 C 13.140625 -16.007812 13.808594 -15.445312 13.859375 -14.832031 C 14.003906 -13.160156 10.871094 -9.4375 7.414062 -5.421875 C 3.476562 -0.742188 -0.867188 4.324219 -0.609375 7.3125 C -0.488281 8.71875 0.292969 9.535156 1.960938 9.394531 Z M 10.992188 -18.300781 C 9.320312 -19.21875 8.746094 -19.703125 8.730469 -19.878906 C 8.601562 -21.371094 13.285156 -25.582031 15.621094 -26.226562 C 15.878906 -26.339844 16.070312 -26.175781 16.003906 -25.90625 C 15.515625 -24.359375 12.671875 -20.394531 10.992188 -18.300781 Z M 10.992188 -18.300781 "/></g></g></g><g fill="#ffffff" fill-opacity="1"><g transform="translate(100.104193, 278.621242)"><g><path d="M 2.828125 0.0898438 C 3.855469 0.0898438 4.453125 -0.289062 4.800781 -0.65625 L 4.800781 -3.183594 L 3.09375 -3.183594 L 3.09375 -2.652344 L 4.203125 -2.652344 L 4.203125 -0.945312 C 3.96875 -0.695312 3.523438 -0.449219 2.867188 -0.449219 L 2.808594 -0.449219 C 1.625 -0.449219 1.09375 -1.226562 1.09375 -3.066406 L 1.09375 -3.398438 C 1.09375 -5.238281 1.648438 -6.019531 2.742188 -6.019531 L 2.792969 -6.019531 C 3.789062 -6.019531 4.195312 -5.445312 4.195312 -4.113281 L 4.800781 -4.113281 L 4.800781 -4.34375 C 4.800781 -5.800781 4.128906 -6.558594 2.742188 -6.558594 C 1.269531 -6.558594 0.472656 -5.636719 0.472656 -3.398438 L 0.472656 -3.066406 C 0.472656 -0.828125 1.269531 0.0898438 2.828125 0.0898438 Z M 2.828125 0.0898438 "/></g></g></g><g fill="#ffffff" fill-opacity="1"><g transform="translate(106.719132, 278.621242)"><g><path d="M 0.613281 -6.464844 L 0.613281 0 L 4.21875 0 L 4.21875 -0.539062 L 1.210938 -0.539062 L 1.210938 -3.035156 L 3.804688 -3.035156 L 3.804688 -3.5625 L 1.210938 -3.5625 L 1.210938 -5.925781 L 4.21875 -5.925781 L 4.21875 -6.464844 Z M 0.613281 -6.464844 "/></g></g></g><g fill="#ffffff" fill-opacity="1"><g transform="translate(112.513412, 278.621242)"><g><path d="M 3.945312 0 L 3.945312 -0.539062 L 1.210938 -0.539062 L 1.210938 -6.464844 L 0.613281 -6.464844 L 0.613281 0 Z M 3.945312 0 "/></g></g></g><g fill="#ffffff" fill-opacity="1"><g transform="translate(117.826912, 278.621242)"><g><path d="M 1.25 -6.464844 L 0.65625 -6.464844 L 0.65625 0 L 1.25 0 Z M 1.25 -6.464844 "/></g></g></g><g fill="#ffffff" fill-opacity="1"><g transform="translate(120.976879, 278.621242)"><g><path d="M 4.847656 -6.464844 L 4.285156 -6.464844 L 4.285156 -2.511719 L 4.308594 -1.011719 L 1.261719 -6.464844 L 0.613281 -6.464844 L 0.613281 0 L 1.175781 0 L 1.175781 -3.953125 L 1.144531 -5.453125 L 4.203125 0 L 4.847656 0 Z M 4.847656 -6.464844 "/></g></g></g><g fill="#ffffff" fill-opacity="1"><g transform="translate(127.682992, 278.621242)"><g><path d="M 2.828125 0.0898438 C 3.855469 0.0898438 4.453125 -0.289062 4.800781 -0.65625 L 4.800781 -3.183594 L 3.09375 -3.183594 L 3.09375 -2.652344 L 4.203125 -2.652344 L 4.203125 -0.945312 C 3.96875 -0.695312 3.523438 -0.449219 2.867188 -0.449219 L 2.808594 -0.449219 C 1.625 -0.449219 1.09375 -1.226562 1.09375 -3.066406 L 1.09375 -3.398438 C 1.09375 -5.238281 1.648438 -6.019531 2.742188 -6.019531 L 2.792969 -6.019531 C 3.789062 -6.019531 4.195312 -5.445312 4.195312 -4.113281 L 4.800781 -4.113281 L 4.800781 -4.34375 C 4.800781 -5.800781 4.128906 -6.558594 2.742188 -6.558594 C 1.269531 -6.558594 0.472656 -5.636719 0.472656 -3.398438 L 0.472656 -3.066406 C 0.472656 -0.828125 1.269531 0.0898438 2.828125 0.0898438 Z M 2.828125 0.0898438 "/></g></g></g><g fill="#ffffff" fill-opacity="1"><g transform="translate(134.29793, 278.621242)"><g><path d="M 2.828125 0.0898438 C 3.855469 0.0898438 4.453125 -0.289062 4.800781 -0.65625 L 4.800781 -3.183594 L 3.09375 -3.183594 L 3.09375 -2.652344 L 4.203125 -2.652344 L 4.203125 -0.945312 C 3.96875 -0.695312 3.523438 -0.449219 2.867188 -0.449219 L 2.808594 -0.449219 C 1.625 -0.449219 1.09375 -1.226562 1.09375 -3.066406 L 1.09375 -3.398438 C 1.09375 -5.238281 1.648438 -6.019531 2.742188 -6.019531 L 2.792969 -6.019531 C 3.789062 -6.019531 4.195312 -5.445312 4.195312 -4.113281 L 4.800781 -4.113281 L 4.800781 -4.34375 C 4.800781 -5.800781 4.128906 -6.558594 2.742188 -6.558594 C 1.269531 -6.558594 0.472656 -5.636719 0.472656 -3.398438 L 0.472656 -3.066406 C 0.472656 -0.828125 1.269531 0.0898438 2.828125 0.0898438 Z M 2.828125 0.0898438 "/></g></g></g><g fill="#ffffff" fill-opacity="1"><g transform="translate(140.912867, 278.621242)"><g><path d="M 2.105469 -6.53125 L 0.242188 0 L 0.886719 0 L 1.351562 -1.65625 L 3.714844 -1.65625 L 4.179688 0 L 4.824219 0 L 2.960938 -6.53125 Z M 2.527344 -5.878906 L 3.554688 -2.195312 L 1.5 -2.195312 Z M 2.527344 -5.878906 "/></g></g></g><g fill="#ffffff" fill-opacity="1"><g transform="translate(147.221091, 278.621242)"><g><path d="M 1.210938 -2.628906 L 2.402344 -2.628906 C 2.503906 -2.628906 2.601562 -2.628906 2.703125 -2.636719 L 3.730469 0 L 4.386719 0 L 3.265625 -2.753906 C 3.878906 -2.949219 4.386719 -3.433594 4.386719 -4.460938 L 4.386719 -4.625 C 4.386719 -6.117188 3.324219 -6.464844 2.402344 -6.464844 L 0.613281 -6.464844 L 0.613281 0 L 1.210938 0 Z M 1.210938 -3.167969 L 1.210938 -5.925781 L 2.421875 -5.925781 C 2.976562 -5.925781 3.773438 -5.71875 3.773438 -4.609375 L 3.773438 -4.484375 C 3.773438 -3.375 2.976562 -3.167969 2.421875 -3.167969 Z M 1.210938 -3.167969 "/></g></g></g><g fill="#ffffff" fill-opacity="1"><g transform="translate(153.30551, 278.621242)"><g><path d="M 2.105469 -6.53125 L 0.242188 0 L 0.886719 0 L 1.351562 -1.65625 L 3.714844 -1.65625 L 4.179688 0 L 4.824219 0 L 2.960938 -6.53125 Z M 2.527344 -5.878906 L 3.554688 -2.195312 L 1.5 -2.195312 Z M 2.527344 -5.878906 "/></g></g></g><g fill="#ffffff" fill-opacity="1"><g transform="translate(159.613734, 278.621242)"><g><path d="M 4.847656 -6.464844 L 4.285156 -6.464844 L 4.285156 -2.511719 L 4.308594 -1.011719 L 1.261719 -6.464844 L 0.613281 -6.464844 L 0.613281 0 L 1.175781 0 L 1.175781 -3.953125 L 1.144531 -5.453125 L 4.203125 0 L 4.847656 0 Z M 4.847656 -6.464844 "/></g></g></g><g fill="#ffffff" fill-opacity="1"><g transform="translate(166.31985, 278.621242)"><g><path d="M 2.429688 -5.925781 L 4.078125 -5.925781 L 4.078125 -6.464844 L 0.191406 -6.464844 L 0.191406 -5.925781 L 1.832031 -5.925781 L 1.832031 0 L 2.429688 0 Z M 2.429688 -5.925781 "/></g></g></g><g fill="#ffffff" fill-opacity="1"><g transform="translate(171.832291, 278.621242)"><g><path d="M 1.25 -6.464844 L 0.65625 -6.464844 L 0.65625 0 L 1.25 0 Z M 1.25 -6.464844 "/></g></g></g><g fill="#ffffff" fill-opacity="1"><g transform="translate(174.982261, 278.621242)"><g><path d="M 0.613281 -6.464844 L 0.613281 0 L 4.21875 0 L 4.21875 -0.539062 L 1.210938 -0.539062 L 1.210938 -3.035156 L 3.804688 -3.035156 L 3.804688 -3.5625 L 1.210938 -3.5625 L 1.210938 -5.925781 L 4.21875 -5.925781 L 4.21875 -6.464844 Z M 0.613281 -6.464844 "/></g></g></g><g fill="#ffffff" fill-opacity="1"><g transform="translate(180.776544, 278.621242)"><g/></g></g><g fill="#ffffff" fill-opacity="1"><g transform="translate(183.677832, 278.621242)"><g><path d="M 2.6875 0.0898438 C 4.167969 0.0898438 4.90625 -0.828125 4.90625 -3.066406 L 4.90625 -3.398438 C 4.90625 -5.636719 4.167969 -6.558594 2.6875 -6.558594 C 1.210938 -6.558594 0.472656 -5.636719 0.472656 -3.398438 L 0.472656 -3.066406 C 0.472656 -0.828125 1.210938 0.0898438 2.6875 0.0898438 Z M 2.660156 -0.449219 C 1.574219 -0.449219 1.085938 -1.226562 1.085938 -3.066406 L 1.085938 -3.398438 C 1.085938 -5.238281 1.574219 -6.019531 2.660156 -6.019531 L 2.71875 -6.019531 C 3.804688 -6.019531 4.292969 -5.238281 4.292969 -3.398438 L 4.292969 -3.066406 C 4.292969 -1.226562 3.804688 -0.449219 2.71875 -0.449219 Z M 2.660156 -0.449219 "/></g></g></g><g fill="#ffffff" fill-opacity="1"><g transform="translate(190.301052, 278.621242)"><g><path d="M 4.824219 -3.066406 L 4.824219 -3.398438 C 4.824219 -5.636719 3.894531 -6.464844 2.320312 -6.464844 L 0.613281 -6.464844 L 0.613281 0 L 2.320312 0 C 3.894531 0 4.824219 -0.828125 4.824219 -3.066406 Z M 1.210938 -0.539062 L 1.210938 -5.925781 L 2.269531 -5.925781 C 3.515625 -5.925781 4.210938 -5.238281 4.210938 -3.398438 L 4.210938 -3.066406 C 4.210938 -1.226562 3.515625 -0.539062 2.269531 -0.539062 Z M 1.210938 -0.539062 "/></g></g></g><g fill="#ffffff" fill-opacity="1"><g transform="translate(196.841388, 278.621242)"><g><path d="M 0.613281 -6.464844 L 0.613281 0 L 4.21875 0 L 4.21875 -0.539062 L 1.210938 -0.539062 L 1.210938 -3.035156 L 3.804688 -3.035156 L 3.804688 -3.5625 L 1.210938 -3.5625 L 1.210938 -5.925781 L 4.21875 -5.925781 L 4.21875 -6.464844 Z M 0.613281 -6.464844 "/></g></g></g><g fill="#ffffff" fill-opacity="1"><g transform="translate(202.63567, 278.621242)"><g><path d="M 1.210938 -2.628906 L 2.402344 -2.628906 C 2.503906 -2.628906 2.601562 -2.628906 2.703125 -2.636719 L 3.730469 0 L 4.386719 0 L 3.265625 -2.753906 C 3.878906 -2.949219 4.386719 -3.433594 4.386719 -4.460938 L 4.386719 -4.625 C 4.386719 -6.117188 3.324219 -6.464844 2.402344 -6.464844 L 0.613281 -6.464844 L 0.613281 0 L 1.210938 0 Z M 1.210938 -3.167969 L 1.210938 -5.925781 L 2.421875 -5.925781 C 2.976562 -5.925781 3.773438 -5.71875 3.773438 -4.609375 L 3.773438 -4.484375 C 3.773438 -3.375 2.976562 -3.167969 2.421875 -3.167969 Z M 1.210938 -3.167969 "/></g></g></g><g fill="#ffffff" fill-opacity="1"><g transform="translate(208.720089, 278.621242)"><g/></g></g><g fill="#ffffff" fill-opacity="1"><g transform="translate(211.621378, 278.621242)"><g><path d="M 2.828125 0.0898438 C 3.855469 0.0898438 4.453125 -0.289062 4.800781 -0.65625 L 4.800781 -3.183594 L 3.09375 -3.183594 L 3.09375 -2.652344 L 4.203125 -2.652344 L 4.203125 -0.945312 C 3.96875 -0.695312 3.523438 -0.449219 2.867188 -0.449219 L 2.808594 -0.449219 C 1.625 -0.449219 1.09375 -1.226562 1.09375 -3.066406 L 1.09375 -3.398438 C 1.09375 -5.238281 1.648438 -6.019531 2.742188 -6.019531 L 2.792969 -6.019531 C 3.789062 -6.019531 4.195312 -5.445312 4.195312 -4.113281 L 4.800781 -4.113281 L 4.800781 -4.34375 C 4.800781 -5.800781 4.128906 -6.558594 2.742188 -6.558594 C 1.269531 -6.558594 0.472656 -5.636719 0.472656 -3.398438 L 0.472656 -3.066406 C 0.472656 -0.828125 1.269531 0.0898438 2.828125 0.0898438 Z M 2.828125 0.0898438 "/></g></g></g><g fill="#ffffff" fill-opacity="1"><g transform="translate(218.236319, 278.621242)"><g><path d="M 0.613281 -6.464844 L 0.613281 0 L 4.21875 0 L 4.21875 -0.539062 L 1.210938 -0.539062 L 1.210938 -3.035156 L 3.804688 -3.035156 L 3.804688 -3.5625 L 1.210938 -3.5625 L 1.210938 -5.925781 L 4.21875 -5.925781 L 4.21875 -6.464844 Z M 0.613281 -6.464844 "/></g></g></g><g fill="#ffffff" fill-opacity="1"><g transform="translate(224.030601, 278.621242)"><g><path d="M 3.945312 0 L 3.945312 -0.539062 L 1.210938 -0.539062 L 1.210938 -6.464844 L 0.613281 -6.464844 L 0.613281 0 Z M 3.945312 0 "/></g></g></g><g fill="#ffffff" fill-opacity="1"><g transform="translate(229.344102, 278.621242)"><g><path d="M 4.824219 -3.066406 L 4.824219 -3.398438 C 4.824219 -5.636719 3.894531 -6.464844 2.320312 -6.464844 L 0.613281 -6.464844 L 0.613281 0 L 2.320312 0 C 3.894531 0 4.824219 -0.828125 4.824219 -3.066406 Z M 1.210938 -0.539062 L 1.210938 -5.925781 L 2.269531 -5.925781 C 3.515625 -5.925781 4.210938 -5.238281 4.210938 -3.398438 L 4.210938 -3.066406 C 4.210938 -1.226562 3.515625 -0.539062 2.269531 -0.539062 Z M 1.210938 -0.539062 "/></g></g></g><g fill="#ffffff" fill-opacity="1"><g transform="translate(235.884438, 278.621242)"><g/></g></g><g fill="#ffffff" fill-opacity="1"><g transform="translate(238.785726, 278.621242)"><g><path d="M 0.332031 -0.414062 L 0.332031 0 L 4.335938 0 L 4.335938 -0.539062 L 2.113281 -0.539062 L 1.070312 -0.515625 L 4.253906 -6.050781 L 4.253906 -6.464844 L 0.414062 -6.464844 L 0.414062 -5.925781 L 2.46875 -5.925781 L 3.515625 -5.953125 Z M 0.332031 -0.414062 "/></g></g></g><g fill="#ffffff" fill-opacity="1"><g transform="translate(244.696059, 278.621242)"><g><path d="M 2.644531 0.0898438 C 4.019531 0.0898438 4.726562 -0.449219 4.726562 -2.007812 L 4.726562 -6.464844 L 4.128906 -6.464844 L 4.128906 -2.046875 C 4.128906 -0.820312 3.640625 -0.449219 2.644531 -0.449219 C 1.648438 -0.449219 1.167969 -0.820312 1.167969 -2.046875 L 1.167969 -6.464844 L 0.570312 -6.464844 L 0.570312 -2.007812 C 0.570312 -0.449219 1.269531 0.0898438 2.644531 0.0898438 Z M 2.644531 0.0898438 "/></g></g></g><g fill="#ffffff" fill-opacity="1"><g transform="translate(251.236395, 278.621242)"><g><path d="M 1.210938 -2.628906 L 2.402344 -2.628906 C 2.503906 -2.628906 2.601562 -2.628906 2.703125 -2.636719 L 3.730469 0 L 4.386719 0 L 3.265625 -2.753906 C 3.878906 -2.949219 4.386719 -3.433594 4.386719 -4.460938 L 4.386719 -4.625 C 4.386719 -6.117188 3.324219 -6.464844 2.402344 -6.464844 L 0.613281 -6.464844 L 0.613281 0 L 1.210938 0 Z M 1.210938 -3.167969 L 1.210938 -5.925781 L 2.421875 -5.925781 C 2.976562 -5.925781 3.773438 -5.71875 3.773438 -4.609375 L 3.773438 -4.484375 C 3.773438 -3.375 2.976562 -3.167969 2.421875 -3.167969 Z M 1.210938 -3.167969 "/></g></g></g><g fill="#ffffff" fill-opacity="1"><g transform="translate(257.320813, 278.621242)"><g><path d="M 2.644531 0.0898438 C 4.019531 0.0898438 4.726562 -0.449219 4.726562 -2.007812 L 4.726562 -6.464844 L 4.128906 -6.464844 L 4.128906 -2.046875 C 4.128906 -0.820312 3.640625 -0.449219 2.644531 -0.449219 C 1.648438 -0.449219 1.167969 -0.820312 1.167969 -2.046875 L 1.167969 -6.464844 L 0.570312 -6.464844 L 0.570312 -2.007812 C 0.570312 -0.449219 1.269531 0.0898438 2.644531 0.0898438 Z M 2.320312 -7.710938 L 1.667969 -7.710938 L 1.667969 -7.128906 L 2.320312 -7.128906 Z M 3.621094 -7.710938 L 2.96875 -7.710938 L 2.96875 -7.128906 L 3.621094 -7.128906 Z M 3.621094 -7.710938 "/></g></g></g><g fill="#ffffff" fill-opacity="1"><g transform="translate(263.861149, 278.621242)"><g><path d="M 1.085938 -3.066406 L 1.085938 -3.398438 C 1.085938 -5.238281 1.582031 -6.019531 2.660156 -6.019531 L 2.71875 -6.019531 C 3.6875 -6.019531 4.09375 -5.445312 4.09375 -4.113281 L 4.707031 -4.113281 L 4.707031 -4.34375 C 4.707031 -5.800781 4.046875 -6.558594 2.667969 -6.558594 C 1.183594 -6.558594 0.472656 -5.636719 0.472656 -3.398438 L 0.472656 -3.066406 C 0.472656 -0.828125 1.183594 0.0898438 2.667969 0.0898438 C 4.046875 0.0898438 4.707031 -0.664062 4.707031 -2.023438 L 4.707031 -2.105469 L 4.09375 -2.105469 C 4.09375 -1.035156 3.6875 -0.449219 2.71875 -0.449219 L 2.660156 -0.449219 C 1.574219 -0.449219 1.085938 -1.226562 1.085938 -3.066406 Z M 1.085938 -3.066406 "/></g></g></g><g fill="#ffffff" fill-opacity="1"><g transform="translate(270.227398, 278.621242)"><g><path d="M 1.210938 -6.464844 L 0.613281 -6.464844 L 0.613281 0 L 1.210938 0 L 1.210938 -1.988281 L 2.074219 -3.207031 L 3.695312 0 L 4.375 0 L 2.453125 -3.746094 L 4.375 -6.464844 L 3.648438 -6.464844 L 1.210938 -2.917969 Z M 1.210938 -6.464844 "/></g></g></g></svg>