<svg xmlns="http://www.w3.org/2000/svg" xmlns:xlink="http://www.w3.org/1999/xlink" width="500" zoomAndPan="magnify" viewBox="0 0 375 374.999991" height="500" preserveAspectRatio="xMidYMid meet" version="1.0"><defs><g/></defs><g fill="#524c4b" fill-opacity="1"><g transform="translate(126.782143, 144.266412)"><g><path d="M -0.121094 -0.707031 L 0.296875 -0.335938 L 3.894531 -4.394531 L 3.347656 -4.878906 L 1.351562 -2.625 L 0.4375 -1.546875 L -2.3125 -9.746094 L -2.734375 -10.117188 L -6.179688 -6.226562 L -5.636719 -5.742188 L -3.789062 -7.824219 L -2.875 -8.90625 Z M -0.121094 -0.707031 "/></g></g></g><g fill="#524c4b" fill-opacity="1"><g transform="translate(131.936874, 138.553063)"><g><path d="M -5.347656 -6.980469 L 0.609375 -0.566406 L 4.1875 -3.886719 L 3.691406 -4.421875 L 0.703125 -1.648438 L -1.59375 -4.125 L 0.980469 -6.515625 L 0.492188 -7.042969 L -2.082031 -4.652344 L -4.257812 -6.996094 L -1.273438 -9.769531 L -1.769531 -10.304688 Z M -5.347656 -6.980469 "/></g></g></g><g fill="#524c4b" fill-opacity="1"><g transform="translate(137.497979, 133.470222)"><g><path d="M -0.847656 -3.824219 L 0.441406 -4.800781 C 0.546875 -4.882812 0.65625 -4.964844 0.757812 -5.054688 L 4.023438 -3.054688 L 4.730469 -3.589844 L 1.269531 -5.640625 C 1.769531 -6.359375 1.921875 -7.292969 1.078125 -8.402344 L 0.941406 -8.578125 C -0.277344 -10.1875 -1.707031 -9.695312 -2.699219 -8.941406 L -4.632812 -7.476562 L 0.660156 -0.503906 L 1.304688 -0.992188 Z M -1.289062 -4.40625 L -3.546875 -7.382812 L -2.242188 -8.375 C -1.644531 -8.828125 -0.613281 -9.257812 0.292969 -8.058594 L 0.394531 -7.925781 C 1.304688 -6.726562 0.617188 -5.851562 0.0195312 -5.398438 Z M -1.289062 -4.40625 "/></g></g></g><g fill="#524c4b" fill-opacity="1"><g transform="translate(143.86678, 128.742331)"><g><path d="M -1.414062 -8.558594 L 0.488281 -9.730469 L 0.105469 -10.351562 L -4.375 -7.585938 L -3.992188 -6.964844 L -2.101562 -8.132812 L 2.113281 -1.300781 L 2.800781 -1.726562 Z M -1.414062 -8.558594 "/></g></g></g><g fill="#524c4b" fill-opacity="1"><g transform="translate(150.067478, 125.045401)"><g><path d="M -2.546875 -8.546875 L -3.261719 -8.171875 L 0.785156 -0.410156 L 1.503906 -0.785156 Z M -2.546875 -8.546875 "/></g></g></g><g fill="#524c4b" fill-opacity="1"><g transform="translate(153.632278, 123.179068)"><g><path d="M -2.71875 -8.363281 L 0.761719 -0.332031 L 1.503906 -0.652344 L -0.128906 -4.421875 L 2.929688 -5.746094 L 2.644531 -6.40625 L -0.414062 -5.082031 L -1.6875 -8.015625 L 1.886719 -9.5625 L 1.597656 -10.234375 Z M -2.71875 -8.363281 "/></g></g></g><g fill="#524c4b" fill-opacity="1"><g transform="translate(160.278602, 120.418739)"><g><path d="M -1.296875 -8.824219 L -2.058594 -8.554688 L 0.835938 -0.292969 L 1.601562 -0.558594 Z M -1.296875 -8.824219 "/></g></g></g><g fill="#524c4b" fill-opacity="1"><g transform="translate(164.062496, 119.075799)"><g><path d="M 0.289062 -0.660156 L 0.433594 -0.117188 L 5.671875 -1.519531 L 5.480469 -2.222656 L 2.574219 -1.445312 L 1.21875 -1.046875 L 3.441406 -9.40625 L 3.296875 -9.945312 L -1.722656 -8.601562 L -1.535156 -7.898438 L 1.15625 -8.617188 L 2.511719 -9.015625 Z M 0.289062 -0.660156 "/></g></g></g><g fill="#524c4b" fill-opacity="1"><g transform="translate(171.578554, 117.190546)"><g><path d="M 0.0429688 -8.917969 L -0.75 -8.769531 L 0.871094 -0.164062 L 1.664062 -0.3125 Z M 0.0429688 -8.917969 "/></g></g></g><g fill="#524c4b" fill-opacity="1"><g transform="translate(175.524023, 116.43292)"><g><path d="M -0.152344 -8.792969 L 0.824219 -0.09375 L 5.675781 -0.640625 L 5.597656 -1.363281 L 1.546875 -0.910156 L 1.167969 -4.265625 L 4.660156 -4.660156 L 4.582031 -5.371094 L 1.089844 -4.980469 L 0.730469 -8.160156 L 4.78125 -8.613281 L 4.699219 -9.339844 Z M -0.152344 -8.792969 "/></g></g></g><g fill="#524c4b" fill-opacity="1"><g transform="translate(183.01725, 115.648156)"><g><path d="M 1.59375 -3.578125 L 3.207031 -3.601562 C 3.34375 -3.601562 3.476562 -3.605469 3.613281 -3.617188 L 5.050781 -0.0664062 L 5.9375 -0.078125 L 4.375 -3.785156 C 5.199219 -4.0625 5.875 -4.722656 5.859375 -6.117188 L 5.855469 -6.339844 C 5.828125 -8.359375 4.386719 -8.8125 3.140625 -8.796875 L 0.714844 -8.765625 L 0.832031 -0.0117188 L 1.640625 -0.0195312 Z M 1.582031 -4.308594 L 1.535156 -8.046875 L 3.171875 -8.066406 C 3.925781 -8.078125 5.003906 -7.8125 5.023438 -6.308594 L 5.027344 -6.140625 C 5.046875 -4.636719 3.972656 -4.339844 3.222656 -4.332031 Z M 1.582031 -4.308594 "/></g></g></g><g fill="#524c4b" fill-opacity="1"><g transform="translate(190.949091, 115.629331)"><g><path d="M 3.945312 -7.722656 L 6.171875 -7.539062 L 6.234375 -8.265625 L 0.988281 -8.703125 L 0.925781 -7.976562 L 3.140625 -7.789062 L 2.472656 0.207031 L 3.277344 0.273438 Z M 3.945312 -7.722656 "/></g></g></g><g fill="#524c4b" fill-opacity="1"><g transform="translate(198.083742, 116.282854)"><g><path d="M 2.363281 -8.472656 L 0.816406 0.148438 L 5.625 1.011719 L 5.753906 0.292969 L 1.742188 -0.429688 L 2.339844 -3.753906 L 5.796875 -3.132812 L 5.925781 -3.839844 L 2.464844 -4.460938 L 3.03125 -7.609375 L 7.042969 -6.890625 L 7.171875 -7.609375 Z M 2.363281 -8.472656 "/></g></g></g><g fill="#524c4b" fill-opacity="1"><g transform="translate(205.488895, 117.671327)"><g><path d="M 2.546875 -2.976562 L 4.101562 -2.535156 C 4.234375 -2.496094 4.363281 -2.460938 4.496094 -2.433594 L 4.859375 1.378906 L 5.710938 1.621094 L 5.273438 -2.378906 C 6.144531 -2.410156 6.980469 -2.847656 7.363281 -4.1875 L 7.421875 -4.402344 C 7.976562 -6.347656 6.722656 -7.191406 5.523438 -7.535156 L 3.191406 -8.195312 L 0.800781 0.226562 L 1.578125 0.449219 Z M 2.746094 -3.675781 L 3.769531 -7.273438 L 5.34375 -6.824219 C 6.070312 -6.621094 7.027344 -6.054688 6.617188 -4.609375 L 6.570312 -4.445312 C 6.160156 -3 5.046875 -3.023438 4.324219 -3.230469 Z M 2.746094 -3.675781 "/></g></g></g><g fill="#524c4b" fill-opacity="1"><g transform="translate(213.133552, 119.98111)"><g/></g></g><g fill="#524c4b" fill-opacity="1"><g transform="translate(216.597272, 121.217362)"><g><path d="M 4.664062 -2.441406 C 5.964844 -1.613281 6.332031 -0.878906 5.90625 0.0625 L 5.863281 0.152344 C 5.421875 1.125 4.441406 1.355469 3.355469 0.863281 L 3.285156 0.828125 C 2.210938 0.339844 1.75 -0.644531 2.386719 -2.046875 L 1.652344 -2.382812 L 1.605469 -2.277344 C 0.855469 -0.632812 1.328125 0.742188 3.011719 1.507812 C 4.605469 2.234375 6 1.855469 6.640625 0.445312 L 6.6875 0.34375 C 7.246094 -0.882812 6.851562 -1.914062 5.222656 -2.9375 C 3.855469 -3.808594 3.644531 -4.507812 4.03125 -5.355469 L 4.066406 -5.4375 C 4.457031 -6.296875 5.429688 -6.480469 6.402344 -6.039062 L 6.472656 -6.007812 C 7.6875 -5.453125 7.929688 -4.578125 7.242188 -3.066406 L 7.976562 -2.730469 L 8.089844 -2.976562 C 8.839844 -4.621094 8.519531 -5.875 6.742188 -6.6875 C 5.230469 -7.375 3.875 -7.019531 3.269531 -5.691406 L 3.222656 -5.585938 C 2.742188 -4.535156 3.035156 -3.464844 4.664062 -2.441406 Z M 4.664062 -2.441406 "/></g></g></g><g fill="#524c4b" fill-opacity="1"><g transform="translate(223.944898, 124.635548)"><g><path d="M 6.941406 -6.179688 L 0.28125 0.164062 L 1.035156 0.609375 L 2.714844 -1.007812 L 5.472656 0.613281 L 4.875 2.867188 L 5.632812 3.3125 L 7.9375 -5.59375 Z M 6.984375 -5.125 L 5.660156 -0.121094 L 3.257812 -1.535156 Z M 6.984375 -5.125 "/></g></g></g><g fill="#524c4b" fill-opacity="1"><g transform="translate(230.991809, 128.894081)"><g><path d="M 4.320312 3.140625 L 4.75 2.550781 L 1.753906 0.375 L 6.472656 -6.117188 L 5.820312 -6.59375 L 0.671875 0.488281 Z M 4.320312 3.140625 "/></g></g></g><g fill="#524c4b" fill-opacity="1"><g transform="translate(236.545493, 132.961723)"><g><path d="M 2.632812 2.511719 C 4.132812 3.847656 5.707031 3.582031 7.722656 1.320312 L 8.023438 0.984375 C 10.039062 -1.277344 10.121094 -2.871094 8.621094 -4.207031 C 7.132812 -5.539062 5.554688 -5.273438 3.539062 -3.011719 L 3.242188 -2.675781 C 1.222656 -0.414062 1.140625 1.183594 2.632812 2.511719 Z M 3.09375 1.945312 C 1.996094 0.964844 2.203125 -0.261719 3.859375 -2.121094 L 4.160156 -2.457031 C 5.816406 -4.316406 7.015625 -4.664062 8.113281 -3.6875 L 8.171875 -3.632812 C 9.269531 -2.65625 9.0625 -1.425781 7.402344 0.433594 L 7.105469 0.769531 C 5.445312 2.628906 4.25 2.976562 3.152344 1.996094 Z M 3.09375 1.945312 "/></g></g></g><g fill="#524c4b" fill-opacity="1"><g transform="translate(242.938815, 138.752266)"><g><path d="M 10.902344 -0.964844 L 10.390625 -1.53125 L 6.40625 2.046875 L 4.917969 3.429688 L 7.65625 -4.582031 L 7.070312 -5.230469 L 0.554688 0.617188 L 1.066406 1.1875 L 5.046875 -2.390625 L 6.53125 -3.78125 L 3.800781 4.234375 L 4.386719 4.886719 Z M 10.902344 -0.964844 "/></g></g></g><g fill="#524c4b" fill-opacity="1"><g transform="translate(73.303442, 186.336551)"><g><path d="M 13.003906 0.519531 C 18.207031 0.519531 21.21875 -1.039062 23.558594 -2.898438 L 23.558594 -16.125 L 13.003906 -16.125 L 13.003906 -10.03125 L 16.496094 -10.03125 L 16.496094 -6.316406 C 15.644531 -5.832031 14.492188 -5.574219 13.191406 -5.574219 L 12.820312 -5.574219 C 8.917969 -5.574219 8.398438 -8.730469 8.398438 -13.75 L 8.398438 -15.234375 C 8.398438 -20.25 8.917969 -23.410156 12.632812 -23.410156 L 13.003906 -23.410156 C 15.976562 -23.410156 16.535156 -21.179688 16.535156 -17.835938 L 23.59375 -17.835938 L 23.59375 -19.285156 C 23.59375 -26.753906 19.730469 -29.503906 12.632812 -29.503906 C 4.832031 -29.503906 1.226562 -25.265625 1.226562 -15.234375 L 1.226562 -13.75 C 1.226562 -3.714844 4.832031 0.519531 13.003906 0.519531 Z M 13.003906 0.519531 "/></g></g></g><g fill="#524c4b" fill-opacity="1"><g transform="translate(102.249074, 186.336551)"><g><path d="M 12.632812 0.519531 C 20.4375 0.519531 24.039062 -3.714844 24.039062 -13.75 L 24.039062 -15.234375 C 24.039062 -25.265625 20.4375 -29.503906 12.632812 -29.503906 C 4.832031 -29.503906 1.226562 -25.265625 1.226562 -15.234375 L 1.226562 -13.75 C 1.226562 -3.714844 4.832031 0.519531 12.632812 0.519531 Z M 12.449219 -5.574219 C 9.105469 -5.574219 8.398438 -8.730469 8.398438 -13.75 L 8.398438 -15.234375 C 8.398438 -20.25 9.105469 -23.410156 12.449219 -23.410156 L 12.820312 -23.410156 C 16.164062 -23.410156 16.871094 -20.25 16.871094 -15.234375 L 16.871094 -13.75 C 16.871094 -8.730469 16.164062 -5.574219 12.820312 -5.574219 Z M 12.449219 -5.574219 "/></g></g></g><g fill="#524c4b" fill-opacity="1"><g transform="translate(131.194707, 186.336551)"><g/></g></g><g fill="#524c4b" fill-opacity="1"><g transform="translate(142.304768, 186.336551)"><g><path d="M 1.859375 -28.984375 L 1.859375 0 L 12.261719 0 C 16.871094 0 22.292969 -1.003906 22.292969 -8.546875 L 22.292969 -9.289062 C 22.292969 -12.226562 20.992188 -13.972656 19.136719 -14.972656 C 20.585938 -15.976562 21.550781 -17.539062 21.550781 -19.992188 L 21.550781 -20.734375 C 21.550781 -28.015625 16.496094 -28.984375 12.074219 -28.984375 Z M 12.449219 -11.742188 C 13.597656 -11.742188 15.160156 -11.332031 15.160156 -9.066406 L 15.160156 -8.769531 C 15.160156 -6.503906 13.597656 -6.09375 12.449219 -6.09375 L 8.917969 -6.09375 L 8.917969 -11.742188 Z M 11.964844 -22.890625 C 13.003906 -22.890625 14.417969 -22.589844 14.417969 -20.585938 L 14.417969 -20.140625 C 14.417969 -18.132812 13.003906 -17.835938 11.964844 -17.835938 L 8.917969 -17.835938 L 8.917969 -22.890625 Z M 11.964844 -22.890625 "/></g></g></g><g fill="#524c4b" fill-opacity="1"><g transform="translate(169.949898, 186.336551)"><g><path d="M 19.136719 0 L 19.136719 -6.09375 L 8.917969 -6.09375 L 8.917969 -28.984375 L 1.859375 -28.984375 L 1.859375 0 Z M 19.136719 0 "/></g></g></g><g fill="#524c4b" fill-opacity="1"><g transform="translate(193.321921, 186.336551)"><g><path d="M 12.632812 0.519531 C 20.4375 0.519531 24.039062 -3.714844 24.039062 -13.75 L 24.039062 -15.234375 C 24.039062 -25.265625 20.4375 -29.503906 12.632812 -29.503906 C 4.832031 -29.503906 1.226562 -25.265625 1.226562 -15.234375 L 1.226562 -13.75 C 1.226562 -3.714844 4.832031 0.519531 12.632812 0.519531 Z M 12.449219 -5.574219 C 9.105469 -5.574219 8.398438 -8.730469 8.398438 -13.75 L 8.398438 -15.234375 C 8.398438 -20.25 9.105469 -23.410156 12.449219 -23.410156 L 12.820312 -23.410156 C 16.164062 -23.410156 16.871094 -20.25 16.871094 -15.234375 L 16.871094 -13.75 C 16.871094 -8.730469 16.164062 -5.574219 12.820312 -5.574219 Z M 12.449219 -5.574219 "/></g></g></g><g fill="#524c4b" fill-opacity="1"><g transform="translate(222.267554, 186.336551)"><g><path d="M 23.78125 -28.984375 L 17.09375 -28.984375 L 17.09375 -18.578125 L 17.277344 -13.003906 L 9.289062 -28.984375 L 1.859375 -28.984375 L 1.859375 0 L 8.546875 0 L 8.546875 -10.402344 L 8.359375 -15.976562 L 16.347656 0 L 23.78125 0 Z M 23.78125 -28.984375 "/></g></g></g><g fill="#524c4b" fill-opacity="1"><g transform="translate(251.584769, 186.336551)"><g><path d="M 23.667969 -13.75 L 23.667969 -15.234375 C 23.667969 -25.265625 20.25 -28.984375 11.148438 -28.984375 L 1.859375 -28.984375 L 1.859375 0 L 11.148438 0 C 20.25 0 23.667969 -3.714844 23.667969 -13.75 Z M 8.917969 -6.09375 L 8.917969 -22.890625 L 10.777344 -22.890625 C 15.605469 -22.890625 16.496094 -20.25 16.496094 -15.234375 L 16.496094 -13.75 C 16.496094 -8.730469 15.605469 -6.09375 10.777344 -6.09375 Z M 8.917969 -6.09375 "/></g></g></g><g fill="#524c4b" fill-opacity="1"><g transform="translate(280.158836, 186.336551)"><g><path d="M 1.859375 -28.984375 L 1.859375 0 L 20.066406 0 L 20.066406 -6.09375 L 8.917969 -6.09375 L 8.917969 -11.742188 L 18.207031 -11.742188 L 18.207031 -17.835938 L 8.917969 -17.835938 L 8.917969 -22.890625 L 20.066406 -22.890625 L 20.066406 -28.984375 Z M 1.859375 -28.984375 "/></g></g></g><g fill="#524c4b" fill-opacity="1"><g transform="translate(76.740572, 221.510352)"><g><path d="M 0.859375 3.820312 C 4.289062 3.527344 13.75 -2.78125 20.773438 -8.609375 C 20.851562 -8.707031 20.933594 -8.800781 20.917969 -8.976562 C 20.894531 -9.242188 20.695312 -9.488281 20.433594 -9.464844 C 20.257812 -9.449219 20.167969 -9.445312 20.089844 -9.347656 C 12.238281 -2.828125 3.589844 2.613281 0.777344 2.855469 C -0.714844 2.984375 -1.1875 2.671875 -1.292969 1.441406 C -1.445312 -0.316406 -0.535156 -3.140625 1.210938 -6.480469 C 15.371094 -16.820312 39.5 -41.921875 39.0625 -47.019531 C 38.960938 -48.164062 38.207031 -48.71875 36.976562 -48.613281 C 29.59375 -47.972656 -3.152344 -8.847656 -2.257812 1.523438 C -2.109375 3.28125 -1.160156 3.996094 0.859375 3.820312 Z M 2.363281 -8.527344 C 10.800781 -23.597656 31.609375 -47.175781 37.058594 -47.644531 C 37.761719 -47.707031 38.050781 -47.464844 38.09375 -46.9375 C 38.457031 -42.71875 17.054688 -19.886719 2.363281 -8.527344 Z M 2.363281 -8.527344 "/></g></g></g><g fill="#524c4b" fill-opacity="1"><g transform="translate(95.899552, 219.857082)"><g><path d="M -0.464844 0.75 C 2.34375 0.507812 4.660156 -4.476562 3.835938 -7.855469 C 3.824219 -8.03125 3.894531 -8.214844 4.085938 -8.054688 C 9.457031 -5.332031 16.253906 -5.5625 20.597656 -8.59375 C 20.765625 -8.699219 20.925781 -8.890625 20.910156 -9.066406 C 20.886719 -9.328125 20.609375 -9.480469 20.34375 -9.457031 L 20.082031 -9.4375 C 16.074219 -6.609375 9.894531 -6.433594 4.902344 -8.835938 C 4.722656 -8.90625 4.714844 -8.996094 4.882812 -9.097656 C 4.960938 -9.195312 5.136719 -9.207031 5.21875 -9.304688 C 5.480469 -9.328125 5.554688 -9.511719 5.53125 -9.773438 C 5.507812 -10.039062 5.308594 -10.285156 5.046875 -10.261719 C 4.957031 -10.253906 4.871094 -10.25 4.878906 -10.160156 C 4.445312 -10.035156 4.023438 -9.820312 3.6875 -9.613281 C 3.519531 -9.511719 3.519531 -9.511719 3.335938 -9.585938 C 2.976562 -9.640625 2.644531 -9.347656 2.5 -8.980469 C 2.507812 -8.894531 2.421875 -8.886719 2.429688 -8.796875 C -0.488281 -6.6875 -2.523438 -3.589844 -2.3125 -1.128906 C -2.203125 0.101562 -1.519531 0.839844 -0.464844 0.75 Z M -0.550781 -0.21875 C -0.988281 -0.179688 -1.285156 -0.507812 -1.34375 -1.210938 C -1.519531 -3.234375 0.28125 -5.957031 2.863281 -7.863281 C 3.546875 -5.085938 1.558594 -0.398438 -0.550781 -0.21875 Z M -0.550781 -0.21875 "/></g></g></g><g fill="#524c4b" fill-opacity="1"><g transform="translate(114.882774, 218.218978)"><g><path d="M -4.480469 8.621094 C -2.105469 8.414062 3.527344 1.910156 7.125 -3.625 C 7.878906 -3.070312 8.964844 -2.808594 10.285156 -2.925781 C 14.855469 -3.316406 20.066406 -6.511719 22.96875 -8.800781 C 23.136719 -8.902344 23.210938 -9.085938 23.195312 -9.261719 C 23.171875 -9.527344 22.894531 -9.679688 22.628906 -9.65625 L 22.367188 -9.632812 C 19.464844 -7.347656 14.507812 -4.261719 10.199219 -3.890625 C 9.058594 -3.792969 8.238281 -4.074219 7.671875 -4.46875 C 9.296875 -7.175781 10.425781 -9.488281 10.328125 -10.628906 C 10.273438 -11.246094 9.796875 -11.648438 9.09375 -11.585938 C 7.335938 -11.433594 5.644531 -8.457031 5.851562 -6.082031 C 5.902344 -5.46875 6.042969 -4.859375 6.34375 -4.441406 C 2.910156 0.898438 -2.628906 7.488281 -4.5625 7.652344 C -4.738281 7.667969 -5.019531 7.515625 -5.046875 7.164062 C -5.296875 4.265625 0.429688 -5.261719 2.261719 -7.632812 L 2.320312 -7.992188 C 2.296875 -8.253906 2.011719 -8.496094 1.746094 -8.472656 C 1.660156 -8.464844 1.492188 -8.363281 1.410156 -8.265625 C -0.421875 -5.894531 -6.382812 4.003906 -6.101562 7.253906 C -6.019531 8.222656 -5.359375 8.695312 -4.480469 8.621094 Z M 6.972656 -5.382812 C 6.949219 -5.648438 6.839844 -5.902344 6.816406 -6.167969 C 6.664062 -7.925781 8.042969 -10.433594 9.097656 -10.523438 C 9.273438 -10.539062 9.273438 -10.539062 9.28125 -10.453125 C 9.347656 -9.660156 8.453125 -7.722656 6.972656 -5.382812 Z M 6.972656 -5.382812 "/></g></g></g><g fill="#524c4b" fill-opacity="1"><g transform="translate(136.238888, 216.376112)"><g><path d="M 2.921875 0.0117188 C 5.648438 -0.222656 13.960938 -3.417969 19.71875 -8.519531 C 19.886719 -8.621094 19.957031 -8.804688 19.941406 -8.980469 C 19.921875 -9.246094 19.640625 -9.398438 19.378906 -9.375 C 19.289062 -9.367188 19.203125 -9.359375 19.121094 -9.265625 C 13.4375 -4.347656 5.378906 -1.261719 2.832031 -1.042969 C 0.8125 -0.867188 -0.289062 -1.304688 -0.386719 -2.445312 C -0.488281 -3.589844 0.269531 -5.070312 1.308594 -6.398438 C 1.855469 -6.179688 2.566406 -6.152344 3.535156 -6.238281 C 5.117188 -6.375 7.023438 -7.867188 6.925781 -9.007812 C 6.851562 -9.886719 6.1875 -10.363281 5.222656 -10.277344 C 2.320312 -10.027344 -1.691406 -5.253906 -1.441406 -2.355469 C -1.292969 -0.597656 0.375 0.234375 2.921875 0.0117188 Z M 3.453125 -7.203125 C 2.835938 -7.152344 2.390625 -7.199219 2.03125 -7.257812 C 3.089844 -8.324219 4.257812 -9.132812 5.3125 -9.222656 C 5.753906 -9.261719 5.9375 -9.1875 5.957031 -8.925781 C 6.003906 -8.398438 4.417969 -7.289062 3.453125 -7.203125 Z M 3.453125 -7.203125 "/></g></g></g><g fill="#524c4b" fill-opacity="1"><g transform="translate(154.255361, 214.821431)"><g/></g></g><g fill="#524c4b" fill-opacity="1"><g transform="translate(173.678018, 213.145407)"><g><path d="M 5.347656 -11.882812 C 5.523438 -11.898438 5.613281 -11.90625 5.6875 -12.089844 L 6.007812 -12.472656 C 6.234375 -12.933594 6.546875 -13.402344 6.707031 -13.59375 C 6.789062 -13.691406 6.773438 -13.867188 6.765625 -13.953125 C 6.742188 -14.21875 6.542969 -14.464844 6.28125 -14.441406 C 6.105469 -14.425781 5.9375 -14.324219 5.855469 -14.230469 C 5.703125 -13.949219 5.394531 -13.390625 5.164062 -13.019531 L 4.839844 -12.636719 C 4.761719 -12.539062 4.769531 -12.453125 4.785156 -12.277344 C 4.808594 -12.011719 5.085938 -11.859375 5.347656 -11.882812 Z M 0.75 0.464844 C 3.738281 0.207031 12.59375 -4.894531 17.082031 -8.292969 C 17.160156 -8.386719 17.234375 -8.570312 17.21875 -8.746094 C 17.195312 -9.007812 17.003906 -9.171875 16.652344 -9.140625 L 16.390625 -9.117188 C 12.078125 -5.734375 3.382812 -0.824219 0.65625 -0.589844 C -0.308594 -0.503906 -0.777344 -0.816406 -0.855469 -1.695312 C -0.960938 -2.925781 0.890625 -6.097656 3.613281 -9.429688 C 3.695312 -9.527344 3.773438 -9.621094 3.757812 -9.796875 C 3.734375 -10.0625 3.457031 -10.214844 3.191406 -10.191406 C 3.015625 -10.175781 2.929688 -10.167969 2.847656 -10.074219 C -0.113281 -6.453125 -1.964844 -3.285156 -1.820312 -1.613281 C -1.699219 -0.207031 -0.746094 0.59375 0.75 0.464844 Z M 0.75 0.464844 "/></g></g></g><g fill="#524c4b" fill-opacity="1"><g transform="translate(189.05792, 211.818241)"><g><path d="M 0.0117188 4.25 C 2.914062 4 6.425781 0.597656 7.964844 -2.105469 L 8.210938 -2.300781 C 10.4375 -3.203125 13.171875 -4.324219 16.085938 -5.460938 C 18.996094 -6.597656 22.085938 -7.75 24.648438 -8.855469 C 24.902344 -8.964844 24.976562 -9.148438 24.953125 -9.414062 C 24.929688 -9.675781 24.738281 -9.835938 24.476562 -9.816406 L 24.300781 -9.800781 C 21.738281 -8.695312 18.652344 -7.542969 15.738281 -6.40625 C 13.339844 -5.488281 10.945312 -4.484375 8.890625 -3.6875 C 8.808594 -3.59375 8.714844 -3.671875 8.699219 -3.847656 C 8.773438 -4.03125 8.757812 -4.207031 8.835938 -4.304688 C 8.761719 -5.183594 8.117188 -5.480469 7.0625 -5.390625 C 6.359375 -5.328125 5.492188 -5.078125 4.542969 -4.820312 C 3.589844 -4.558594 2.550781 -4.292969 1.761719 -4.226562 C 0.96875 -4.15625 0.691406 -4.308594 0.667969 -4.574219 C 0.492188 -6.59375 4.761719 -10.503906 7.398438 -10.730469 C 7.835938 -10.769531 7.9375 -10.601562 7.960938 -10.335938 C 8.015625 -9.722656 7.308594 -8.6875 6.722656 -8.28125 C 6.554688 -8.179688 6.480469 -7.996094 6.496094 -7.820312 C 6.527344 -7.46875 6.804688 -7.316406 7.070312 -7.339844 C 7.15625 -7.347656 7.246094 -7.355469 7.324219 -7.449219 C 8.078125 -7.957031 8.777344 -9.082031 8.953125 -10.15625 C 9.03125 -10.253906 9.015625 -10.429688 9.007812 -10.515625 C 8.941406 -11.308594 8.28125 -11.78125 7.3125 -11.699219 C 4.148438 -11.425781 -0.605469 -7.03125 -0.386719 -4.480469 C -0.304688 -3.515625 0.527344 -3.144531 1.84375 -3.257812 C 2.722656 -3.332031 3.761719 -3.601562 4.800781 -3.867188 C 5.496094 -4.015625 7.664062 -4.558594 7.773438 -4.300781 C 7.972656 -4.050781 7.660156 -3.582031 7.433594 -3.121094 C 7.441406 -3.03125 7.351562 -3.023438 7.265625 -3.015625 C 3.863281 -1.394531 -1.722656 1.566406 -1.582031 3.234375 C -1.511719 4.027344 -0.953125 4.332031 0.0117188 4.25 Z M -0.078125 3.195312 C -0.519531 3.230469 -0.605469 3.238281 -0.621094 3.0625 C -0.660156 2.625 2.265625 0.601562 5.828125 -1.210938 C 6.089844 -1.234375 6.1875 -1.152344 6.027344 -0.960938 C 4.425781 1.035156 1.941406 3.019531 -0.078125 3.195312 Z M -0.078125 3.195312 "/></g></g></g><g fill="#524c4b" fill-opacity="1"><g transform="translate(212.171734, 209.823699)"><g/></g></g><g fill="#524c4b" fill-opacity="1"><g transform="translate(231.594391, 208.147675)"><g><path d="M 5.347656 -11.882812 C 5.523438 -11.898438 5.613281 -11.90625 5.6875 -12.089844 L 6.007812 -12.472656 C 6.234375 -12.933594 6.546875 -13.402344 6.707031 -13.59375 C 6.789062 -13.691406 6.773438 -13.867188 6.765625 -13.953125 C 6.742188 -14.21875 6.542969 -14.464844 6.28125 -14.441406 C 6.105469 -14.425781 5.9375 -14.324219 5.855469 -14.230469 C 5.703125 -13.949219 5.394531 -13.390625 5.164062 -13.019531 L 4.839844 -12.636719 C 4.761719 -12.539062 4.769531 -12.453125 4.785156 -12.277344 C 4.808594 -12.011719 5.085938 -11.859375 5.347656 -11.882812 Z M 0.75 0.464844 C 3.738281 0.207031 12.59375 -4.894531 17.082031 -8.292969 C 17.160156 -8.386719 17.234375 -8.570312 17.21875 -8.746094 C 17.195312 -9.007812 17.003906 -9.171875 16.652344 -9.140625 L 16.390625 -9.117188 C 12.078125 -5.734375 3.382812 -0.824219 0.65625 -0.589844 C -0.308594 -0.503906 -0.777344 -0.816406 -0.855469 -1.695312 C -0.960938 -2.925781 0.890625 -6.097656 3.613281 -9.429688 C 3.695312 -9.527344 3.773438 -9.621094 3.757812 -9.796875 C 3.734375 -10.0625 3.457031 -10.214844 3.191406 -10.191406 C 3.015625 -10.175781 2.929688 -10.167969 2.847656 -10.074219 C -0.113281 -6.453125 -1.964844 -3.285156 -1.820312 -1.613281 C -1.699219 -0.207031 -0.746094 0.59375 0.75 0.464844 Z M 0.75 0.464844 "/></g></g></g><g fill="#524c4b" fill-opacity="1"><g transform="translate(246.974294, 206.82051)"><g><path d="M -2.460938 0.210938 C -2.109375 0.183594 -1.378906 -0.589844 -0.386719 -1.382812 C 2.832031 -4.140625 9.332031 -9.835938 12.144531 -10.078125 C 12.496094 -10.109375 12.609375 -9.851562 12.621094 -9.675781 C 12.660156 -9.238281 12.429688 -7.800781 12.183594 -6.539062 C 12.019531 -5.375 11.855469 -4.210938 11.902344 -3.683594 C 11.992188 -2.628906 12.835938 -2.082031 14.066406 -2.1875 C 17.230469 -2.460938 22.570312 -5.222656 27.628906 -9.203125 C 27.796875 -9.304688 27.867188 -9.488281 27.851562 -9.664062 C 27.832031 -9.925781 27.550781 -10.082031 27.289062 -10.058594 L 27.023438 -10.035156 C 22.054688 -6.066406 16.882812 -3.40625 13.984375 -3.15625 C 13.28125 -3.09375 12.992188 -3.335938 12.957031 -3.773438 C 12.917969 -4.214844 13.007812 -5.195312 13.261719 -6.367188 C 13.414062 -7.710938 13.644531 -9.144531 13.574219 -9.9375 C 13.507812 -10.726562 12.941406 -11.121094 12.0625 -11.046875 C 9.777344 -10.847656 5.851562 -8.121094 -0.660156 -2.511719 C -1.074219 -2.210938 -1.195312 -2.554688 -1.042969 -2.832031 C 0.65625 -5.722656 4.058594 -10.445312 7.34375 -13.382812 C 7.425781 -13.480469 7.496094 -13.664062 7.484375 -13.839844 C 7.460938 -14.101562 7.269531 -14.261719 7.003906 -14.238281 C 6.828125 -14.222656 6.742188 -14.21875 6.660156 -14.121094 C 1.898438 -9.816406 -3.082031 -1.859375 -3.246094 -0.695312 C -3.289062 -0.160156 -2.988281 0.257812 -2.460938 0.210938 Z M -2.460938 0.210938 "/></g></g></g><g fill="#524c4b" fill-opacity="1"><g transform="translate(90.960239, 264.553047)"><g><path d="M -16.617188 23.921875 C -16.179688 23.886719 -15.710938 23.136719 -15.332031 22.394531 C -15.179688 22.117188 -15.203125 21.851562 -15.386719 21.78125 C -8.167969 7.964844 1.285156 -6.664062 11.082031 -20.347656 C 18.699219 -21.359375 26.519531 -22.03125 34.011719 -22.414062 C 34.363281 -22.445312 34.523438 -22.636719 34.503906 -22.898438 C 34.480469 -23.164062 34.28125 -23.410156 34.015625 -23.386719 C 26.699219 -23.023438 19.230469 -22.378906 11.957031 -21.484375 C 16.226562 -27.429688 20.507812 -33.203125 24.816406 -38.707031 C 24.894531 -38.804688 24.878906 -38.980469 24.871094 -39.066406 C 24.851562 -39.332031 24.652344 -39.578125 24.300781 -39.550781 C 24.210938 -39.542969 24.042969 -39.4375 23.964844 -39.34375 C 19.503906 -33.558594 14.980469 -27.5 10.558594 -21.273438 C 2.671875 -20.328125 -4.921875 -19.054688 -11.699219 -17.582031 C -11.957031 -17.472656 -12.117188 -17.28125 -12.09375 -17.019531 C -12.070312 -16.753906 -11.785156 -16.515625 -11.519531 -16.535156 L -11.433594 -16.542969 C -5.003906 -17.984375 2.238281 -19.230469 9.765625 -20.234375 C -0.1875 -6.269531 -9.628906 8.445312 -16.921875 22.445312 C -16.996094 22.628906 -17.066406 22.8125 -17.140625 22.996094 L -17.21875 23.089844 C -17.351562 23.632812 -17.234375 23.976562 -16.617188 23.921875 Z M -16.617188 23.921875 "/></g></g></g><g fill="#524c4b" fill-opacity="1"><g transform="translate(104.055127, 263.423061)"><g><path d="M -4.90625 5.734375 C -4.554688 5.707031 -3.589844 4.558594 -2.394531 3.039062 C -1.34375 1.886719 0.03125 0.351562 1.394531 -1.269531 C 5.835938 -6.257812 9.050781 -9.015625 10.457031 -9.136719 C 10.632812 -9.152344 10.726562 -9.070312 10.75 -8.808594 C 10.804688 -8.191406 10.445312 -7.1875 10.179688 -6.191406 C 9.832031 -5.097656 9.488281 -3.917969 9.574219 -2.949219 C 9.710938 -1.367188 10.847656 -0.492188 12.695312 -0.652344 C 16.824219 -1.007812 25.160156 -5.976562 29.472656 -9.359375 C 29.640625 -9.464844 29.714844 -9.648438 29.699219 -9.824219 C 29.675781 -10.085938 29.398438 -10.238281 29.132812 -10.21875 L 28.871094 -10.195312 C 24.558594 -6.8125 16.46875 -2.039062 12.601562 -1.707031 C 11.285156 -1.59375 10.632812 -1.980469 10.539062 -3.035156 C 10.480469 -3.738281 10.835938 -4.742188 11.097656 -5.828125 C 11.445312 -6.917969 11.792969 -8.011719 11.71875 -8.890625 C 11.640625 -9.769531 11.164062 -10.171875 10.371094 -10.101562 C 8.527344 -9.945312 5.3125 -7.1875 0.632812 -1.914062 C -0.742188 -0.378906 -2.113281 1.15625 -3.15625 2.398438 C -3.953125 3.441406 -4.386719 3.566406 -3.789062 2.273438 C -2.652344 0.0507812 -0.71875 -3.214844 1.78125 -7.058594 C 19.566406 -20.546875 35.5 -42.109375 35.121094 -46.503906 C 35.039062 -47.46875 34.464844 -47.953125 33.5 -47.867188 C 28.664062 -47.453125 -6.140625 -0.355469 -5.667969 5.09375 C -5.632812 5.53125 -5.34375 5.773438 -4.90625 5.734375 Z M 3.589844 -9.695312 C 13.953125 -25.019531 30.777344 -46.570312 33.589844 -46.8125 C 34.027344 -46.851562 34.125 -46.773438 34.15625 -46.421875 C 34.488281 -42.554688 20.222656 -23.171875 3.589844 -9.695312 Z M 3.589844 -9.695312 "/></g></g></g><g fill="#524c4b" fill-opacity="1"><g transform="translate(131.826847, 261.026578)"><g><path d="M 2.921875 0.0117188 C 5.648438 -0.222656 13.960938 -3.417969 19.71875 -8.519531 C 19.886719 -8.621094 19.957031 -8.804688 19.941406 -8.980469 C 19.921875 -9.246094 19.640625 -9.398438 19.378906 -9.375 C 19.289062 -9.367188 19.203125 -9.359375 19.121094 -9.265625 C 13.4375 -4.347656 5.378906 -1.261719 2.832031 -1.042969 C 0.8125 -0.867188 -0.289062 -1.304688 -0.386719 -2.445312 C -0.488281 -3.589844 0.269531 -5.070312 1.308594 -6.398438 C 1.855469 -6.179688 2.566406 -6.152344 3.535156 -6.238281 C 5.117188 -6.375 7.023438 -7.867188 6.925781 -9.007812 C 6.851562 -9.886719 6.1875 -10.363281 5.222656 -10.277344 C 2.320312 -10.027344 -1.691406 -5.253906 -1.441406 -2.355469 C -1.292969 -0.597656 0.375 0.234375 2.921875 0.0117188 Z M 3.453125 -7.203125 C 2.835938 -7.152344 2.390625 -7.199219 2.03125 -7.257812 C 3.089844 -8.324219 4.257812 -9.132812 5.3125 -9.222656 C 5.753906 -9.261719 5.9375 -9.1875 5.957031 -8.925781 C 6.003906 -8.398438 4.417969 -7.289062 3.453125 -7.203125 Z M 3.453125 -7.203125 "/></g></g></g><g fill="#524c4b" fill-opacity="1"><g transform="translate(149.84332, 259.471897)"><g/></g></g><g fill="#524c4b" fill-opacity="1"><g transform="translate(169.265977, 257.795873)"><g><path d="M -4.90625 5.734375 C -4.554688 5.707031 -3.589844 4.558594 -2.394531 3.039062 C -1.34375 1.886719 0.03125 0.351562 1.394531 -1.269531 C 5.835938 -6.257812 9.050781 -9.015625 10.457031 -9.136719 C 10.632812 -9.152344 10.726562 -9.070312 10.75 -8.808594 C 10.804688 -8.191406 10.445312 -7.1875 10.179688 -6.191406 C 9.832031 -5.097656 9.488281 -3.917969 9.574219 -2.949219 C 9.710938 -1.367188 10.847656 -0.492188 12.695312 -0.652344 C 16.824219 -1.007812 25.160156 -5.976562 29.472656 -9.359375 C 29.640625 -9.464844 29.714844 -9.648438 29.699219 -9.824219 C 29.675781 -10.085938 29.398438 -10.238281 29.132812 -10.21875 L 28.871094 -10.195312 C 24.558594 -6.8125 16.46875 -2.039062 12.601562 -1.707031 C 11.285156 -1.59375 10.632812 -1.980469 10.539062 -3.035156 C 10.480469 -3.738281 10.835938 -4.742188 11.097656 -5.828125 C 11.445312 -6.917969 11.792969 -8.011719 11.71875 -8.890625 C 11.640625 -9.769531 11.164062 -10.171875 10.371094 -10.101562 C 8.527344 -9.945312 5.3125 -7.1875 0.632812 -1.914062 C -0.742188 -0.378906 -2.113281 1.15625 -3.15625 2.398438 C -3.953125 3.441406 -4.386719 3.566406 -3.789062 2.273438 C -2.652344 0.0507812 -0.71875 -3.214844 1.78125 -7.058594 C 19.566406 -20.546875 35.5 -42.109375 35.121094 -46.503906 C 35.039062 -47.46875 34.464844 -47.953125 33.5 -47.867188 C 28.664062 -47.453125 -6.140625 -0.355469 -5.667969 5.09375 C -5.632812 5.53125 -5.34375 5.773438 -4.90625 5.734375 Z M 3.589844 -9.695312 C 13.953125 -25.019531 30.777344 -46.570312 33.589844 -46.8125 C 34.027344 -46.851562 34.125 -46.773438 34.15625 -46.421875 C 34.488281 -42.554688 20.222656 -23.171875 3.589844 -9.695312 Z M 3.589844 -9.695312 "/></g></g></g><g fill="#524c4b" fill-opacity="1"><g transform="translate(197.037697, 255.39939)"><g><path d="M 11.871094 -0.9375 C 14.949219 -1.203125 22.746094 -5.238281 27.363281 -9.179688 C 27.445312 -9.273438 27.515625 -9.457031 27.5 -9.632812 C 27.480469 -9.898438 27.289062 -10.058594 27.023438 -10.035156 C 26.847656 -10.019531 26.761719 -10.011719 26.679688 -9.917969 C 22.078125 -5.800781 14.503906 -2.226562 11.78125 -1.992188 C 10.285156 -1.863281 9.546875 -2.242188 9.449219 -3.382812 C 9.304688 -5.050781 10.527344 -7.285156 11.453125 -8.867188 C 11.992188 -9.800781 12.296875 -10.359375 12.269531 -10.710938 C 12.238281 -11.0625 11.953125 -11.300781 11.601562 -11.273438 C 11.160156 -11.234375 10.167969 -10.441406 8.441406 -8.875 C 7.832031 -9.796875 7.1875 -10.09375 5.867188 -9.980469 C 2.878906 -9.722656 -4.605469 -4.117188 -4.347656 -1.128906 C -4.273438 -0.25 -3.609375 0.222656 -2.644531 0.140625 C -0.183594 -0.0742188 4.917969 -4.585938 8.378906 -7.539062 C 9.039062 -8.128906 9.613281 -8.621094 10.03125 -8.921875 C 10.191406 -9.113281 10.464844 -9.046875 10.222656 -8.761719 C 9.304688 -7.089844 8.328125 -5.058594 8.480469 -3.300781 C 8.632812 -1.542969 9.761719 -0.753906 11.871094 -0.9375 Z M -2.734375 -0.914062 C -3.175781 -0.878906 -3.359375 -0.949219 -3.378906 -1.214844 C -3.5625 -3.324219 2.964844 -8.753906 5.953125 -9.011719 C 6.917969 -9.097656 7.195312 -8.945312 7.609375 -8.269531 C 4.242188 -5.234375 -0.625 -1.097656 -2.734375 -0.914062 Z M -2.734375 -0.914062 "/></g></g></g><g fill="#524c4b" fill-opacity="1"><g transform="translate(222.700202, 253.184916)"><g><path d="M 5.347656 -11.882812 C 5.523438 -11.898438 5.613281 -11.90625 5.6875 -12.089844 L 6.007812 -12.472656 C 6.234375 -12.933594 6.546875 -13.402344 6.707031 -13.59375 C 6.789062 -13.691406 6.773438 -13.867188 6.765625 -13.953125 C 6.742188 -14.21875 6.542969 -14.464844 6.28125 -14.441406 C 6.105469 -14.425781 5.9375 -14.324219 5.855469 -14.230469 C 5.703125 -13.949219 5.394531 -13.390625 5.164062 -13.019531 L 4.839844 -12.636719 C 4.761719 -12.539062 4.769531 -12.453125 4.785156 -12.277344 C 4.808594 -12.011719 5.085938 -11.859375 5.347656 -11.882812 Z M 0.75 0.464844 C 3.738281 0.207031 12.59375 -4.894531 17.082031 -8.292969 C 17.160156 -8.386719 17.234375 -8.570312 17.21875 -8.746094 C 17.195312 -9.007812 17.003906 -9.171875 16.652344 -9.140625 L 16.390625 -9.117188 C 12.078125 -5.734375 3.382812 -0.824219 0.65625 -0.589844 C -0.308594 -0.503906 -0.777344 -0.816406 -0.855469 -1.695312 C -0.960938 -2.925781 0.890625 -6.097656 3.613281 -9.429688 C 3.695312 -9.527344 3.773438 -9.621094 3.757812 -9.796875 C 3.734375 -10.0625 3.457031 -10.214844 3.191406 -10.191406 C 3.015625 -10.175781 2.929688 -10.167969 2.847656 -10.074219 C -0.113281 -6.453125 -1.964844 -3.285156 -1.820312 -1.613281 C -1.699219 -0.207031 -0.746094 0.59375 0.75 0.464844 Z M 0.75 0.464844 "/></g></g></g><g fill="#524c4b" fill-opacity="1"><g transform="translate(238.080105, 251.85775)"><g><path d="M 1.960938 9.394531 C 7.234375 8.9375 21.667969 -2.3125 29.914062 -9.398438 C 29.992188 -9.496094 30.066406 -9.675781 30.050781 -9.851562 C 30.027344 -10.117188 29.835938 -10.277344 29.484375 -10.246094 C 29.398438 -10.238281 29.308594 -10.230469 29.230469 -10.136719 C 21.074219 -3.058594 6.878906 7.90625 1.871094 8.339844 C 0.816406 8.429688 0.433594 8.109375 0.359375 7.230469 C 0.136719 4.679688 4.242188 -0.101562 8.183594 -4.691406 C 11.636719 -8.796875 15.097656 -12.8125 14.914062 -14.921875 C 14.824219 -15.976562 13.53125 -16.574219 11.917969 -17.851562 C 14.945312 -21.742188 17.125 -25.207031 17.019531 -26.4375 C 16.96875 -27.050781 16.578125 -27.460938 15.960938 -27.40625 C 13.238281 -27.171875 7.488281 -21.984375 7.675781 -19.785156 C 7.746094 -18.996094 8.679688 -18.457031 10.351562 -17.539062 C 7.714844 -14.210938 4.3125 -10.554688 1.019531 -7.703125 C 0.9375 -7.605469 0.863281 -7.421875 0.871094 -7.335938 C 0.902344 -6.984375 1.09375 -6.824219 1.355469 -6.847656 C 1.53125 -6.859375 1.621094 -6.867188 1.699219 -6.964844 C 4.667969 -9.523438 8.320312 -13.378906 11.273438 -17.085938 C 13.140625 -16.007812 13.808594 -15.445312 13.859375 -14.832031 C 14.003906 -13.160156 10.871094 -9.4375 7.414062 -5.421875 C 3.476562 -0.742188 -0.867188 4.324219 -0.609375 7.3125 C -0.488281 8.71875 0.292969 9.535156 1.960938 9.394531 Z M 10.992188 -18.300781 C 9.320312 -19.21875 8.746094 -19.703125 8.730469 -19.878906 C 8.601562 -21.371094 13.285156 -25.582031 15.621094 -26.226562 C 15.878906 -26.339844 16.070312 -26.175781 16.003906 -25.90625 C 15.515625 -24.359375 12.671875 -20.394531 10.992188 -18.300781 Z M 10.992188 -18.300781 "/></g></g></g><g fill="#524c4b" fill-opacity="1"><g transform="translate(89.569218, 278.871227)"><g><path d="M 3.167969 0.101562 C 4.320312 0.101562 4.988281 -0.324219 5.378906 -0.734375 L 5.378906 -3.566406 L 3.464844 -3.566406 L 3.464844 -2.972656 L 4.710938 -2.972656 L 4.710938 -1.058594 C 4.449219 -0.78125 3.949219 -0.5 3.214844 -0.5 L 3.148438 -0.5 C 1.820312 -0.5 1.226562 -1.375 1.226562 -3.4375 L 1.226562 -3.808594 C 1.226562 -5.871094 1.847656 -6.742188 3.074219 -6.742188 L 3.128906 -6.742188 C 4.246094 -6.742188 4.699219 -6.101562 4.699219 -4.609375 L 5.378906 -4.609375 L 5.378906 -4.867188 C 5.378906 -6.503906 4.625 -7.347656 3.074219 -7.347656 C 1.421875 -7.347656 0.53125 -6.316406 0.53125 -3.808594 L 0.53125 -3.4375 C 0.53125 -0.929688 1.421875 0.101562 3.167969 0.101562 Z M 3.167969 0.101562 "/></g></g></g><g fill="#524c4b" fill-opacity="1"><g transform="translate(96.98216, 278.871227)"><g><path d="M 0.6875 -7.246094 L 0.6875 0 L 4.726562 0 L 4.726562 -0.605469 L 1.355469 -0.605469 L 1.355469 -3.398438 L 4.265625 -3.398438 L 4.265625 -3.996094 L 1.355469 -3.996094 L 1.355469 -6.640625 L 4.726562 -6.640625 L 4.726562 -7.246094 Z M 0.6875 -7.246094 "/></g></g></g><g fill="#524c4b" fill-opacity="1"><g transform="translate(103.475443, 278.871227)"><g><path d="M 4.421875 0 L 4.421875 -0.605469 L 1.355469 -0.605469 L 1.355469 -7.246094 L 0.6875 -7.246094 L 0.6875 0 Z M 4.421875 0 "/></g></g></g><g fill="#524c4b" fill-opacity="1"><g transform="translate(109.429946, 278.871227)"><g><path d="M 1.402344 -7.246094 L 0.734375 -7.246094 L 0.734375 0 L 1.402344 0 Z M 1.402344 -7.246094 "/></g></g></g><g fill="#524c4b" fill-opacity="1"><g transform="translate(112.959914, 278.871227)"><g><path d="M 5.433594 -7.246094 L 4.800781 -7.246094 L 4.800781 -2.816406 L 4.832031 -1.132812 L 1.410156 -7.246094 L 0.6875 -7.246094 L 0.6875 0 L 1.320312 0 L 1.320312 -4.429688 L 1.28125 -6.113281 L 4.710938 0 L 5.433594 0 Z M 5.433594 -7.246094 "/></g></g></g><g fill="#524c4b" fill-opacity="1"><g transform="translate(120.475029, 278.871227)"><g><path d="M 3.167969 0.101562 C 4.320312 0.101562 4.988281 -0.324219 5.378906 -0.734375 L 5.378906 -3.566406 L 3.464844 -3.566406 L 3.464844 -2.972656 L 4.710938 -2.972656 L 4.710938 -1.058594 C 4.449219 -0.78125 3.949219 -0.5 3.214844 -0.5 L 3.148438 -0.5 C 1.820312 -0.5 1.226562 -1.375 1.226562 -3.4375 L 1.226562 -3.808594 C 1.226562 -5.871094 1.847656 -6.742188 3.074219 -6.742188 L 3.128906 -6.742188 C 4.246094 -6.742188 4.699219 -6.101562 4.699219 -4.609375 L 5.378906 -4.609375 L 5.378906 -4.867188 C 5.378906 -6.503906 4.625 -7.347656 3.074219 -7.347656 C 1.421875 -7.347656 0.53125 -6.316406 0.53125 -3.808594 L 0.53125 -3.4375 C 0.53125 -0.929688 1.421875 0.101562 3.167969 0.101562 Z M 3.167969 0.101562 "/></g></g></g><g fill="#524c4b" fill-opacity="1"><g transform="translate(127.887971, 278.871227)"><g><path d="M 3.167969 0.101562 C 4.320312 0.101562 4.988281 -0.324219 5.378906 -0.734375 L 5.378906 -3.566406 L 3.464844 -3.566406 L 3.464844 -2.972656 L 4.710938 -2.972656 L 4.710938 -1.058594 C 4.449219 -0.78125 3.949219 -0.5 3.214844 -0.5 L 3.148438 -0.5 C 1.820312 -0.5 1.226562 -1.375 1.226562 -3.4375 L 1.226562 -3.808594 C 1.226562 -5.871094 1.847656 -6.742188 3.074219 -6.742188 L 3.128906 -6.742188 C 4.246094 -6.742188 4.699219 -6.101562 4.699219 -4.609375 L 5.378906 -4.609375 L 5.378906 -4.867188 C 5.378906 -6.503906 4.625 -7.347656 3.074219 -7.347656 C 1.421875 -7.347656 0.53125 -6.316406 0.53125 -3.808594 L 0.53125 -3.4375 C 0.53125 -0.929688 1.421875 0.101562 3.167969 0.101562 Z M 3.167969 0.101562 "/></g></g></g><g fill="#524c4b" fill-opacity="1"><g transform="translate(135.300912, 278.871227)"><g><path d="M 2.359375 -7.320312 L 0.269531 0 L 0.992188 0 L 1.515625 -1.859375 L 4.160156 -1.859375 L 4.683594 0 L 5.40625 0 L 3.316406 -7.320312 Z M 2.832031 -6.585938 L 3.984375 -2.460938 L 1.679688 -2.460938 Z M 2.832031 -6.585938 "/></g></g></g><g fill="#524c4b" fill-opacity="1"><g transform="translate(142.370139, 278.871227)"><g><path d="M 1.355469 -2.945312 L 2.695312 -2.945312 C 2.804688 -2.945312 2.917969 -2.945312 3.027344 -2.953125 L 4.179688 0 L 4.914062 0 L 3.660156 -3.085938 C 4.347656 -3.308594 4.914062 -3.847656 4.914062 -4.996094 L 4.914062 -5.183594 C 4.914062 -6.855469 3.726562 -7.246094 2.695312 -7.246094 L 0.6875 -7.246094 L 0.6875 0 L 1.355469 0 Z M 1.355469 -3.546875 L 1.355469 -6.640625 L 2.710938 -6.640625 C 3.335938 -6.640625 4.226562 -6.410156 4.226562 -5.164062 L 4.226562 -5.027344 C 4.226562 -3.78125 3.335938 -3.546875 2.710938 -3.546875 Z M 1.355469 -3.546875 "/></g></g></g><g fill="#524c4b" fill-opacity="1"><g transform="translate(149.188561, 278.871227)"><g><path d="M 2.359375 -7.320312 L 0.269531 0 L 0.992188 0 L 1.515625 -1.859375 L 4.160156 -1.859375 L 4.683594 0 L 5.40625 0 L 3.316406 -7.320312 Z M 2.832031 -6.585938 L 3.984375 -2.460938 L 1.679688 -2.460938 Z M 2.832031 -6.585938 "/></g></g></g><g fill="#524c4b" fill-opacity="1"><g transform="translate(156.257788, 278.871227)"><g><path d="M 5.433594 -7.246094 L 4.800781 -7.246094 L 4.800781 -2.816406 L 4.832031 -1.132812 L 1.410156 -7.246094 L 0.6875 -7.246094 L 0.6875 0 L 1.320312 0 L 1.320312 -4.429688 L 1.28125 -6.113281 L 4.710938 0 L 5.433594 0 Z M 5.433594 -7.246094 "/></g></g></g><g fill="#524c4b" fill-opacity="1"><g transform="translate(163.772906, 278.871227)"><g><path d="M 2.722656 -6.640625 L 4.570312 -6.640625 L 4.570312 -7.246094 L 0.214844 -7.246094 L 0.214844 -6.640625 L 2.054688 -6.640625 L 2.054688 0 L 2.722656 0 Z M 2.722656 -6.640625 "/></g></g></g><g fill="#524c4b" fill-opacity="1"><g transform="translate(169.95035, 278.871227)"><g><path d="M 1.402344 -7.246094 L 0.734375 -7.246094 L 0.734375 0 L 1.402344 0 Z M 1.402344 -7.246094 "/></g></g></g><g fill="#524c4b" fill-opacity="1"><g transform="translate(173.480321, 278.871227)"><g><path d="M 0.6875 -7.246094 L 0.6875 0 L 4.726562 0 L 4.726562 -0.605469 L 1.355469 -0.605469 L 1.355469 -3.398438 L 4.265625 -3.398438 L 4.265625 -3.996094 L 1.355469 -3.996094 L 1.355469 -6.640625 L 4.726562 -6.640625 L 4.726562 -7.246094 Z M 0.6875 -7.246094 "/></g></g></g><g fill="#524c4b" fill-opacity="1"><g transform="translate(179.973607, 278.871227)"><g/></g></g><g fill="#524c4b" fill-opacity="1"><g transform="translate(183.224897, 278.871227)"><g><path d="M 3.007812 0.101562 C 4.671875 0.101562 5.5 -0.929688 5.5 -3.4375 L 5.5 -3.808594 C 5.5 -6.316406 4.671875 -7.347656 3.007812 -7.347656 C 1.355469 -7.347656 0.53125 -6.316406 0.53125 -3.808594 L 0.53125 -3.4375 C 0.53125 -0.929688 1.355469 0.101562 3.007812 0.101562 Z M 2.980469 -0.5 C 1.765625 -0.5 1.21875 -1.375 1.21875 -3.4375 L 1.21875 -3.808594 C 1.21875 -5.871094 1.765625 -6.742188 2.980469 -6.742188 L 3.046875 -6.742188 C 4.265625 -6.742188 4.8125 -5.871094 4.8125 -3.808594 L 4.8125 -3.4375 C 4.8125 -1.375 4.265625 -0.5 3.046875 -0.5 Z M 2.980469 -0.5 "/></g></g></g><g fill="#524c4b" fill-opacity="1"><g transform="translate(190.64712, 278.871227)"><g><path d="M 5.40625 -3.4375 L 5.40625 -3.808594 C 5.40625 -6.316406 4.367188 -7.246094 2.601562 -7.246094 L 0.6875 -7.246094 L 0.6875 0 L 2.601562 0 C 4.367188 0 5.40625 -0.929688 5.40625 -3.4375 Z M 1.355469 -0.605469 L 1.355469 -6.640625 L 2.546875 -6.640625 C 3.9375 -6.640625 4.71875 -5.871094 4.71875 -3.808594 L 4.71875 -3.4375 C 4.71875 -1.375 3.9375 -0.605469 2.546875 -0.605469 Z M 1.355469 -0.605469 "/></g></g></g><g fill="#524c4b" fill-opacity="1"><g transform="translate(197.976459, 278.871227)"><g><path d="M 0.6875 -7.246094 L 0.6875 0 L 4.726562 0 L 4.726562 -0.605469 L 1.355469 -0.605469 L 1.355469 -3.398438 L 4.265625 -3.398438 L 4.265625 -3.996094 L 1.355469 -3.996094 L 1.355469 -6.640625 L 4.726562 -6.640625 L 4.726562 -7.246094 Z M 0.6875 -7.246094 "/></g></g></g><g fill="#524c4b" fill-opacity="1"><g transform="translate(204.469744, 278.871227)"><g><path d="M 1.355469 -2.945312 L 2.695312 -2.945312 C 2.804688 -2.945312 2.917969 -2.945312 3.027344 -2.953125 L 4.179688 0 L 4.914062 0 L 3.660156 -3.085938 C 4.347656 -3.308594 4.914062 -3.847656 4.914062 -4.996094 L 4.914062 -5.183594 C 4.914062 -6.855469 3.726562 -7.246094 2.695312 -7.246094 L 0.6875 -7.246094 L 0.6875 0 L 1.355469 0 Z M 1.355469 -3.546875 L 1.355469 -6.640625 L 2.710938 -6.640625 C 3.335938 -6.640625 4.226562 -6.410156 4.226562 -5.164062 L 4.226562 -5.027344 C 4.226562 -3.78125 3.335938 -3.546875 2.710938 -3.546875 Z M 1.355469 -3.546875 "/></g></g></g><g fill="#524c4b" fill-opacity="1"><g transform="translate(211.288166, 278.871227)"><g/></g></g><g fill="#524c4b" fill-opacity="1"><g transform="translate(214.539457, 278.871227)"><g><path d="M 3.167969 0.101562 C 4.320312 0.101562 4.988281 -0.324219 5.378906 -0.734375 L 5.378906 -3.566406 L 3.464844 -3.566406 L 3.464844 -2.972656 L 4.710938 -2.972656 L 4.710938 -1.058594 C 4.449219 -0.78125 3.949219 -0.5 3.214844 -0.5 L 3.148438 -0.5 C 1.820312 -0.5 1.226562 -1.375 1.226562 -3.4375 L 1.226562 -3.808594 C 1.226562 -5.871094 1.847656 -6.742188 3.074219 -6.742188 L 3.128906 -6.742188 C 4.246094 -6.742188 4.699219 -6.101562 4.699219 -4.609375 L 5.378906 -4.609375 L 5.378906 -4.867188 C 5.378906 -6.503906 4.625 -7.347656 3.074219 -7.347656 C 1.421875 -7.347656 0.53125 -6.316406 0.53125 -3.808594 L 0.53125 -3.4375 C 0.53125 -0.929688 1.421875 0.101562 3.167969 0.101562 Z M 3.167969 0.101562 "/></g></g></g><g fill="#524c4b" fill-opacity="1"><g transform="translate(221.952402, 278.871227)"><g><path d="M 0.6875 -7.246094 L 0.6875 0 L 4.726562 0 L 4.726562 -0.605469 L 1.355469 -0.605469 L 1.355469 -3.398438 L 4.265625 -3.398438 L 4.265625 -3.996094 L 1.355469 -3.996094 L 1.355469 -6.640625 L 4.726562 -6.640625 L 4.726562 -7.246094 Z M 0.6875 -7.246094 "/></g></g></g><g fill="#524c4b" fill-opacity="1"><g transform="translate(228.445687, 278.871227)"><g><path d="M 4.421875 0 L 4.421875 -0.605469 L 1.355469 -0.605469 L 1.355469 -7.246094 L 0.6875 -7.246094 L 0.6875 0 Z M 4.421875 0 "/></g></g></g><g fill="#524c4b" fill-opacity="1"><g transform="translate(234.400191, 278.871227)"><g><path d="M 5.40625 -3.4375 L 5.40625 -3.808594 C 5.40625 -6.316406 4.367188 -7.246094 2.601562 -7.246094 L 0.6875 -7.246094 L 0.6875 0 L 2.601562 0 C 4.367188 0 5.40625 -0.929688 5.40625 -3.4375 Z M 1.355469 -0.605469 L 1.355469 -6.640625 L 2.546875 -6.640625 C 3.9375 -6.640625 4.71875 -5.871094 4.71875 -3.808594 L 4.71875 -3.4375 C 4.71875 -1.375 3.9375 -0.605469 2.546875 -0.605469 Z M 1.355469 -0.605469 "/></g></g></g><g fill="#524c4b" fill-opacity="1"><g transform="translate(241.72953, 278.871227)"><g/></g></g><g fill="#524c4b" fill-opacity="1"><g transform="translate(244.98082, 278.871227)"><g><path d="M 0.371094 -0.464844 L 0.371094 0 L 4.859375 0 L 4.859375 -0.605469 L 2.367188 -0.605469 L 1.199219 -0.574219 L 4.765625 -6.78125 L 4.765625 -7.246094 L 0.464844 -7.246094 L 0.464844 -6.640625 L 2.769531 -6.640625 L 3.9375 -6.667969 Z M 0.371094 -0.464844 "/></g></g></g><g fill="#524c4b" fill-opacity="1"><g transform="translate(251.604156, 278.871227)"><g><path d="M 2.964844 0.101562 C 4.503906 0.101562 5.296875 -0.5 5.296875 -2.246094 L 5.296875 -7.246094 L 4.625 -7.246094 L 4.625 -2.292969 C 4.625 -0.917969 4.078125 -0.5 2.964844 -0.5 C 1.847656 -0.5 1.308594 -0.917969 1.308594 -2.292969 L 1.308594 -7.246094 L 0.640625 -7.246094 L 0.640625 -2.246094 C 0.640625 -0.5 1.421875 0.101562 2.964844 0.101562 Z M 2.964844 0.101562 "/></g></g></g><g fill="#524c4b" fill-opacity="1"><g transform="translate(258.933495, 278.871227)"><g><path d="M 1.355469 -2.945312 L 2.695312 -2.945312 C 2.804688 -2.945312 2.917969 -2.945312 3.027344 -2.953125 L 4.179688 0 L 4.914062 0 L 3.660156 -3.085938 C 4.347656 -3.308594 4.914062 -3.847656 4.914062 -4.996094 L 4.914062 -5.183594 C 4.914062 -6.855469 3.726562 -7.246094 2.695312 -7.246094 L 0.6875 -7.246094 L 0.6875 0 L 1.355469 0 Z M 1.355469 -3.546875 L 1.355469 -6.640625 L 2.710938 -6.640625 C 3.335938 -6.640625 4.226562 -6.410156 4.226562 -5.164062 L 4.226562 -5.027344 C 4.226562 -3.78125 3.335938 -3.546875 2.710938 -3.546875 Z M 1.355469 -3.546875 "/></g></g></g><g fill="#524c4b" fill-opacity="1"><g transform="translate(265.751917, 278.871227)"><g><path d="M 2.964844 0.101562 C 4.503906 0.101562 5.296875 -0.5 5.296875 -2.246094 L 5.296875 -7.246094 L 4.625 -7.246094 L 4.625 -2.292969 C 4.625 -0.917969 4.078125 -0.5 2.964844 -0.5 C 1.847656 -0.5 1.308594 -0.917969 1.308594 -2.292969 L 1.308594 -7.246094 L 0.640625 -7.246094 L 0.640625 -2.246094 C 0.640625 -0.5 1.421875 0.101562 2.964844 0.101562 Z M 2.601562 -8.640625 L 1.867188 -8.640625 L 1.867188 -7.988281 L 2.601562 -7.988281 Z M 4.058594 -8.640625 L 3.324219 -8.640625 L 3.324219 -7.988281 L 4.058594 -7.988281 Z M 4.058594 -8.640625 "/></g></g></g><g fill="#524c4b" fill-opacity="1"><g transform="translate(273.081256, 278.871227)"><g><path d="M 1.21875 -3.4375 L 1.21875 -3.808594 C 1.21875 -5.871094 1.773438 -6.742188 2.980469 -6.742188 L 3.046875 -6.742188 C 4.132812 -6.742188 4.589844 -6.101562 4.589844 -4.609375 L 5.277344 -4.609375 L 5.277344 -4.867188 C 5.277344 -6.503906 4.53125 -7.347656 2.992188 -7.347656 C 1.328125 -7.347656 0.53125 -6.316406 0.53125 -3.808594 L 0.53125 -3.4375 C 0.53125 -0.929688 1.328125 0.101562 2.992188 0.101562 C 4.53125 0.101562 5.277344 -0.742188 5.277344 -2.265625 L 5.277344 -2.359375 L 4.589844 -2.359375 C 4.589844 -1.160156 4.132812 -0.5 3.046875 -0.5 L 2.980469 -0.5 C 1.765625 -0.5 1.21875 -1.375 1.21875 -3.4375 Z M 1.21875 -3.4375 "/></g></g></g><g fill="#524c4b" fill-opacity="1"><g transform="translate(280.215508, 278.871227)"><g><path d="M 1.355469 -7.246094 L 0.6875 -7.246094 L 0.6875 0 L 1.355469 0 L 1.355469 -2.230469 L 2.324219 -3.59375 L 4.144531 0 L 4.90625 0 L 2.75 -4.199219 L 4.90625 -7.246094 L 4.085938 -7.246094 L 1.355469 -3.269531 Z M 1.355469 -7.246094 "/></g></g></g><path stroke-linecap="butt" transform="matrix(1.477633, 0, 0, 1.92, 175.318059, 253.115052)" fill="none" stroke-linejoin="miter" d="M -0.00111823 -0.000922359 L 16.243713 -0.000922359 " stroke="#524c4b" stroke-width="1" stroke-opacity="1" stroke-miterlimit="4"/></svg>