<?xml version="1.0" encoding="UTF-8" standalone="no"?>
<!DOCTYPE svg PUBLIC "-//W3C//DTD SVG 1.1//EN" "http://www.w3.org/Graphics/SVG/1.1/DTD/svg11.dtd">
<svg width="100%" height="100%" viewBox="0 0 408 156" version="1.1" xmlns="http://www.w3.org/2000/svg" xmlns:xlink="http://www.w3.org/1999/xlink" xml:space="preserve" xmlns:serif="http://www.serif.com/" style="fill-rule:evenodd;clip-rule:evenodd;">
    <g transform="matrix(1,0,0,1,5.00724,66.273)">
        <g>
            <g>
                <path d="M1.661,-0.552L1.661,0L16.609,0L16.609,-0.552C11.849,-0.552 11.516,-4.484 11.516,-15.391L11.516,-27.187C11.516,-29.786 12.516,-32.057 15.391,-32.057C19.323,-32.057 22.146,-27.187 28.901,-27.187C33.276,-27.187 35.99,-30.01 35.99,-33.276L35.438,-33.276C35.438,-31.339 33.443,-30.12 31.339,-30.12C26.469,-30.12 23.422,-33.552 17.938,-33.552C14.62,-33.552 12.182,-31.781 11.516,-30.286L11.516,-54.818L20.651,-54.818C33.391,-54.818 40.698,-51.828 40.698,-48.115L40.698,-47.896L41.25,-47.896L41.25,-55.37L1.661,-55.37L1.661,-54.818C6.422,-54.818 6.755,-50.885 6.755,-39.979L6.755,-15.391C6.755,-4.484 6.422,-0.552 1.661,-0.552Z" style="fill:white;fill-rule:nonzero;"/>
            </g>
        </g>
    </g>
    <g transform="matrix(1,0,0,1,53.5593,66.273)">
        <g>
            <g>
                <path d="M1.661,0L16.557,0L16.557,-0.552C11.792,-0.552 11.464,-4.484 11.464,-15.391L11.464,-53.932C14.839,-55.151 17.495,-55.703 21.594,-55.703C31.891,-55.703 38.37,-50.052 38.37,-40.865C38.37,-34.219 33.885,-27.406 26.964,-27.406C21.818,-27.406 19.271,-30.562 16,-30.562C15.005,-30.562 14.063,-30.01 14.063,-28.682C14.063,-24.917 19.932,-24.693 25.302,-16.609C34.052,-3.49 35.604,0 38.151,0L46.62,0L46.62,-0.552C40.307,-0.552 35.161,-10.411 30.786,-17.219C26.302,-24.198 14.62,-24.974 14.62,-28.573C14.62,-29.844 15.557,-30.01 16.224,-30.01C18.547,-30.01 22.094,-26.469 27.297,-26.469C36.932,-26.469 43.135,-33.333 43.135,-40.917C43.135,-49.943 36.542,-56.479 24.75,-56.479C18.328,-56.479 14.396,-55.37 8.307,-55.37L1.661,-55.37L1.661,-54.818C6.422,-54.818 6.755,-50.885 6.755,-39.979L6.755,-15.391C6.755,-4.484 6.422,-0.552 1.661,-0.552L1.661,0Z" style="fill:white;fill-rule:nonzero;"/>
            </g>
        </g>
    </g>
    <g transform="matrix(1,0,0,1,107.481,66.273)">
        <g>
            <g>
                <path d="M1.661,-54.818C6.422,-54.818 6.755,-50.885 6.755,-39.979L6.755,-15.391C6.755,-4.484 6.422,-0.552 1.661,-0.552L1.661,0L41.307,0L41.307,-9.135L40.75,-9.135C40.75,-1.161 23.865,-0.552 18.604,-0.552L11.516,-0.552L11.516,-30.12C12.401,-31.286 13.786,-32.115 15.391,-32.057C19.323,-31.948 22.146,-27.187 28.901,-27.187C33.276,-27.187 35.99,-30.01 35.99,-33.276L35.438,-33.276C35.438,-31.339 33.443,-30.12 31.339,-30.12C26.469,-30.12 23.422,-33.552 17.938,-33.552C15.391,-33.552 13.177,-32.615 11.516,-31.005L11.516,-54.818L20.708,-54.818C33.443,-54.818 40.75,-51.828 40.75,-48.115L40.75,-47.896L41.307,-47.896L41.307,-55.37L1.661,-55.37L1.661,-54.818Z" style="fill:white;fill-rule:nonzero;"/>
            </g>
        </g>
    </g>
    <g transform="matrix(1,0,0,1,156.089,66.273)">
        <g>
            <g>
                <path d="M0,-54.818C4.208,-54.818 5.536,-50.661 10.578,-41.031C14.01,-34.604 18.385,-27.078 20.266,-23.422L20.266,-15.391C20.266,-4.484 19.932,-0.552 15.172,-0.552L15.172,0L30.12,0L30.12,-0.552C25.359,-0.552 25.026,-4.484 25.026,-15.391L25.026,-23.422C26.911,-27.078 31.286,-34.604 34.719,-41.031C39.755,-50.661 41.083,-54.818 45.292,-54.818L45.292,-55.37L33.443,-55.37L33.443,-54.818L34.885,-54.818C36.432,-54.818 37.984,-54.26 37.984,-52.271C37.984,-48.615 28.682,-31.839 24.859,-24.583C21.427,-31.286 11.182,-48.115 11.182,-51.88C11.182,-54.099 12.625,-54.818 14.177,-54.818L15.391,-54.818L15.391,-55.37L0,-55.37L0,-54.818Z" style="fill:white;fill-rule:nonzero;"/>
            </g>
        </g>
    </g>
    <g transform="matrix(1,0,0,1,207.021,66.273)">
        <g>
            <g>
                <path d="M1.661,-54.818C6.422,-54.818 6.755,-50.885 6.755,-39.979L6.755,-15.391C6.755,-4.484 6.422,-0.552 1.661,-0.552L1.661,0L16.609,0L16.609,-0.552C11.849,-0.552 11.516,-4.484 11.516,-15.391L11.516,-39.979C11.516,-50.885 11.849,-54.818 16.609,-54.818L16.609,-55.37L1.661,-55.37L1.661,-54.818Z" style="fill:white;fill-rule:nonzero;"/>
            </g>
        </g>
    </g>
    <g transform="matrix(1,0,0,1,230.938,66.273)">
        <g>
            <g>
                <path d="M1.661,-9.687C1.661,-3.932 5.318,1.109 11.74,1.109C22.755,1.109 29.234,-8.635 29.234,-22.094C29.234,-24.75 29.125,-26.964 28.901,-28.74L35.771,-10.63C37.875,-5.036 38.151,-0.552 30.344,-0.552L30.344,0L48.505,0L48.505,-0.552C45.125,-0.552 43.354,-3.599 40.917,-9.687L23.198,-56.479L22.646,-56.479C19.156,-47.286 17.109,-41.802 13.729,-32.891C13.177,-31.448 13.453,-29.953 15.005,-29.953C18.161,-29.953 19.823,-35.771 22.479,-35.771C23.198,-35.771 23.807,-35.328 23.807,-34.276C23.807,-28.516 1.661,-23.312 1.661,-9.687ZM6.37,-10.74C6.37,-24.417 24.417,-26.745 24.417,-34.161C24.417,-35.604 23.641,-36.323 22.589,-36.323C19.656,-36.323 17.609,-30.51 15.063,-30.51C14.177,-30.51 13.729,-31.172 14.453,-33.109L20.818,-50.052L27.521,-32.391C28.516,-29.125 28.682,-26.078 28.682,-21.984C28.682,-12.901 24.307,-1.552 15.063,-1.552C9.635,-1.552 6.37,-5.536 6.37,-10.74Z" style="fill:white;fill-rule:nonzero;"/>
            </g>
        </g>
    </g>
    <g transform="matrix(1.50082,0,0,1.5,24.7058,79.6731)">
        <path d="M0.002,-0.001L114.609,-0.001" style="fill:none;fill-rule:nonzero;stroke:white;stroke-width:1.33px;"/>
    </g>
    <g transform="matrix(1,0,0,1,74.9489,113.623)">
        <g>
            <g>
                <path d="M7.12,-0.25C10.151,-0.25 12.625,-3.182 13.682,-5.198C13.938,-5.604 13.833,-6.057 13.479,-6.411C13.328,-6.516 13.125,-6.562 12.875,-6.562C12.625,-6.562 12.422,-6.411 12.167,-6.109C10.906,-4.24 9.443,-1.917 6.714,-1.917C1.214,-1.917 -0.859,-10.552 -1.26,-18.026L5.151,-18.026C6.516,-18.026 7.37,-18.177 8.026,-18.531C8.38,-18.734 8.281,-19.542 7.724,-19.589L3.182,-19.589C1.766,-19.589 0.25,-19.589 -1.411,-19.641C-1.464,-22.62 -1.719,-25.344 -2.12,-27.365C-2.724,-27.818 -3.484,-27.312 -3.484,-26.708C-3.484,-25.146 -3.333,-20.599 -3.229,-19.589C-4.292,-19.589 -5.198,-19.542 -6.161,-19.391C-6.563,-19.339 -6.667,-18.578 -6.208,-18.531C-5.25,-18.125 -4.344,-18.125 -3.13,-18.073C-2.927,-15.5 -2.625,-12.672 -2.021,-10.047C-1.667,-8.734 -1.26,-7.474 -0.807,-6.312C0.708,-2.724 3.182,-0.25 7.12,-0.25Z" style="fill:white;fill-rule:nonzero;"/>
            </g>
        </g>
    </g>
    <g transform="matrix(1,0,0,1,87.9234,113.623)">
        <g>
            <g>
                <path d="M0.25,3.734C2.474,3.734 4.089,1.568 5.198,-0.505C6.26,-2.474 7.724,-4.896 9.542,-5.099C11.005,-4.896 11.865,-3.13 12.724,-1.667C13.682,0.099 15.25,1.516 17.771,1.516C20.703,1.516 23.526,-1.87 25.953,-5.25C26.203,-5.656 26.104,-6.161 25.698,-6.411C25.344,-6.615 24.792,-6.615 24.438,-6.161C22.719,-3.99 19.995,-0.203 17.771,-0.203C15.552,-0.203 14.49,-1.766 13.781,-3.536C13.026,-5.354 11.964,-6.865 9.745,-6.865C7.422,-6.865 5.859,-5.151 4.745,-3.229C3.839,-1.568 2.573,0.708 1.214,1.214C1.063,0 1.01,-1.161 1.01,-2.323C0.958,-3.484 0.958,-4.443 0.906,-5.302C1.411,-6.161 3.13,-8.885 4.042,-10.807C5.354,-13.63 6.563,-17.417 6.563,-20.854C6.411,-22.417 6.208,-24.589 5.755,-26.557C5.25,-28.427 4.292,-30.646 2.88,-30.646C0.052,-30.646 -0.755,-23.88 -1.01,-20.094C-1.063,-18.734 -1.161,-15.755 -1.161,-13.328C-1.109,-11.109 -1.063,-8.078 -0.859,-3.99L-0.557,3.182C-0.453,3.536 -0.203,3.734 0.25,3.734ZM0.505,-7.474C0.453,-7.927 0.406,-10.302 0.406,-10.807C0.406,-12.271 0.453,-14.745 0.505,-17.37C0.557,-18.682 0.604,-19.995 0.708,-21.359C0.906,-23.932 1.516,-28.427 2.724,-28.427C3.583,-28.427 4.141,-26.458 4.443,-24.943C4.698,-23.427 4.896,-21.005 4.896,-20.146C4.896,-16.411 2.776,-10.906 0.505,-7.474Z" style="fill:white;fill-rule:nonzero;"/>
            </g>
        </g>
    </g>
    <g transform="matrix(1,0,0,1,113.115,113.623)">
        <g>
            <g>
                <path d="M7.521,-1.667C10.151,-1.667 11.813,-2.927 14.036,-5.099C14.188,-5.302 14.24,-5.552 14.24,-5.703C14.24,-6.109 13.885,-6.562 13.328,-6.562C13.078,-6.562 12.823,-6.411 12.573,-6.161C11.208,-4.594 9.339,-3.385 7.521,-3.385C4.849,-3.385 3.031,-4.292 1.667,-5.505C3.839,-7.927 5.958,-11.464 5.958,-14.187C5.958,-16.255 4.292,-17.974 2.172,-17.974C-0.906,-17.974 -2.979,-15.349 -2.979,-11.109C-2.979,-5.906 1.667,-1.667 7.521,-1.667ZM0.453,-6.615C-0.505,-7.776 -1.214,-9.292 -1.214,-11.109C-1.214,-13.38 -0.505,-16.255 2.172,-16.255C3.536,-16.255 4.193,-15.552 4.193,-14.187C4.193,-11.615 1.818,-8.432 0.453,-6.615Z" style="fill:white;fill-rule:nonzero;"/>
            </g>
        </g>
    </g>
    <g transform="matrix(1,0,0,1,146.384,113.623)">
        <g>
            <g>
                <path d="M15.297,-1.464C17.167,-1.464 19.286,-3.734 19.995,-5.151C20.146,-5.401 20.198,-5.552 20.198,-5.703C20.198,-6.109 19.891,-6.562 19.339,-6.562C19.083,-6.562 18.734,-6.464 18.531,-6.109C18.026,-5.047 16.359,-3.182 15.297,-3.182C14.594,-3.182 13.583,-4.948 12.875,-6.359C12.37,-7.323 11.005,-10.302 10.703,-11.005C9.24,-14.089 7.422,-17.318 3.635,-17.318C0.203,-17.318 -2.323,-13.531 -2.323,-10.302C-2.323,-6.26 1.109,-1.516 4.797,-1.516C8.177,-1.516 9.141,-4.797 9.141,-7.979C9.141,-8.937 9.036,-9.797 8.99,-10.552C10.755,-7.016 12.469,-1.464 15.297,-1.464ZM4.797,-3.229C2.12,-3.229 -0.604,-7.271 -0.604,-10.302C-0.604,-12.573 1.01,-15.599 3.635,-15.599C7.016,-15.599 7.37,-12.37 7.37,-8.682C7.37,-6.865 7.172,-5.505 6.714,-4.594C6.26,-3.687 5.656,-3.229 4.797,-3.229Z" style="fill:white;fill-rule:nonzero;"/>
            </g>
        </g>
    </g>
    <g transform="matrix(1,0,0,1,165.669,113.623)">
        <g>
            <g>
                <path d="M14.943,-1.719C17.219,-1.719 19.74,-4.344 20.047,-5.656C20.047,-6.01 19.74,-6.562 19.188,-6.562C18.885,-6.562 18.682,-6.464 18.531,-6.26C17.469,-5.047 16.51,-3.385 14.943,-3.385C13.026,-3.385 11.51,-7.828 11.51,-10.807C11.51,-12.271 11.661,-13.63 11.917,-14.995C12.167,-16.307 12.318,-17.672 12.422,-19.083C12.422,-19.437 12.167,-19.844 11.615,-19.844C11.005,-19.844 7.828,-18.177 6.411,-18.177C5.604,-18.177 4.849,-18.328 4.141,-18.578C3.385,-18.833 2.677,-18.932 1.917,-18.932C1.464,-18.932 1.109,-18.833 1.109,-18.276C1.109,-17.521 1.161,-16.812 1.214,-16.208C1.26,-15.552 1.26,-14.943 1.26,-14.286C1.26,-11.411 0.958,-8.682 -0.708,-6.208C-0.807,-6.01 -0.859,-5.807 -0.859,-5.656C-0.859,-5.25 -0.557,-4.849 0,-4.849C0.354,-4.849 0.604,-5 0.755,-5.25C2.677,-8.583 3.031,-10.604 3.031,-14.135L3.031,-15.703C2.979,-16.156 2.979,-16.661 2.979,-17.115C4.24,-16.714 5.401,-16.411 6.464,-16.411C8.078,-16.411 9.339,-17.016 10.5,-17.771L10.047,-14.036C9.896,-12.776 9.797,-11.714 9.797,-10.807C9.797,-7.016 11.813,-1.719 14.943,-1.719Z" style="fill:white;fill-rule:nonzero;"/>
            </g>
        </g>
    </g>
    <g transform="matrix(1,0,0,1,184.853,113.623)">
        <g>
            <g>
                <path d="M7.12,-0.25C10.151,-0.25 12.625,-3.182 13.682,-5.198C13.938,-5.604 13.833,-6.057 13.479,-6.411C13.328,-6.516 13.125,-6.562 12.875,-6.562C12.625,-6.562 12.422,-6.411 12.167,-6.109C10.906,-4.24 9.443,-1.917 6.714,-1.917C1.214,-1.917 -0.859,-10.552 -1.26,-18.026L5.151,-18.026C6.516,-18.026 7.37,-18.177 8.026,-18.531C8.38,-18.734 8.281,-19.542 7.724,-19.589L3.182,-19.589C1.766,-19.589 0.25,-19.589 -1.411,-19.641C-1.464,-22.62 -1.719,-25.344 -2.12,-27.365C-2.724,-27.818 -3.484,-27.312 -3.484,-26.708C-3.484,-25.146 -3.333,-20.599 -3.229,-19.589C-4.292,-19.589 -5.198,-19.542 -6.161,-19.391C-6.563,-19.339 -6.667,-18.578 -6.208,-18.531C-5.25,-18.125 -4.344,-18.125 -3.13,-18.073C-2.927,-15.5 -2.625,-12.672 -2.021,-10.047C-1.667,-8.734 -1.26,-7.474 -0.807,-6.312C0.708,-2.724 3.182,-0.25 7.12,-0.25Z" style="fill:white;fill-rule:nonzero;"/>
            </g>
        </g>
    </g>
    <g transform="matrix(1,0,0,1,217.769,113.623)">
        <g>
            <g>
                <path d="M6.208,1.26C9.797,1.26 11.714,-0.406 12.271,-3.432C12.875,-3.281 14.036,-3.182 15.198,-3.182C16.661,-3.182 18.38,-3.734 19.339,-5.151C19.49,-5.354 19.542,-5.552 19.542,-5.703C19.542,-6.109 19.234,-6.562 18.682,-6.562C18.427,-6.562 18.229,-6.464 18.073,-6.312C16.917,-5.505 16.76,-4.948 15.198,-4.948C14.542,-4.948 13.281,-5 12.469,-5.198C12.318,-8.078 11.307,-10.047 9.391,-11.208C9.24,-12.318 6.516,-12.823 5.755,-12.823C1.917,-12.823 -0.859,-9.24 -0.859,-5.505C-0.859,-1.818 1.667,1.26 6.208,1.26ZM6.208,-0.453C3.536,-0.453 0.906,-2.271 0.906,-5.505C0.906,-8.38 3.229,-11.109 5.755,-11.109C5.198,-10.906 3.839,-10.151 3.839,-8.583C3.839,-6.26 7.724,-4.24 10.552,-3.734C10.198,-1.568 8.734,-0.453 6.208,-0.453ZM10.703,-5.453C8.99,-5.703 5.755,-7.172 5.755,-8.531C5.755,-9.542 7.219,-10.099 8.229,-10.099C9.339,-9.443 10.604,-7.521 10.703,-5.453Z" style="fill:white;fill-rule:nonzero;"/>
            </g>
        </g>
    </g>
    <g transform="matrix(1,0,0,1,236.449,113.623)">
        <g>
            <g>
                <path d="M2.573,33.12C5.401,33.12 5.906,29.74 5.906,27.469C5.906,24.234 5.552,21.359 5.198,19.188C4.896,17.469 4.391,15.5 4.344,14.844C7.474,9.646 13.583,-0.203 17.016,-5.151C17.167,-5.302 17.219,-5.505 17.219,-5.703C17.219,-6.109 16.865,-6.562 16.307,-6.562C16.005,-6.562 15.755,-6.411 15.5,-6.109C14.089,-4.089 12.167,-1.062 10.047,2.323C8.229,5.151 5.453,9.745 3.839,12.422C3.583,10.906 2.474,5.354 2.068,2.979C1.568,0.453 0.807,-3.385 0.708,-4.594C4.745,-9.443 6.208,-15.552 6.208,-22.365C6.208,-29.484 5.401,-36.151 1.313,-36.151C-2.068,-36.151 -4.391,-30.141 -3.99,-25.5C-3.536,-19.234 -2.625,-13.281 -1.568,-6.865C-0.708,-1.719 1.161,8.229 2.271,14.391C0.052,17.875 -1.667,21.458 -1.667,25.448C-1.667,28.932 -1.063,33.12 2.573,33.12ZM0.151,-6.818C-0.755,-11.964 -2.12,-21.708 -2.224,-25.5C-2.474,-30.042 -0.557,-34.432 1.313,-34.432C3.839,-34.432 4.443,-27.469 4.443,-22.365C4.443,-14.943 2.573,-9.49 0.151,-6.818ZM2.573,31.406C0.354,31.406 0.052,27.365 0.052,25.448C0.052,22.417 1.26,19.339 2.88,16.76C3.484,19.135 4.141,24.589 4.141,27.469C4.141,28.828 4.042,31.406 2.573,31.406Z" style="fill:white;fill-rule:nonzero;"/>
            </g>
        </g>
    </g>
    <g transform="matrix(1,0,0,1,272.696,113.623)">
        <g>
            <g>
                <path d="M7.776,3.583C10.5,3.583 12.724,2.172 12.724,-0.604C12.724,-1.161 12.672,-1.719 12.521,-2.172C12.37,-2.625 12.37,-3.13 12.521,-3.635C13.479,-3.031 14.844,-2.724 15.906,-2.724C17.068,-2.724 19.74,-4.391 19.74,-5.703C19.74,-6.161 19.339,-6.562 18.781,-6.562C18.531,-6.562 18.276,-6.464 18.125,-6.208C17.37,-5.047 16.458,-4.443 15.401,-4.443C14.135,-4.443 12.573,-5.656 11.464,-5.656C10.807,-5.656 10.453,-5.047 10.453,-4.391C10.453,-3.839 10.552,-3.281 10.703,-2.724C10.854,-2.172 10.958,-1.615 10.958,-1.062C10.958,0.807 9.646,1.917 7.776,1.917C3.938,1.917 1.969,-3.078 1.063,-5.656C4.896,-10.651 7.37,-16.359 7.37,-22.62C7.37,-25.698 6.563,-29.792 2.88,-29.792C-1.313,-29.792 -2.979,-23.682 -2.979,-18.682C-2.979,-13.078 -1.568,-5.906 0.708,-1.818C2.224,0.906 4.292,3.583 7.776,3.583ZM0.354,-7.625C-0.708,-11.661 -1.214,-15.198 -1.214,-18.682C-1.214,-22.719 -0.406,-27.974 2.927,-27.974C5,-27.974 5.656,-24.891 5.656,-22.62C5.656,-17.115 3.385,-11.615 0.354,-7.625Z" style="fill:white;fill-rule:nonzero;"/>
            </g>
        </g>
    </g>
    <g transform="matrix(1,0,0,1,291.527,113.623)">
        <g>
            <g>
                <path d="M8.177,4.797C13.38,4.797 16.917,-1.109 19.286,-4.698L19.589,-5.25C19.693,-5.401 19.74,-5.552 19.74,-5.703C19.74,-6.26 19.339,-6.562 18.885,-6.562C18.531,-6.562 18.276,-6.411 18.125,-6.161C16.005,-3.031 12.068,3.078 8.177,3.078C4.745,3.078 2.224,-2.12 1.26,-5.656C5.552,-12.37 5.906,-19.135 5.906,-27.568C5.906,-32.969 5.302,-40.344 1.818,-40.344C-0.807,-40.344 -2.068,-37.01 -2.625,-33.828C-3.182,-30.698 -3.229,-27.667 -3.229,-25.297C-3.229,-22.87 -3.229,-19.135 -3.078,-17.219C-2.88,-14.745 -2.573,-12.318 -1.818,-9.49C-0.052,-2.12 2.979,4.797 8.177,4.797ZM0.406,-7.677C-1.26,-13.328 -1.516,-19.589 -1.516,-25.297C-1.516,-27.365 -1.26,-30.547 -0.859,-33.271C-0.453,-35.849 0.354,-38.573 1.818,-38.573C3.635,-38.573 4.193,-30.948 4.193,-27.568C4.193,-19.589 4.089,-14.339 0.406,-7.677Z" style="fill:white;fill-rule:nonzero;"/>
            </g>
        </g>
    </g>
    <g transform="matrix(1,0,0,1,310.358,113.623)">
        <g>
            <g>
                <path d="M6.208,1.26C9.797,1.26 11.714,-0.406 12.271,-3.432C12.875,-3.281 14.036,-3.182 15.198,-3.182C16.661,-3.182 18.38,-3.734 19.339,-5.151C19.49,-5.354 19.542,-5.552 19.542,-5.703C19.542,-6.109 19.234,-6.562 18.682,-6.562C18.427,-6.562 18.229,-6.464 18.073,-6.312C16.917,-5.505 16.76,-4.948 15.198,-4.948C14.542,-4.948 13.281,-5 12.469,-5.198C12.318,-8.078 11.307,-10.047 9.391,-11.208C9.24,-12.318 6.516,-12.823 5.755,-12.823C1.917,-12.823 -0.859,-9.24 -0.859,-5.505C-0.859,-1.818 1.667,1.26 6.208,1.26ZM6.208,-0.453C3.536,-0.453 0.906,-2.271 0.906,-5.505C0.906,-8.38 3.229,-11.109 5.755,-11.109C5.198,-10.906 3.839,-10.151 3.839,-8.583C3.839,-6.26 7.724,-4.24 10.552,-3.734C10.198,-1.568 8.734,-0.453 6.208,-0.453ZM10.703,-5.453C8.99,-5.703 5.755,-7.172 5.755,-8.531C5.755,-9.542 7.219,-10.099 8.229,-10.099C9.339,-9.443 10.604,-7.521 10.703,-5.453Z" style="fill:white;fill-rule:nonzero;"/>
            </g>
        </g>
    </g>
    <g transform="matrix(1,0,0,1,329.037,113.623)">
        <g>
            <g>
                <path d="M28.474,-0.604C31.354,-0.604 33.224,-3.031 34.635,-5.302C34.688,-5.401 34.688,-5.505 34.688,-5.656C34.688,-6.057 34.432,-6.562 33.828,-6.562C33.474,-6.562 33.172,-6.411 33.021,-6.057C31.406,-3.635 30.495,-2.323 28.474,-2.323C26.656,-2.323 25.146,-4.745 23.88,-6.865C22.521,-9.141 20.802,-11.359 18.229,-11.359C15.552,-11.359 14.036,-9.391 12.469,-7.573C12.318,-11.411 11.156,-13.734 8.38,-13.734C4.443,-13.734 2.323,-10.755 -0.604,-6.359C-0.859,-6.01 -0.859,-5.859 -0.859,-5.656C-0.859,-5.047 -0.354,-4.849 0.052,-4.849C0.25,-4.849 0.453,-4.948 0.604,-5.099C3.385,-8.229 4.344,-12.016 8.38,-12.016C10.349,-12.016 10.703,-9.036 10.703,-6.615C10.703,-5.755 10.703,-4.948 10.651,-4.193C10.604,-3.432 10.552,-2.625 10.552,-1.87C10.552,-1.312 11.109,-0.958 11.563,-0.958C12.625,-0.958 12.625,-3.786 12.927,-5.25C13.833,-6.818 16.359,-9.646 18.229,-9.646C20.245,-9.646 21.813,-7.219 23.026,-5.151C24.286,-2.828 25.953,-0.604 28.474,-0.604Z" style="fill:white;fill-rule:nonzero;"/>
            </g>
        </g>
    </g>
    <g transform="matrix(1,0,0,1,362.862,113.623)">
        <g>
            <g>
                <path d="M4.292,-1.109C7.37,-1.109 9.339,-2.88 10.552,-5.453C10.854,-3.583 12.219,-1.818 14.693,-1.818C17.318,-1.818 18.682,-3.229 20.047,-5.25C20.146,-5.354 20.198,-5.505 20.198,-5.656C20.198,-6.26 19.74,-6.562 19.339,-6.562C18.984,-6.562 18.682,-6.359 18.63,-6.208C17.417,-4.698 16.609,-3.536 14.693,-3.536C12.724,-3.536 12.167,-5.302 12.167,-6.865C12.37,-13.734 12.167,-18.984 11.964,-23.375C11.766,-26.708 11.464,-32.01 11.464,-34.74C11.464,-35.495 11.51,-36.25 11.563,-37.01C11.615,-37.766 11.615,-38.474 11.615,-39.229C11.615,-39.635 11.156,-39.786 10.703,-39.786C9.844,-39.786 9.646,-38.219 9.646,-36.859C9.646,-31.453 10.453,-22.115 10.453,-16.359L10.453,-15.047C10.453,-14.594 10.453,-14.187 10.401,-13.734C9.443,-14.792 8.484,-15.599 7.016,-15.599C2.224,-15.599 -0.708,-9.745 -0.708,-6.208C-0.708,-3.182 1.313,-1.109 4.292,-1.109ZM4.24,-2.88C2.422,-2.88 1.063,-3.839 1.063,-6.208C1.063,-9.745 3.688,-13.885 6.969,-13.885C8.833,-13.885 10.453,-12.271 10.453,-9.594C10.453,-6.109 7.573,-2.88 4.24,-2.88Z" style="fill:white;fill-rule:nonzero;"/>
            </g>
        </g>
    </g>
    <g transform="matrix(1,0,0,1,382.197,113.623)">
        <g>
            <g>
                <path d="M7.521,-1.667C10.151,-1.667 11.813,-2.927 14.036,-5.099C14.188,-5.302 14.24,-5.552 14.24,-5.703C14.24,-6.109 13.885,-6.562 13.328,-6.562C13.078,-6.562 12.823,-6.411 12.573,-6.161C11.208,-4.594 9.339,-3.385 7.521,-3.385C4.849,-3.385 3.031,-4.292 1.667,-5.505C3.839,-7.927 5.958,-11.464 5.958,-14.187C5.958,-16.255 4.292,-17.974 2.172,-17.974C-0.906,-17.974 -2.979,-15.349 -2.979,-11.109C-2.979,-5.906 1.667,-1.667 7.521,-1.667ZM0.453,-6.615C-0.505,-7.776 -1.214,-9.292 -1.214,-11.109C-1.214,-13.38 -0.505,-16.255 2.172,-16.255C3.536,-16.255 4.193,-15.552 4.193,-14.187C4.193,-11.615 1.818,-8.432 0.453,-6.615Z" style="fill:white;fill-rule:nonzero;"/>
            </g>
        </g>
    </g>
</svg>
