<svg xmlns="http://www.w3.org/2000/svg" xmlns:xlink="http://www.w3.org/1999/xlink" width="500" zoomAndPan="magnify" viewBox="0 0 375 374.999991" height="500" preserveAspectRatio="xMidYMid meet" version="1.0"><defs><g/></defs><g fill="#ffffff" fill-opacity="1"><g transform="translate(72.755427, 186.954729)"><g><path d="M 1.246094 -0.414062 L 1.246094 0 L 12.457031 0 L 12.457031 -0.414062 C 8.886719 -0.414062 8.636719 -3.363281 8.636719 -11.542969 L 8.636719 -20.390625 C 8.636719 -22.339844 9.386719 -24.042969 11.542969 -24.042969 C 14.492188 -24.042969 16.609375 -20.390625 21.675781 -20.390625 C 24.957031 -20.390625 26.992188 -22.507812 26.992188 -24.957031 L 26.578125 -24.957031 C 26.578125 -23.503906 25.082031 -22.589844 23.503906 -22.589844 C 19.851562 -22.589844 17.566406 -25.164062 13.453125 -25.164062 C 10.964844 -25.164062 9.136719 -23.835938 8.636719 -22.714844 L 8.636719 -41.113281 L 15.488281 -41.113281 C 25.042969 -41.113281 30.523438 -38.871094 30.523438 -36.085938 L 30.523438 -35.921875 L 30.9375 -35.921875 L 30.9375 -41.527344 L 1.246094 -41.527344 L 1.246094 -41.113281 C 4.816406 -41.113281 5.066406 -38.164062 5.066406 -29.984375 L 5.066406 -11.542969 C 5.066406 -3.363281 4.816406 -0.414062 1.246094 -0.414062 Z M 1.246094 -0.414062 "/></g></g></g><g fill="#ffffff" fill-opacity="1"><g transform="translate(109.169446, 186.954729)"><g><path d="M 1.246094 0 L 12.417969 0 L 12.417969 -0.414062 C 8.84375 -0.414062 8.597656 -3.363281 8.597656 -11.542969 L 8.597656 -40.449219 C 11.128906 -41.363281 13.121094 -41.777344 16.195312 -41.777344 C 23.917969 -41.777344 28.777344 -37.539062 28.777344 -30.648438 C 28.777344 -25.664062 25.414062 -20.554688 20.222656 -20.554688 C 16.363281 -20.554688 14.453125 -22.921875 12 -22.921875 C 11.253906 -22.921875 10.546875 -22.507812 10.546875 -21.511719 C 10.546875 -18.6875 14.949219 -18.519531 18.976562 -12.457031 C 25.539062 -2.617188 26.703125 0 28.613281 0 L 34.964844 0 L 34.964844 -0.414062 C 30.230469 -0.414062 26.371094 -7.808594 23.089844 -12.914062 C 19.726562 -18.148438 10.964844 -18.730469 10.964844 -21.429688 C 10.964844 -22.382812 11.667969 -22.507812 12.167969 -22.507812 C 13.910156 -22.507812 16.570312 -19.851562 20.472656 -19.851562 C 27.699219 -19.851562 32.351562 -25 32.351562 -30.6875 C 32.351562 -37.457031 27.40625 -42.359375 18.5625 -42.359375 C 13.746094 -42.359375 10.796875 -41.527344 6.230469 -41.527344 L 1.246094 -41.527344 L 1.246094 -41.113281 C 4.816406 -41.113281 5.066406 -38.164062 5.066406 -29.984375 L 5.066406 -11.542969 C 5.066406 -3.363281 4.816406 -0.414062 1.246094 -0.414062 Z M 1.246094 0 "/></g></g></g><g fill="#ffffff" fill-opacity="1"><g transform="translate(149.610858, 186.954729)"><g><path d="M 1.246094 -41.113281 C 4.816406 -41.113281 5.066406 -38.164062 5.066406 -29.984375 L 5.066406 -11.542969 C 5.066406 -3.363281 4.816406 -0.414062 1.246094 -0.414062 L 1.246094 0 L 30.980469 0 L 30.980469 -6.851562 L 30.5625 -6.851562 C 30.5625 -0.871094 17.898438 -0.414062 13.953125 -0.414062 L 8.636719 -0.414062 L 8.636719 -22.589844 C 9.300781 -23.464844 10.339844 -24.085938 11.542969 -24.042969 C 14.492188 -23.960938 16.609375 -20.390625 21.675781 -20.390625 C 24.957031 -20.390625 26.992188 -22.507812 26.992188 -24.957031 L 26.578125 -24.957031 C 26.578125 -23.503906 25.082031 -22.589844 23.503906 -22.589844 C 19.851562 -22.589844 17.566406 -25.164062 13.453125 -25.164062 C 11.542969 -25.164062 9.882812 -24.460938 8.636719 -23.253906 L 8.636719 -41.113281 L 15.53125 -41.113281 C 25.082031 -41.113281 30.5625 -38.871094 30.5625 -36.085938 L 30.5625 -35.921875 L 30.980469 -35.921875 L 30.980469 -41.527344 L 1.246094 -41.527344 Z M 1.246094 -41.113281 "/></g></g></g><g fill="#ffffff" fill-opacity="1"><g transform="translate(186.066394, 186.954729)"><g><path d="M 0 -41.113281 C 3.15625 -41.113281 4.152344 -37.996094 7.933594 -30.773438 C 10.507812 -25.953125 13.789062 -20.308594 15.199219 -17.566406 L 15.199219 -11.542969 C 15.199219 -3.363281 14.949219 -0.414062 11.378906 -0.414062 L 11.378906 0 L 22.589844 0 L 22.589844 -0.414062 C 19.019531 -0.414062 18.769531 -3.363281 18.769531 -11.542969 L 18.769531 -17.566406 C 20.183594 -20.308594 23.464844 -25.953125 26.039062 -30.773438 C 29.816406 -37.996094 30.8125 -41.113281 33.96875 -41.113281 L 33.96875 -41.527344 L 25.082031 -41.527344 L 25.082031 -41.113281 L 26.164062 -41.113281 C 27.324219 -41.113281 28.488281 -40.695312 28.488281 -39.203125 C 28.488281 -36.460938 21.511719 -23.878906 18.644531 -18.4375 C 16.070312 -23.464844 8.386719 -36.085938 8.386719 -38.910156 C 8.386719 -40.574219 9.46875 -41.113281 10.632812 -41.113281 L 11.542969 -41.113281 L 11.542969 -41.527344 L 0 -41.527344 Z M 0 -41.113281 "/></g></g></g><g fill="#ffffff" fill-opacity="1"><g transform="translate(224.265762, 186.954729)"><g><path d="M 1.246094 -41.113281 C 4.816406 -41.113281 5.066406 -38.164062 5.066406 -29.984375 L 5.066406 -11.542969 C 5.066406 -3.363281 4.816406 -0.414062 1.246094 -0.414062 L 1.246094 0 L 12.457031 0 L 12.457031 -0.414062 C 8.886719 -0.414062 8.636719 -3.363281 8.636719 -11.542969 L 8.636719 -29.984375 C 8.636719 -38.164062 8.886719 -41.113281 12.457031 -41.113281 L 12.457031 -41.527344 L 1.246094 -41.527344 Z M 1.246094 -41.113281 "/></g></g></g><g fill="#ffffff" fill-opacity="1"><g transform="translate(242.203597, 186.954729)"><g><path d="M 1.246094 -7.265625 C 1.246094 -2.949219 3.988281 0.832031 8.804688 0.832031 C 17.066406 0.832031 21.925781 -6.476562 21.925781 -16.570312 C 21.925781 -18.5625 21.84375 -20.222656 21.675781 -21.554688 L 26.828125 -7.972656 C 28.40625 -3.777344 28.613281 -0.414062 22.757812 -0.414062 L 22.757812 0 L 36.378906 0 L 36.378906 -0.414062 C 33.84375 -0.414062 32.515625 -2.699219 30.6875 -7.265625 L 17.398438 -42.359375 L 16.984375 -42.359375 C 14.367188 -35.464844 12.832031 -31.351562 10.296875 -24.667969 C 9.882812 -23.585938 10.089844 -22.464844 11.253906 -22.464844 C 13.621094 -22.464844 14.867188 -26.828125 16.859375 -26.828125 C 17.398438 -26.828125 17.855469 -26.496094 17.855469 -25.707031 C 17.855469 -21.386719 1.246094 -17.484375 1.246094 -7.265625 Z M 4.777344 -8.054688 C 4.777344 -18.3125 18.3125 -20.058594 18.3125 -25.621094 C 18.3125 -26.703125 17.730469 -27.242188 16.941406 -27.242188 C 14.742188 -27.242188 13.207031 -22.882812 11.296875 -22.882812 C 10.632812 -22.882812 10.296875 -23.378906 10.839844 -24.832031 L 15.613281 -37.539062 L 20.640625 -24.292969 C 21.386719 -21.84375 21.511719 -19.558594 21.511719 -16.488281 C 21.511719 -9.675781 18.230469 -1.164062 11.296875 -1.164062 C 7.226562 -1.164062 4.777344 -4.152344 4.777344 -8.054688 Z M 4.777344 -8.054688 "/></g></g></g><path stroke-linecap="butt" transform="matrix(1.500818, 0, 0, 1.5, 87.529364, 197.004861)" fill="none" stroke-linejoin="miter" d="M 0.00125641 -0.000636276 L 85.956991 -0.000636276 " stroke="#ffffff" stroke-width="1" stroke-opacity="1" stroke-miterlimit="4"/><g fill="#ffffff" fill-opacity="1"><g transform="translate(125.211675, 222.467477)"><g><path d="M 5.339844 -0.1875 C 7.613281 -0.1875 9.46875 -2.386719 10.261719 -3.898438 C 10.453125 -4.203125 10.375 -4.542969 10.109375 -4.808594 C 9.996094 -4.886719 9.84375 -4.921875 9.65625 -4.921875 C 9.46875 -4.921875 9.316406 -4.808594 9.125 -4.582031 C 8.179688 -3.179688 7.082031 -1.4375 5.035156 -1.4375 C 0.910156 -1.4375 -0.644531 -7.914062 -0.945312 -13.519531 L 3.863281 -13.519531 C 4.886719 -13.519531 5.527344 -13.632812 6.019531 -13.898438 C 6.285156 -14.050781 6.210938 -14.65625 5.792969 -14.691406 L 2.386719 -14.691406 C 1.324219 -14.691406 0.1875 -14.691406 -1.058594 -14.730469 C -1.097656 -16.964844 -1.289062 -19.007812 -1.589844 -20.523438 C -2.042969 -20.863281 -2.613281 -20.484375 -2.613281 -20.03125 C -2.613281 -18.859375 -2.5 -15.449219 -2.421875 -14.691406 C -3.21875 -14.691406 -3.898438 -14.65625 -4.621094 -14.542969 C -4.921875 -14.503906 -5 -13.933594 -4.65625 -13.898438 C -3.9375 -13.59375 -3.257812 -13.59375 -2.347656 -13.554688 C -2.195312 -11.625 -1.96875 -9.503906 -1.515625 -7.535156 C -1.25 -6.550781 -0.945312 -5.605469 -0.605469 -4.734375 C 0.53125 -2.042969 2.386719 -0.1875 5.339844 -0.1875 Z M 5.339844 -0.1875 "/></g></g></g><g fill="#ffffff" fill-opacity="1"><g transform="translate(134.942552, 222.467477)"><g><path d="M 0.1875 2.800781 C 1.855469 2.800781 3.066406 1.175781 3.898438 -0.378906 C 4.695312 -1.855469 5.792969 -3.671875 7.15625 -3.824219 C 8.253906 -3.671875 8.898438 -2.347656 9.542969 -1.25 C 10.261719 0.0742188 11.4375 1.136719 13.328125 1.136719 C 15.527344 1.136719 17.644531 -1.402344 19.464844 -3.9375 C 19.652344 -4.242188 19.578125 -4.621094 19.273438 -4.808594 C 19.007812 -4.960938 18.59375 -4.960938 18.328125 -4.621094 C 17.039062 -2.992188 14.996094 -0.152344 13.328125 -0.152344 C 11.664062 -0.152344 10.867188 -1.324219 10.335938 -2.652344 C 9.769531 -4.015625 8.972656 -5.148438 7.308594 -5.148438 C 5.566406 -5.148438 4.394531 -3.863281 3.558594 -2.421875 C 2.878906 -1.175781 1.929688 0.53125 0.910156 0.910156 C 0.796875 0 0.757812 -0.871094 0.757812 -1.742188 C 0.71875 -2.613281 0.71875 -3.332031 0.679688 -3.976562 C 1.058594 -4.621094 2.347656 -6.664062 3.03125 -8.105469 C 4.015625 -10.222656 4.921875 -13.0625 4.921875 -15.640625 C 4.808594 -16.8125 4.65625 -18.441406 4.316406 -19.917969 C 3.9375 -21.320312 3.21875 -22.984375 2.160156 -22.984375 C 0.0390625 -22.984375 -0.566406 -17.910156 -0.757812 -15.070312 C -0.796875 -14.050781 -0.871094 -11.816406 -0.871094 -9.996094 C -0.832031 -8.332031 -0.796875 -6.058594 -0.644531 -2.992188 L -0.417969 2.386719 C -0.339844 2.652344 -0.152344 2.800781 0.1875 2.800781 Z M 0.378906 -5.605469 C 0.339844 -5.945312 0.304688 -7.726562 0.304688 -8.105469 C 0.304688 -9.203125 0.339844 -11.058594 0.378906 -13.027344 C 0.417969 -14.011719 0.453125 -14.996094 0.53125 -16.019531 C 0.679688 -17.949219 1.136719 -21.320312 2.042969 -21.320312 C 2.6875 -21.320312 3.105469 -19.84375 3.332031 -18.707031 C 3.523438 -17.570312 3.671875 -15.753906 3.671875 -15.109375 C 3.671875 -12.308594 2.082031 -8.179688 0.378906 -5.605469 Z M 0.378906 -5.605469 "/></g></g></g><g fill="#ffffff" fill-opacity="1"><g transform="translate(153.836346, 222.467477)"><g><path d="M 5.640625 -1.25 C 7.613281 -1.25 8.859375 -2.195312 10.527344 -3.824219 C 10.640625 -3.976562 10.679688 -4.164062 10.679688 -4.277344 C 10.679688 -4.582031 10.414062 -4.921875 9.996094 -4.921875 C 9.808594 -4.921875 9.617188 -4.808594 9.429688 -4.621094 C 8.40625 -3.445312 7.003906 -2.539062 5.640625 -2.539062 C 3.636719 -2.539062 2.273438 -3.21875 1.25 -4.128906 C 2.878906 -5.945312 4.46875 -8.597656 4.46875 -10.640625 C 4.46875 -12.191406 3.21875 -13.480469 1.628906 -13.480469 C -0.679688 -13.480469 -2.234375 -11.511719 -2.234375 -8.332031 C -2.234375 -4.429688 1.25 -1.25 5.640625 -1.25 Z M 0.339844 -4.960938 C -0.378906 -5.832031 -0.910156 -6.96875 -0.910156 -8.332031 C -0.910156 -10.035156 -0.378906 -12.191406 1.628906 -12.191406 C 2.652344 -12.191406 3.144531 -11.664062 3.144531 -10.640625 C 3.144531 -8.710938 1.363281 -6.324219 0.339844 -4.960938 Z M 0.339844 -4.960938 "/></g></g></g><g fill="#ffffff" fill-opacity="1"><g transform="translate(163.832256, 222.467477)"><g/></g></g><g fill="#ffffff" fill-opacity="1"><g transform="translate(178.788264, 222.467477)"><g><path d="M 11.472656 -1.097656 C 12.875 -1.097656 14.464844 -2.800781 14.996094 -3.863281 C 15.109375 -4.050781 15.148438 -4.164062 15.148438 -4.277344 C 15.148438 -4.582031 14.917969 -4.921875 14.503906 -4.921875 C 14.3125 -4.921875 14.050781 -4.847656 13.898438 -4.582031 C 13.519531 -3.785156 12.269531 -2.386719 11.472656 -2.386719 C 10.945312 -2.386719 10.1875 -3.710938 9.65625 -4.769531 C 9.277344 -5.492188 8.253906 -7.726562 8.027344 -8.253906 C 6.929688 -10.566406 5.566406 -12.988281 2.726562 -12.988281 C 0.152344 -12.988281 -1.742188 -10.148438 -1.742188 -7.726562 C -1.742188 -4.695312 0.832031 -1.136719 3.597656 -1.136719 C 6.132812 -1.136719 6.855469 -3.597656 6.855469 -5.984375 C 6.855469 -6.703125 6.777344 -7.347656 6.742188 -7.914062 C 8.066406 -5.261719 9.351562 -1.097656 11.472656 -1.097656 Z M 3.597656 -2.421875 C 1.589844 -2.421875 -0.453125 -5.453125 -0.453125 -7.726562 C -0.453125 -9.429688 0.757812 -11.699219 2.726562 -11.699219 C 5.261719 -11.699219 5.527344 -9.277344 5.527344 -6.511719 C 5.527344 -5.148438 5.378906 -4.128906 5.035156 -3.445312 C 4.695312 -2.765625 4.242188 -2.421875 3.597656 -2.421875 Z M 3.597656 -2.421875 "/></g></g></g><g fill="#ffffff" fill-opacity="1"><g transform="translate(193.252049, 222.467477)"><g><path d="M 11.207031 -1.289062 C 12.914062 -1.289062 14.804688 -3.257812 15.035156 -4.242188 C 15.035156 -4.507812 14.804688 -4.921875 14.390625 -4.921875 C 14.164062 -4.921875 14.011719 -4.847656 13.898438 -4.695312 C 13.101562 -3.785156 12.382812 -2.539062 11.207031 -2.539062 C 9.769531 -2.539062 8.632812 -5.871094 8.632812 -8.105469 C 8.632812 -9.203125 8.746094 -10.222656 8.9375 -11.246094 C 9.125 -12.230469 9.238281 -13.253906 9.316406 -14.3125 C 9.316406 -14.578125 9.125 -14.882812 8.710938 -14.882812 C 8.253906 -14.882812 5.871094 -13.632812 4.808594 -13.632812 C 4.203125 -13.632812 3.636719 -13.746094 3.105469 -13.933594 C 2.539062 -14.125 2.007812 -14.199219 1.4375 -14.199219 C 1.097656 -14.199219 0.832031 -14.125 0.832031 -13.707031 C 0.832031 -13.140625 0.871094 -12.609375 0.910156 -12.15625 C 0.945312 -11.664062 0.945312 -11.207031 0.945312 -10.714844 C 0.945312 -8.558594 0.71875 -6.511719 -0.53125 -4.65625 C -0.605469 -4.507812 -0.644531 -4.355469 -0.644531 -4.242188 C -0.644531 -3.9375 -0.417969 -3.636719 0 -3.636719 C 0.265625 -3.636719 0.453125 -3.75 0.566406 -3.9375 C 2.007812 -6.4375 2.273438 -7.953125 2.273438 -10.601562 L 2.273438 -11.777344 C 2.234375 -12.117188 2.234375 -12.496094 2.234375 -12.835938 C 3.179688 -12.535156 4.050781 -12.308594 4.847656 -12.308594 C 6.058594 -12.308594 7.003906 -12.761719 7.875 -13.328125 L 7.535156 -10.527344 C 7.421875 -9.582031 7.347656 -8.785156 7.347656 -8.105469 C 7.347656 -5.261719 8.859375 -1.289062 11.207031 -1.289062 Z M 11.207031 -1.289062 "/></g></g></g><g fill="#ffffff" fill-opacity="1"><g transform="translate(207.64011, 222.467477)"><g><path d="M 5.339844 -0.1875 C 7.613281 -0.1875 9.46875 -2.386719 10.261719 -3.898438 C 10.453125 -4.203125 10.375 -4.542969 10.109375 -4.808594 C 9.996094 -4.886719 9.84375 -4.921875 9.65625 -4.921875 C 9.46875 -4.921875 9.316406 -4.808594 9.125 -4.582031 C 8.179688 -3.179688 7.082031 -1.4375 5.035156 -1.4375 C 0.910156 -1.4375 -0.644531 -7.914062 -0.945312 -13.519531 L 3.863281 -13.519531 C 4.886719 -13.519531 5.527344 -13.632812 6.019531 -13.898438 C 6.285156 -14.050781 6.210938 -14.65625 5.792969 -14.691406 L 2.386719 -14.691406 C 1.324219 -14.691406 0.1875 -14.691406 -1.058594 -14.730469 C -1.097656 -16.964844 -1.289062 -19.007812 -1.589844 -20.523438 C -2.042969 -20.863281 -2.613281 -20.484375 -2.613281 -20.03125 C -2.613281 -18.859375 -2.5 -15.449219 -2.421875 -14.691406 C -3.21875 -14.691406 -3.898438 -14.65625 -4.621094 -14.542969 C -4.921875 -14.503906 -5 -13.933594 -4.65625 -13.898438 C -3.9375 -13.59375 -3.257812 -13.59375 -2.347656 -13.554688 C -2.195312 -11.625 -1.96875 -9.503906 -1.515625 -7.535156 C -1.25 -6.550781 -0.945312 -5.605469 -0.605469 -4.734375 C 0.53125 -2.042969 2.386719 -0.1875 5.339844 -0.1875 Z M 5.339844 -0.1875 "/></g></g></g><g fill="#ffffff" fill-opacity="1"><g transform="translate(217.370986, 222.467477)"><g/></g></g><g fill="#ffffff" fill-opacity="1"><g transform="translate(232.326994, 222.467477)"><g><path d="M 4.65625 0.945312 C 7.347656 0.945312 8.785156 -0.304688 9.203125 -2.574219 C 9.65625 -2.460938 10.527344 -2.386719 11.398438 -2.386719 C 12.496094 -2.386719 13.785156 -2.800781 14.503906 -3.863281 C 14.617188 -4.015625 14.65625 -4.164062 14.65625 -4.277344 C 14.65625 -4.582031 14.425781 -4.921875 14.011719 -4.921875 C 13.820312 -4.921875 13.671875 -4.847656 13.554688 -4.734375 C 12.6875 -4.128906 12.570312 -3.710938 11.398438 -3.710938 C 10.90625 -3.710938 9.960938 -3.75 9.351562 -3.898438 C 9.238281 -6.058594 8.480469 -7.535156 7.042969 -8.40625 C 6.929688 -9.238281 4.886719 -9.617188 4.316406 -9.617188 C 1.4375 -9.617188 -0.644531 -6.929688 -0.644531 -4.128906 C -0.644531 -1.363281 1.25 0.945312 4.65625 0.945312 Z M 4.65625 -0.339844 C 2.652344 -0.339844 0.679688 -1.703125 0.679688 -4.128906 C 0.679688 -6.285156 2.421875 -8.332031 4.316406 -8.332031 C 3.898438 -8.179688 2.878906 -7.613281 2.878906 -6.4375 C 2.878906 -4.695312 5.792969 -3.179688 7.914062 -2.800781 C 7.648438 -1.175781 6.550781 -0.339844 4.65625 -0.339844 Z M 8.027344 -4.089844 C 6.742188 -4.277344 4.316406 -5.378906 4.316406 -6.398438 C 4.316406 -7.15625 5.414062 -7.574219 6.171875 -7.574219 C 7.003906 -7.082031 7.953125 -5.640625 8.027344 -4.089844 Z M 8.027344 -4.089844 "/></g></g></g><g fill="#ffffff" fill-opacity="1"><g transform="translate(246.336416, 222.467477)"><g><path d="M 1.929688 24.839844 C 4.050781 24.839844 4.429688 22.304688 4.429688 20.601562 C 4.429688 18.175781 4.164062 16.019531 3.898438 14.390625 C 3.671875 13.101562 3.292969 11.625 3.257812 11.132812 C 5.605469 7.234375 10.1875 -0.152344 12.761719 -3.863281 C 12.875 -3.976562 12.914062 -4.128906 12.914062 -4.277344 C 12.914062 -4.582031 12.648438 -4.921875 12.230469 -4.921875 C 12.003906 -4.921875 11.816406 -4.808594 11.625 -4.582031 C 10.566406 -3.066406 9.125 -0.796875 7.535156 1.742188 C 6.171875 3.863281 4.089844 7.308594 2.878906 9.316406 C 2.6875 8.179688 1.855469 4.015625 1.550781 2.234375 C 1.175781 0.339844 0.605469 -2.539062 0.53125 -3.445312 C 3.558594 -7.082031 4.65625 -11.664062 4.65625 -16.773438 C 4.65625 -22.113281 4.050781 -27.113281 0.984375 -27.113281 C -1.550781 -27.113281 -3.292969 -22.605469 -2.992188 -19.125 C -2.652344 -14.425781 -1.96875 -9.960938 -1.175781 -5.148438 C -0.53125 -1.289062 0.871094 6.171875 1.703125 10.792969 C 0.0390625 13.40625 -1.25 16.09375 -1.25 19.085938 C -1.25 21.699219 -0.796875 24.839844 1.929688 24.839844 Z M 0.113281 -5.113281 C -0.566406 -8.972656 -1.589844 -16.28125 -1.667969 -19.125 C -1.855469 -22.53125 -0.417969 -25.824219 0.984375 -25.824219 C 2.878906 -25.824219 3.332031 -20.601562 3.332031 -16.773438 C 3.332031 -11.207031 1.929688 -7.117188 0.113281 -5.113281 Z M 1.929688 23.554688 C 0.265625 23.554688 0.0390625 20.523438 0.0390625 19.085938 C 0.0390625 16.8125 0.945312 14.503906 2.160156 12.570312 C 2.613281 14.351562 3.105469 18.441406 3.105469 20.601562 C 3.105469 21.621094 3.03125 23.554688 1.929688 23.554688 Z M 1.929688 23.554688 "/></g></g></g><g fill="#ffffff" fill-opacity="1"><g transform="translate(258.566269, 222.467477)"><g/></g></g><g fill="#ffffff" fill-opacity="1"><g transform="translate(273.522277, 222.467477)"><g><path d="M 5.832031 2.6875 C 7.875 2.6875 9.542969 1.628906 9.542969 -0.453125 C 9.542969 -0.871094 9.503906 -1.289062 9.390625 -1.628906 C 9.277344 -1.96875 9.277344 -2.347656 9.390625 -2.726562 C 10.109375 -2.273438 11.132812 -2.042969 11.929688 -2.042969 C 12.800781 -2.042969 14.804688 -3.292969 14.804688 -4.277344 C 14.804688 -4.621094 14.503906 -4.921875 14.085938 -4.921875 C 13.898438 -4.921875 13.707031 -4.847656 13.59375 -4.65625 C 13.027344 -3.785156 12.34375 -3.332031 11.550781 -3.332031 C 10.601562 -3.332031 9.429688 -4.242188 8.597656 -4.242188 C 8.105469 -4.242188 7.839844 -3.785156 7.839844 -3.292969 C 7.839844 -2.878906 7.914062 -2.460938 8.027344 -2.042969 C 8.140625 -1.628906 8.21875 -1.210938 8.21875 -0.796875 C 8.21875 0.605469 7.234375 1.4375 5.832031 1.4375 C 2.953125 1.4375 1.476562 -2.308594 0.796875 -4.242188 C 3.671875 -7.988281 5.527344 -12.269531 5.527344 -16.964844 C 5.527344 -19.273438 4.921875 -22.34375 2.160156 -22.34375 C -0.984375 -22.34375 -2.234375 -17.761719 -2.234375 -14.011719 C -2.234375 -9.808594 -1.175781 -4.429688 0.53125 -1.363281 C 1.667969 0.679688 3.21875 2.6875 5.832031 2.6875 Z M 0.265625 -5.71875 C -0.53125 -8.746094 -0.910156 -11.398438 -0.910156 -14.011719 C -0.910156 -17.039062 -0.304688 -20.980469 2.195312 -20.980469 C 3.75 -20.980469 4.242188 -18.667969 4.242188 -16.964844 C 4.242188 -12.835938 2.539062 -8.710938 0.265625 -5.71875 Z M 0.265625 -5.71875 "/></g></g></g><g fill="#ffffff" fill-opacity="1"><g transform="translate(287.645292, 222.467477)"><g><path d="M 6.132812 3.597656 C 10.035156 3.597656 12.6875 -0.832031 14.464844 -3.523438 L 14.691406 -3.9375 C 14.769531 -4.050781 14.804688 -4.164062 14.804688 -4.277344 C 14.804688 -4.695312 14.503906 -4.921875 14.164062 -4.921875 C 13.898438 -4.921875 13.707031 -4.808594 13.59375 -4.621094 C 12.003906 -2.273438 9.050781 2.308594 6.132812 2.308594 C 3.558594 2.308594 1.667969 -1.589844 0.945312 -4.242188 C 4.164062 -9.277344 4.429688 -14.351562 4.429688 -20.675781 C 4.429688 -24.726562 3.976562 -30.257812 1.363281 -30.257812 C -0.605469 -30.257812 -1.550781 -27.757812 -1.96875 -25.371094 C -2.386719 -23.023438 -2.421875 -20.75 -2.421875 -18.972656 C -2.421875 -17.152344 -2.421875 -14.351562 -2.308594 -12.914062 C -2.160156 -11.058594 -1.929688 -9.238281 -1.363281 -7.117188 C -0.0390625 -1.589844 2.234375 3.597656 6.132812 3.597656 Z M 0.304688 -5.757812 C -0.945312 -9.996094 -1.136719 -14.691406 -1.136719 -18.972656 C -1.136719 -20.523438 -0.945312 -22.910156 -0.644531 -24.953125 C -0.339844 -26.886719 0.265625 -28.929688 1.363281 -28.929688 C 2.726562 -28.929688 3.144531 -23.210938 3.144531 -20.675781 C 3.144531 -14.691406 3.066406 -10.753906 0.304688 -5.757812 Z M 0.304688 -5.757812 "/></g></g></g><g fill="#ffffff" fill-opacity="1"><g transform="translate(301.768307, 222.467477)"><g><path d="M 4.65625 0.945312 C 7.347656 0.945312 8.785156 -0.304688 9.203125 -2.574219 C 9.65625 -2.460938 10.527344 -2.386719 11.398438 -2.386719 C 12.496094 -2.386719 13.785156 -2.800781 14.503906 -3.863281 C 14.617188 -4.015625 14.65625 -4.164062 14.65625 -4.277344 C 14.65625 -4.582031 14.425781 -4.921875 14.011719 -4.921875 C 13.820312 -4.921875 13.671875 -4.847656 13.554688 -4.734375 C 12.6875 -4.128906 12.570312 -3.710938 11.398438 -3.710938 C 10.90625 -3.710938 9.960938 -3.75 9.351562 -3.898438 C 9.238281 -6.058594 8.480469 -7.535156 7.042969 -8.40625 C 6.929688 -9.238281 4.886719 -9.617188 4.316406 -9.617188 C 1.4375 -9.617188 -0.644531 -6.929688 -0.644531 -4.128906 C -0.644531 -1.363281 1.25 0.945312 4.65625 0.945312 Z M 4.65625 -0.339844 C 2.652344 -0.339844 0.679688 -1.703125 0.679688 -4.128906 C 0.679688 -6.285156 2.421875 -8.332031 4.316406 -8.332031 C 3.898438 -8.179688 2.878906 -7.613281 2.878906 -6.4375 C 2.878906 -4.695312 5.792969 -3.179688 7.914062 -2.800781 C 7.648438 -1.175781 6.550781 -0.339844 4.65625 -0.339844 Z M 8.027344 -4.089844 C 6.742188 -4.277344 4.316406 -5.378906 4.316406 -6.398438 C 4.316406 -7.15625 5.414062 -7.574219 6.171875 -7.574219 C 7.003906 -7.082031 7.953125 -5.640625 8.027344 -4.089844 Z M 8.027344 -4.089844 "/></g></g></g><g fill="#ffffff" fill-opacity="1"><g transform="translate(315.777729, 222.467477)"><g><path d="M 21.355469 -0.453125 C 23.515625 -0.453125 24.917969 -2.273438 25.976562 -3.976562 C 26.015625 -4.050781 26.015625 -4.128906 26.015625 -4.242188 C 26.015625 -4.542969 25.824219 -4.921875 25.371094 -4.921875 C 25.105469 -4.921875 24.878906 -4.808594 24.765625 -4.542969 C 23.554688 -2.726562 22.871094 -1.742188 21.355469 -1.742188 C 19.992188 -1.742188 18.859375 -3.558594 17.910156 -5.148438 C 16.890625 -6.855469 15.601562 -8.519531 13.671875 -8.519531 C 11.664062 -8.519531 10.527344 -7.042969 9.351562 -5.679688 C 9.238281 -8.558594 8.367188 -10.300781 6.285156 -10.300781 C 3.332031 -10.300781 1.742188 -8.066406 -0.453125 -4.769531 C -0.644531 -4.507812 -0.644531 -4.394531 -0.644531 -4.242188 C -0.644531 -3.785156 -0.265625 -3.636719 0.0390625 -3.636719 C 0.1875 -3.636719 0.339844 -3.710938 0.453125 -3.824219 C 2.539062 -6.171875 3.257812 -9.011719 6.285156 -9.011719 C 7.761719 -9.011719 8.027344 -6.777344 8.027344 -4.960938 C 8.027344 -4.316406 8.027344 -3.710938 7.988281 -3.144531 C 7.953125 -2.574219 7.914062 -1.96875 7.914062 -1.402344 C 7.914062 -0.984375 8.332031 -0.71875 8.671875 -0.71875 C 9.46875 -0.71875 9.46875 -2.839844 9.695312 -3.9375 C 10.375 -5.113281 12.269531 -7.234375 13.671875 -7.234375 C 15.183594 -7.234375 16.359375 -5.414062 17.269531 -3.863281 C 18.214844 -2.121094 19.464844 -0.453125 21.355469 -0.453125 Z M 21.355469 -0.453125 "/></g></g></g><g fill="#ffffff" fill-opacity="1"><g transform="translate(341.146155, 222.467477)"><g><path d="M 3.21875 -0.832031 C 5.527344 -0.832031 7.003906 -2.160156 7.914062 -4.089844 C 8.140625 -2.6875 9.164062 -1.363281 11.019531 -1.363281 C 12.988281 -1.363281 14.011719 -2.421875 15.035156 -3.9375 C 15.109375 -4.015625 15.148438 -4.128906 15.148438 -4.242188 C 15.148438 -4.695312 14.804688 -4.921875 14.503906 -4.921875 C 14.238281 -4.921875 14.011719 -4.769531 13.972656 -4.65625 C 13.0625 -3.523438 12.457031 -2.652344 11.019531 -2.652344 C 9.542969 -2.652344 9.125 -3.976562 9.125 -5.148438 C 9.277344 -10.300781 9.125 -14.238281 8.972656 -17.53125 C 8.824219 -20.03125 8.597656 -24.007812 8.597656 -26.054688 C 8.597656 -26.621094 8.632812 -27.1875 8.671875 -27.757812 C 8.710938 -28.324219 8.710938 -28.855469 8.710938 -29.421875 C 8.710938 -29.726562 8.367188 -29.839844 8.027344 -29.839844 C 7.382812 -29.839844 7.234375 -28.664062 7.234375 -27.644531 C 7.234375 -23.589844 7.839844 -16.585938 7.839844 -12.269531 L 7.839844 -11.285156 C 7.839844 -10.945312 7.839844 -10.640625 7.800781 -10.300781 C 7.082031 -11.09375 6.363281 -11.699219 5.261719 -11.699219 C 1.667969 -11.699219 -0.53125 -7.308594 -0.53125 -4.65625 C -0.53125 -2.386719 0.984375 -0.832031 3.21875 -0.832031 Z M 3.179688 -2.160156 C 1.816406 -2.160156 0.796875 -2.878906 0.796875 -4.65625 C 0.796875 -7.308594 2.765625 -10.414062 5.226562 -10.414062 C 6.625 -10.414062 7.839844 -9.203125 7.839844 -7.195312 C 7.839844 -4.582031 5.679688 -2.160156 3.179688 -2.160156 Z M 3.179688 -2.160156 "/></g></g></g><g fill="#ffffff" fill-opacity="1"><g transform="translate(355.647786, 222.467477)"><g><path d="M 5.640625 -1.25 C 7.613281 -1.25 8.859375 -2.195312 10.527344 -3.824219 C 10.640625 -3.976562 10.679688 -4.164062 10.679688 -4.277344 C 10.679688 -4.582031 10.414062 -4.921875 9.996094 -4.921875 C 9.808594 -4.921875 9.617188 -4.808594 9.429688 -4.621094 C 8.40625 -3.445312 7.003906 -2.539062 5.640625 -2.539062 C 3.636719 -2.539062 2.273438 -3.21875 1.25 -4.128906 C 2.878906 -5.945312 4.46875 -8.597656 4.46875 -10.640625 C 4.46875 -12.191406 3.21875 -13.480469 1.628906 -13.480469 C -0.679688 -13.480469 -2.234375 -11.511719 -2.234375 -8.332031 C -2.234375 -4.429688 1.25 -1.25 5.640625 -1.25 Z M 0.339844 -4.960938 C -0.378906 -5.832031 -0.910156 -6.96875 -0.910156 -8.332031 C -0.910156 -10.035156 -0.378906 -12.191406 1.628906 -12.191406 C 2.652344 -12.191406 3.144531 -11.664062 3.144531 -10.640625 C 3.144531 -8.710938 1.363281 -6.324219 0.339844 -4.960938 Z M 0.339844 -4.960938 "/></g></g></g></svg>