<?xml version="1.0" encoding="UTF-8" standalone="no"?>
<!DOCTYPE svg PUBLIC "-//W3C//DTD SVG 1.1//EN" "http://www.w3.org/Graphics/SVG/1.1/DTD/svg11.dtd">
<svg width="100%" height="100%" viewBox="0 0 500 288" version="1.1" xmlns="http://www.w3.org/2000/svg" xmlns:xlink="http://www.w3.org/1999/xlink" xml:space="preserve" xmlns:serif="http://www.serif.com/" style="fill-rule:evenodd;clip-rule:evenodd;stroke-linejoin:round;stroke-miterlimit:2;">
    <g transform="matrix(1,0,0,1,168.956,68.9858)">
        <g>
            <g>
                <path d="M-0.161,-0.943L0.396,-0.448L5.193,-5.854L4.464,-6.5L1.802,-3.5L0.589,-2.057L-3.078,-12.99L-3.635,-13.484L-8.234,-8.302L-7.505,-7.656L-5.042,-10.432L-3.828,-11.875L-0.161,-0.943Z" style="fill:white;fill-rule:nonzero;"/>
            </g>
        </g>
    </g>
    <g transform="matrix(1,0,0,1,175.862,61.3492)">
        <g>
            <g>
                <path d="M-7.125,-9.307L0.813,-0.755L5.583,-5.177L4.922,-5.891L0.943,-2.198L-2.12,-5.5L1.313,-8.682L0.661,-9.385L-2.771,-6.203L-5.672,-9.328L-1.688,-13.021L-2.349,-13.734L-7.125,-9.307Z" style="fill:white;fill-rule:nonzero;"/>
            </g>
        </g>
    </g>
    <g transform="matrix(1,0,0,1,183.309,54.548)">
        <g>
            <g>
                <path d="M-1.125,-5.099L0.594,-6.401C0.734,-6.51 0.875,-6.615 1.01,-6.74L5.365,-4.068L6.307,-4.781L1.693,-7.521C2.359,-8.474 2.563,-9.719 1.443,-11.193L1.26,-11.432C-0.365,-13.578 -2.271,-12.922 -3.594,-11.917L-6.167,-9.969L0.88,-0.667L1.74,-1.318L-1.125,-5.099ZM-1.714,-5.875L-4.724,-9.844L-2.984,-11.161C-2.182,-11.766 -0.813,-12.339 0.396,-10.74L0.531,-10.562C1.745,-8.964 0.828,-7.797 0.026,-7.193L-1.714,-5.875Z" style="fill:white;fill-rule:nonzero;"/>
            </g>
        </g>
    </g>
    <g transform="matrix(1,0,0,1,191.835,48.2277)">
        <g>
            <g>
                <path d="M-1.88,-11.406L0.656,-12.969L0.146,-13.797L-5.828,-10.115L-5.318,-9.286L-2.797,-10.839L2.813,-1.734L3.729,-2.302L-1.88,-11.406Z" style="fill:white;fill-rule:nonzero;"/>
            </g>
        </g>
    </g>
    <g transform="matrix(1,0,0,1,200.129,43.292)">
        <g>
            <g>
                <path d="M-3.391,-11.391L-4.344,-10.896L1.047,-0.547L2.005,-1.042L-3.391,-11.391Z" style="fill:white;fill-rule:nonzero;"/>
            </g>
        </g>
    </g>
    <g transform="matrix(1,0,0,1,204.91,40.7907)">
        <g>
            <g>
                <path d="M-3.62,-11.146L1.016,-0.437L2.005,-0.87L-0.172,-5.891L3.906,-7.656L3.526,-8.536L-0.552,-6.771L-2.245,-10.682L2.521,-12.745L2.13,-13.641L-3.62,-11.146Z" style="fill:white;fill-rule:nonzero;"/>
            </g>
        </g>
    </g>
    <g transform="matrix(1,0,0,1,213.798,37.1042)">
        <g>
            <g>
                <path d="M-1.724,-11.76L-2.74,-11.406L1.115,-0.391L2.13,-0.745L-1.724,-11.76Z" style="fill:white;fill-rule:nonzero;"/>
            </g>
        </g>
    </g>
    <g transform="matrix(1,0,0,1,218.874,35.3033)">
        <g>
            <g>
                <path d="M0.385,-0.875L0.578,-0.156L7.557,-2.021L7.307,-2.964L3.432,-1.927L1.625,-1.396L4.589,-12.531L4.396,-13.255L-2.297,-11.464L-2.042,-10.526L1.542,-11.484L3.349,-12.016L0.385,-0.875Z" style="fill:white;fill-rule:nonzero;"/>
            </g>
        </g>
    </g>
    <g transform="matrix(1,0,0,1,228.923,32.7873)">
        <g>
            <g>
                <path d="M0.057,-11.885L-1,-11.687L1.161,-0.219L2.219,-0.417L0.057,-11.885Z" style="fill:white;fill-rule:nonzero;"/>
            </g>
        </g>
    </g>
    <g transform="matrix(1,0,0,1,234.215,31.7729)">
        <g>
            <g>
                <path d="M-0.203,-11.719L1.099,-0.125L7.568,-0.849L7.458,-1.818L2.063,-1.208L1.557,-5.687L6.214,-6.208L6.104,-7.161L1.453,-6.635L0.974,-10.875L6.37,-11.479L6.266,-12.448L-0.203,-11.719Z" style="fill:white;fill-rule:nonzero;"/>
            </g>
        </g>
    </g>
    <g transform="matrix(1,0,0,1,244.245,30.7251)">
        <g>
            <g>
                <path d="M2.12,-4.771L4.276,-4.797C4.453,-4.802 4.635,-4.802 4.813,-4.823L6.729,-0.089L7.911,-0.104L5.828,-5.042C6.932,-5.417 7.833,-6.297 7.807,-8.151L7.802,-8.448C7.771,-11.141 5.844,-11.745 4.188,-11.724L0.953,-11.682L1.109,-0.016L2.182,-0.026L2.12,-4.771ZM2.109,-5.745L2.047,-10.724L4.229,-10.75C5.229,-10.766 6.672,-10.411 6.698,-8.406L6.703,-8.182C6.729,-6.177 5.297,-5.786 4.292,-5.771L2.109,-5.745Z" style="fill:white;fill-rule:nonzero;"/>
            </g>
        </g>
    </g>
    <g transform="matrix(1,0,0,1,254.858,30.7022)">
        <g>
            <g>
                <path d="M5.26,-10.292L8.224,-10.047L8.307,-11.016L1.318,-11.599L1.234,-10.63L4.188,-10.385L3.297,0.276L4.37,0.365L5.26,-10.292Z" style="fill:white;fill-rule:nonzero;"/>
            </g>
        </g>
    </g>
    <g transform="matrix(1,0,0,1,264.408,31.5777)">
        <g>
            <g>
                <path d="M3.151,-11.292L1.089,0.198L7.495,1.344L7.667,0.385L2.323,-0.573L3.115,-5.005L7.724,-4.177L7.896,-5.12L3.286,-5.948L4.042,-10.141L9.385,-9.182L9.557,-10.141L3.151,-11.292Z" style="fill:white;fill-rule:nonzero;"/>
            </g>
        </g>
    </g>
    <g transform="matrix(1,0,0,1,274.319,33.4382)">
        <g>
            <g>
                <path d="M3.396,-3.964L5.469,-3.38C5.641,-3.328 5.813,-3.281 5.99,-3.245L6.474,1.839L7.615,2.161L7.026,-3.167C8.188,-3.214 9.302,-3.797 9.813,-5.583L9.891,-5.87C10.625,-8.464 8.958,-9.589 7.359,-10.042L4.25,-10.922L1.063,0.302L2.099,0.594L3.396,-3.964ZM3.661,-4.901L5.021,-9.693L7.12,-9.099C8.089,-8.823 9.365,-8.073 8.818,-6.146L8.755,-5.927C8.208,-4 6.729,-4.031 5.76,-4.307L3.661,-4.901Z" style="fill:white;fill-rule:nonzero;"/>
            </g>
        </g>
    </g>
    <g transform="matrix(1,0,0,1,289.188,38.1823)">
        <g>
            <g>
                <path d="M6.214,-3.255C7.948,-2.151 8.438,-1.172 7.87,0.078L7.813,0.203C7.224,1.495 5.917,1.802 4.474,1.146L4.38,1.104C2.948,0.453 2.333,-0.865 3.182,-2.729L2.198,-3.172L2.135,-3.036C1.141,-0.844 1.771,0.984 4.016,2.01C6.141,2.974 7.995,2.469 8.854,0.594L8.917,0.458C9.656,-1.177 9.13,-2.552 6.958,-3.917C5.135,-5.078 4.854,-6.01 5.37,-7.141L5.417,-7.25C5.938,-8.391 7.234,-8.641 8.526,-8.052L8.625,-8.01C10.245,-7.271 10.568,-6.104 9.651,-4.089L10.63,-3.646L10.781,-3.969C11.776,-6.161 11.354,-7.833 8.984,-8.911C6.969,-9.828 5.161,-9.354 4.354,-7.583L4.292,-7.448C3.656,-6.047 4.042,-4.62 6.214,-3.255Z" style="fill:white;fill-rule:nonzero;"/>
            </g>
        </g>
    </g>
    <g transform="matrix(1,0,0,1,299.021,42.7598)">
        <g>
            <g>
                <path d="M9.25,-8.24L0.375,0.219L1.38,0.813L3.62,-1.344L7.292,0.818L6.5,3.818L7.505,4.411L10.578,-7.458L9.25,-8.24ZM9.307,-6.833L7.542,-0.167L4.344,-2.047L9.307,-6.833Z" style="fill:white;fill-rule:nonzero;"/>
            </g>
        </g>
    </g>
    <g transform="matrix(1,0,0,1,308.449,48.457)">
        <g>
            <g>
                <path d="M5.76,4.182L6.333,3.396L2.339,0.495L8.625,-8.156L7.75,-8.792L0.896,0.651L5.76,4.182Z" style="fill:white;fill-rule:nonzero;"/>
            </g>
        </g>
    </g>
    <g transform="matrix(1,0,0,1,315.889,53.8968)">
        <g>
            <g>
                <path d="M3.51,3.344C5.51,5.125 7.609,4.771 10.297,1.755L10.693,1.307C13.38,-1.708 13.49,-3.833 11.49,-5.615C9.5,-7.385 7.401,-7.031 4.714,-4.016L4.318,-3.568C1.63,-0.552 1.521,1.573 3.51,3.344ZM4.125,2.589C2.661,1.286 2.938,-0.349 5.146,-2.833L5.542,-3.276C7.75,-5.76 9.344,-6.224 10.807,-4.917L10.885,-4.849C12.349,-3.547 12.073,-1.906 9.865,0.573L9.469,1.021C7.26,3.5 5.667,3.964 4.203,2.661L4.125,2.589Z" style="fill:white;fill-rule:nonzero;"/>
            </g>
        </g>
    </g>
    <g transform="matrix(1,0,0,1,324.445,61.6496)">
        <g>
            <g>
                <path d="M14.526,-1.292L13.849,-2.052L8.542,2.719L6.557,4.563L10.198,-6.109L9.417,-6.979L0.74,0.823L1.422,1.578L6.729,-3.193L8.698,-5.047L5.073,5.641L5.849,6.51L14.526,-1.292Z" style="fill:white;fill-rule:nonzero;"/>
            </g>
        </g>
    </g>
    <g transform="matrix(1,0,0,1,97.7649,125.837)">
        <g>
            <g>
                <path d="M17.339,0.693C24.276,0.693 28.286,-1.385 31.406,-3.865L31.406,-21.5L17.339,-21.5L17.339,-13.375L21.995,-13.375L21.995,-8.422C20.854,-7.776 19.323,-7.432 17.589,-7.432L17.094,-7.432C11.891,-7.432 11.198,-11.641 11.198,-18.328L11.198,-20.312C11.198,-27 11.891,-31.208 16.844,-31.208L17.339,-31.208C21.302,-31.208 22.047,-28.24 22.047,-23.781L31.458,-23.781L31.458,-25.714C31.458,-35.667 26.307,-39.333 16.844,-39.333C6.443,-39.333 1.635,-33.687 1.635,-20.312L1.635,-18.328C1.635,-4.953 6.443,0.693 17.339,0.693Z" style="fill:white;fill-rule:nonzero;"/>
            </g>
        </g>
    </g>
    <g transform="matrix(1,0,0,1,136.351,125.837)">
        <g>
            <g>
                <path d="M16.844,0.693C27.245,0.693 32.052,-4.953 32.052,-18.328L32.052,-20.312C32.052,-33.687 27.245,-39.333 16.844,-39.333C6.443,-39.333 1.635,-33.687 1.635,-20.312L1.635,-18.328C1.635,-4.953 6.443,0.693 16.844,0.693ZM16.594,-7.432C12.135,-7.432 11.198,-11.641 11.198,-18.328L11.198,-20.312C11.198,-27 12.135,-31.208 16.594,-31.208L17.094,-31.208C21.552,-31.208 22.49,-27 22.49,-20.312L22.49,-18.328C22.49,-11.641 21.552,-7.432 17.094,-7.432L16.594,-7.432Z" style="fill:white;fill-rule:nonzero;"/>
            </g>
        </g>
    </g>
    <g transform="matrix(1,0,0,1,189.748,125.837)">
        <g>
            <g>
                <path d="M2.479,-38.641L2.479,0L16.349,0C22.49,0 29.724,-1.339 29.724,-11.396L29.724,-12.385C29.724,-16.297 27.99,-18.625 25.516,-19.964C27.443,-21.302 28.734,-23.385 28.734,-26.651L28.734,-27.646C28.734,-37.354 21.995,-38.641 16.099,-38.641L2.479,-38.641ZM16.594,-15.656C18.13,-15.656 20.214,-15.109 20.214,-12.089L20.214,-11.693C20.214,-8.672 18.13,-8.125 16.594,-8.125L11.891,-8.125L11.891,-15.656L16.594,-15.656ZM15.953,-30.516C17.339,-30.516 19.224,-30.12 19.224,-27.443L19.224,-26.849C19.224,-24.177 17.339,-23.781 15.953,-23.781L11.891,-23.781L11.891,-30.516L15.953,-30.516Z" style="fill:white;fill-rule:nonzero;"/>
            </g>
        </g>
    </g>
    <g transform="matrix(1,0,0,1,226.6,125.837)">
        <g>
            <g>
                <path d="M25.516,0L25.516,-8.125L11.891,-8.125L11.891,-38.641L2.479,-38.641L2.479,0L25.516,0Z" style="fill:white;fill-rule:nonzero;"/>
            </g>
        </g>
    </g>
    <g transform="matrix(1,0,0,1,257.757,125.837)">
        <g>
            <g>
                <path d="M16.844,0.693C27.245,0.693 32.052,-4.953 32.052,-18.328L32.052,-20.312C32.052,-33.687 27.245,-39.333 16.844,-39.333C6.443,-39.333 1.635,-33.687 1.635,-20.312L1.635,-18.328C1.635,-4.953 6.443,0.693 16.844,0.693ZM16.594,-7.432C12.135,-7.432 11.198,-11.641 11.198,-18.328L11.198,-20.312C11.198,-27 12.135,-31.208 16.594,-31.208L17.094,-31.208C21.552,-31.208 22.49,-27 22.49,-20.312L22.49,-18.328C22.49,-11.641 21.552,-7.432 17.094,-7.432L16.594,-7.432Z" style="fill:white;fill-rule:nonzero;"/>
            </g>
        </g>
    </g>
    <g transform="matrix(1,0,0,1,296.343,125.837)">
        <g>
            <g>
                <path d="M31.703,-38.641L22.786,-38.641L22.786,-24.771L23.036,-17.339L12.385,-38.641L2.479,-38.641L2.479,0L11.396,0L11.396,-13.87L11.146,-21.302L21.797,0L31.703,0L31.703,-38.641Z" style="fill:white;fill-rule:nonzero;"/>
            </g>
        </g>
    </g>
    <g transform="matrix(1,0,0,1,335.424,125.837)">
        <g>
            <g>
                <path d="M31.557,-18.328L31.557,-20.312C31.557,-33.687 27,-38.641 14.865,-38.641L2.479,-38.641L2.479,0L14.865,0C27,0 31.557,-4.953 31.557,-18.328ZM11.891,-8.125L11.891,-30.516L14.365,-30.516C20.807,-30.516 21.995,-27 21.995,-20.312L21.995,-18.328C21.995,-11.641 20.807,-8.125 14.365,-8.125L11.891,-8.125Z" style="fill:white;fill-rule:nonzero;"/>
            </g>
        </g>
    </g>
    <g transform="matrix(1,0,0,1,373.515,125.837)">
        <g>
            <g>
                <path d="M2.479,-38.641L2.479,0L26.75,0L26.75,-8.125L11.891,-8.125L11.891,-15.656L24.276,-15.656L24.276,-23.781L11.891,-23.781L11.891,-30.516L26.75,-30.516L26.75,-38.641L2.479,-38.641Z" style="fill:white;fill-rule:nonzero;"/>
            </g>
        </g>
    </g>
    <g transform="matrix(1,0,0,1,102.321,172.347)">
        <g>
            <g>
                <path d="M1.146,5.094C5.719,4.703 18.333,-3.708 27.698,-11.479C27.802,-11.609 27.911,-11.734 27.891,-11.969C27.859,-12.323 27.594,-12.651 27.245,-12.62C27.01,-12.599 26.891,-12.594 26.786,-12.464C16.318,-3.771 4.786,3.484 1.036,3.807C-0.953,3.979 -1.583,3.563 -1.724,1.922C-1.927,-0.422 -0.714,-4.187 1.615,-8.641C20.495,-22.427 52.667,-55.896 52.083,-62.693C51.948,-64.219 50.943,-64.958 49.302,-64.818C39.458,-63.964 -4.203,-11.797 -3.01,2.031C-2.813,4.375 -1.547,5.328 1.146,5.094ZM3.151,-11.37C14.401,-31.464 42.146,-62.901 49.411,-63.526C50.349,-63.609 50.734,-63.286 50.792,-62.583C51.276,-56.958 22.74,-26.516 3.151,-11.37Z" style="fill:white;fill-rule:nonzero;"/>
            </g>
        </g>
    </g>
    <g transform="matrix(1,0,0,1,127.866,170.143)">
        <g>
            <g>
                <path d="M-0.62,1C3.125,0.677 6.214,-5.969 5.115,-10.474C5.099,-10.708 5.193,-10.953 5.448,-10.74C12.609,-7.109 21.672,-7.417 27.464,-11.458C27.688,-11.599 27.901,-11.854 27.88,-12.089C27.849,-12.437 27.479,-12.641 27.125,-12.609L26.776,-12.583C21.432,-8.812 13.193,-8.578 6.536,-11.781C6.297,-11.875 6.286,-11.995 6.51,-12.13C6.615,-12.26 6.849,-12.276 6.958,-12.406C7.307,-12.437 7.406,-12.682 7.375,-13.031C7.344,-13.385 7.078,-13.714 6.729,-13.682C6.609,-13.672 6.495,-13.667 6.505,-13.547C5.927,-13.38 5.365,-13.094 4.917,-12.818C4.693,-12.682 4.693,-12.682 4.448,-12.781C3.969,-12.854 3.526,-12.464 3.333,-11.974C3.344,-11.859 3.229,-11.849 3.24,-11.729C-0.651,-8.917 -3.365,-4.786 -3.083,-1.505C-2.938,0.135 -2.026,1.12 -0.62,1ZM-0.734,-0.292C-1.318,-0.24 -1.714,-0.677 -1.792,-1.615C-2.026,-4.312 0.375,-7.943 3.818,-10.484C4.729,-6.781 2.078,-0.531 -0.734,-0.292Z" style="fill:white;fill-rule:nonzero;"/>
            </g>
        </g>
    </g>
    <g transform="matrix(1,0,0,1,153.177,167.959)">
        <g>
            <g>
                <path d="M-5.974,11.495C-2.807,11.219 4.703,2.547 9.5,-4.833C10.505,-4.094 11.953,-3.745 13.714,-3.901C19.807,-4.422 26.755,-8.682 30.625,-11.734C30.849,-11.87 30.948,-12.115 30.927,-12.349C30.896,-12.703 30.526,-12.906 30.172,-12.875L29.823,-12.844C25.953,-9.797 19.344,-5.682 13.599,-5.187C12.078,-5.057 10.984,-5.432 10.229,-5.958C12.396,-9.568 13.901,-12.651 13.771,-14.172C13.698,-14.995 13.063,-15.531 12.125,-15.448C9.781,-15.245 7.526,-11.276 7.802,-8.109C7.87,-7.292 8.057,-6.479 8.458,-5.922C3.88,1.198 -3.505,9.984 -6.083,10.203C-6.318,10.224 -6.693,10.021 -6.729,9.552C-7.063,5.688 0.573,-7.016 3.016,-10.177L3.094,-10.656C3.063,-11.005 2.682,-11.328 2.328,-11.297C2.214,-11.286 1.99,-11.151 1.88,-11.021C-0.563,-7.859 -8.51,5.339 -8.135,9.672C-8.026,10.964 -7.146,11.594 -5.974,11.495ZM9.297,-7.177C9.266,-7.531 9.12,-7.87 9.089,-8.224C8.885,-10.568 10.724,-13.911 12.13,-14.031C12.365,-14.052 12.365,-14.052 12.375,-13.937C12.464,-12.88 11.271,-10.297 9.297,-7.177Z" style="fill:white;fill-rule:nonzero;"/>
            </g>
        </g>
    </g>
    <g transform="matrix(1,0,0,1,181.652,165.501)">
        <g>
            <g>
                <path d="M3.896,0.016C7.531,-0.297 18.615,-4.557 26.292,-11.359C26.516,-11.495 26.609,-11.74 26.589,-11.974C26.563,-12.328 26.188,-12.531 25.839,-12.5C25.719,-12.49 25.604,-12.479 25.495,-12.354C17.917,-5.797 7.172,-1.682 3.776,-1.391C1.083,-1.156 -0.385,-1.74 -0.516,-3.26C-0.651,-4.786 0.359,-6.76 1.745,-8.531C2.474,-8.24 3.422,-8.203 4.714,-8.318C6.823,-8.5 9.365,-10.49 9.234,-12.01C9.135,-13.182 8.25,-13.818 6.964,-13.703C3.094,-13.37 -2.255,-7.005 -1.922,-3.141C-1.724,-0.797 0.5,0.313 3.896,0.016ZM4.604,-9.604C3.781,-9.536 3.188,-9.599 2.708,-9.677C4.12,-11.099 5.677,-12.177 7.083,-12.297C7.672,-12.349 7.917,-12.25 7.943,-11.901C8.005,-11.198 5.891,-9.719 4.604,-9.604Z" style="fill:white;fill-rule:nonzero;"/>
            </g>
        </g>
    </g>
    <g transform="matrix(1,0,0,1,231.571,161.194)">
        <g>
            <g>
                <path d="M7.13,-15.844C7.365,-15.865 7.484,-15.875 7.583,-16.12L8.01,-16.63C8.313,-17.245 8.729,-17.87 8.943,-18.125C9.052,-18.255 9.031,-18.49 9.021,-18.604C8.99,-18.958 8.724,-19.286 8.375,-19.255C8.141,-19.234 7.917,-19.099 7.807,-18.974C7.604,-18.599 7.193,-17.854 6.885,-17.359L6.453,-16.849C6.349,-16.719 6.359,-16.604 6.38,-16.37C6.411,-16.016 6.781,-15.812 7.13,-15.844ZM1,0.62C4.984,0.276 16.792,-6.526 22.776,-11.057C22.88,-11.182 22.979,-11.427 22.958,-11.661C22.927,-12.01 22.672,-12.229 22.203,-12.187L21.854,-12.156C16.104,-7.646 4.51,-1.099 0.875,-0.786C-0.411,-0.672 -1.036,-1.089 -1.141,-2.26C-1.281,-3.901 1.188,-8.13 4.818,-12.573C4.927,-12.703 5.031,-12.828 5.01,-13.062C4.979,-13.417 4.609,-13.62 4.255,-13.589C4.021,-13.568 3.906,-13.557 3.797,-13.432C-0.151,-8.604 -2.62,-4.38 -2.427,-2.151C-2.266,-0.276 -0.995,0.792 1,0.62Z" style="fill:white;fill-rule:nonzero;"/>
            </g>
        </g>
    </g>
    <g transform="matrix(1,0,0,1,252.077,159.424)">
        <g>
            <g>
                <path d="M0.016,5.667C3.885,5.333 8.568,0.797 10.62,-2.807L10.948,-3.068C13.917,-4.271 17.563,-5.766 21.448,-7.281C25.328,-8.797 29.448,-10.333 32.865,-11.807C33.203,-11.953 33.302,-12.198 33.271,-12.552C33.24,-12.901 32.984,-13.115 32.635,-13.089L32.401,-13.068C28.984,-11.594 24.87,-10.057 20.984,-8.542C17.786,-7.318 14.594,-5.979 11.854,-4.917C11.745,-4.792 11.62,-4.896 11.599,-5.13C11.698,-5.375 11.677,-5.609 11.781,-5.74C11.682,-6.911 10.823,-7.307 9.417,-7.187C8.479,-7.104 7.323,-6.771 6.057,-6.427C4.786,-6.078 3.401,-5.724 2.349,-5.635C1.292,-5.542 0.922,-5.745 0.891,-6.099C0.656,-8.792 6.349,-14.005 9.865,-14.307C10.448,-14.359 10.583,-14.135 10.615,-13.781C10.688,-12.964 9.745,-11.583 8.964,-11.042C8.74,-10.906 8.641,-10.661 8.661,-10.427C8.703,-9.958 9.073,-9.755 9.427,-9.786C9.542,-9.797 9.661,-9.807 9.766,-9.932C10.771,-10.609 11.703,-12.109 11.938,-13.542C12.042,-13.672 12.021,-13.906 12.01,-14.021C11.922,-15.078 11.042,-15.708 9.75,-15.599C5.531,-15.234 -0.807,-9.375 -0.516,-5.974C-0.406,-4.687 0.703,-4.193 2.458,-4.344C3.63,-4.443 5.016,-4.802 6.401,-5.156C7.328,-5.354 10.219,-6.078 10.365,-5.734C10.63,-5.401 10.214,-4.776 9.911,-4.161C9.922,-4.042 9.802,-4.031 9.688,-4.021C5.151,-1.859 -2.297,2.089 -2.109,4.313C-2.016,5.37 -1.271,5.776 0.016,5.667ZM-0.104,4.26C-0.693,4.307 -0.807,4.318 -0.828,4.083C-0.88,3.5 3.021,0.802 7.771,-1.615C8.12,-1.646 8.25,-1.536 8.036,-1.281C5.901,1.38 2.589,4.026 -0.104,4.26Z" style="fill:white;fill-rule:nonzero;"/>
            </g>
        </g>
    </g>
    <g transform="matrix(1,0,0,1,308.793,154.53)">
        <g>
            <g>
                <path d="M7.13,-15.844C7.365,-15.865 7.484,-15.875 7.583,-16.12L8.01,-16.63C8.313,-17.245 8.729,-17.87 8.943,-18.125C9.052,-18.255 9.031,-18.49 9.021,-18.604C8.99,-18.958 8.724,-19.286 8.375,-19.255C8.141,-19.234 7.917,-19.099 7.807,-18.974C7.604,-18.599 7.193,-17.854 6.885,-17.359L6.453,-16.849C6.349,-16.719 6.359,-16.604 6.38,-16.37C6.411,-16.016 6.781,-15.812 7.13,-15.844ZM1,0.62C4.984,0.276 16.792,-6.526 22.776,-11.057C22.88,-11.182 22.979,-11.427 22.958,-11.661C22.927,-12.01 22.672,-12.229 22.203,-12.187L21.854,-12.156C16.104,-7.646 4.51,-1.099 0.875,-0.786C-0.411,-0.672 -1.036,-1.089 -1.141,-2.26C-1.281,-3.901 1.188,-8.13 4.818,-12.573C4.927,-12.703 5.031,-12.828 5.01,-13.062C4.979,-13.417 4.609,-13.62 4.255,-13.589C4.021,-13.568 3.906,-13.557 3.797,-13.432C-0.151,-8.604 -2.62,-4.38 -2.427,-2.151C-2.266,-0.276 -0.995,0.792 1,0.62Z" style="fill:white;fill-rule:nonzero;"/>
            </g>
        </g>
    </g>
    <g transform="matrix(1,0,0,1,329.299,152.761)">
        <g>
            <g>
                <path d="M-3.281,0.281C-2.813,0.245 -1.839,-0.786 -0.516,-1.844C3.776,-5.521 12.443,-13.115 16.193,-13.437C16.661,-13.479 16.813,-13.135 16.828,-12.901C16.88,-12.318 16.573,-10.401 16.245,-8.719C16.026,-7.167 15.807,-5.615 15.87,-4.911C15.99,-3.505 17.115,-2.776 18.755,-2.917C22.974,-3.281 30.094,-6.964 36.839,-12.271C37.063,-12.406 37.156,-12.651 37.135,-12.885C37.109,-13.234 36.734,-13.443 36.385,-13.411L36.031,-13.38C29.406,-8.089 22.51,-4.542 18.646,-4.208C17.708,-4.125 17.323,-4.448 17.276,-5.031C17.224,-5.62 17.344,-6.927 17.682,-8.49C17.885,-10.281 18.193,-12.193 18.099,-13.25C18.01,-14.302 17.255,-14.828 16.083,-14.729C13.036,-14.464 7.802,-10.828 -0.88,-3.349C-1.432,-2.948 -1.594,-3.406 -1.391,-3.776C0.875,-7.63 5.411,-13.927 9.792,-17.844C9.901,-17.974 9.995,-18.219 9.979,-18.453C9.948,-18.802 9.693,-19.016 9.339,-18.984C9.104,-18.964 8.99,-18.958 8.88,-18.828C2.531,-13.089 -4.109,-2.479 -4.328,-0.927C-4.385,-0.214 -3.984,0.344 -3.281,0.281Z" style="fill:white;fill-rule:nonzero;"/>
            </g>
        </g>
    </g>
    <g transform="matrix(1,0,0,1,121.28,229.737)">
        <g>
            <g>
                <path d="M-22.156,31.896C-21.573,31.849 -20.948,30.849 -20.443,29.859C-20.24,29.49 -20.271,29.135 -20.516,29.042C-10.891,10.62 1.714,-8.885 14.776,-27.13C24.932,-28.479 35.359,-29.375 45.349,-29.885C45.818,-29.927 46.031,-30.182 46.005,-30.531C45.974,-30.885 45.708,-31.214 45.354,-31.182C35.599,-30.698 25.641,-29.839 15.943,-28.646C21.635,-36.573 27.344,-44.271 33.089,-51.609C33.193,-51.74 33.172,-51.974 33.161,-52.089C33.135,-52.443 32.87,-52.771 32.401,-52.734C32.281,-52.724 32.057,-52.583 31.953,-52.458C26.005,-44.745 19.974,-36.667 14.078,-28.365C3.563,-27.104 -6.563,-25.406 -15.599,-23.443C-15.943,-23.297 -16.156,-23.042 -16.125,-22.693C-16.094,-22.339 -15.714,-22.021 -15.359,-22.047L-15.245,-22.057C-6.672,-23.979 2.984,-25.641 13.021,-26.979C-0.25,-8.359 -12.839,11.26 -22.563,29.927C-22.661,30.172 -22.755,30.417 -22.854,30.661L-22.958,30.786C-23.135,31.51 -22.979,31.969 -22.156,31.896Z" style="fill:white;fill-rule:nonzero;"/>
            </g>
        </g>
    </g>
    <g transform="matrix(1,0,0,1,138.74,228.231)">
        <g>
            <g>
                <path d="M-6.542,7.646C-6.073,7.609 -4.786,6.078 -3.193,4.052C-1.792,2.516 0.042,0.469 1.859,-1.693C7.781,-8.344 12.068,-12.021 13.943,-12.182C14.177,-12.203 14.302,-12.094 14.333,-11.745C14.406,-10.922 13.927,-9.583 13.573,-8.255C13.109,-6.797 12.651,-5.224 12.766,-3.932C12.948,-1.823 14.464,-0.656 16.927,-0.87C22.432,-1.344 33.547,-7.969 39.297,-12.479C39.521,-12.62 39.62,-12.865 39.599,-13.099C39.568,-13.448 39.198,-13.651 38.844,-13.625L38.495,-13.594C32.745,-9.083 21.958,-2.719 16.802,-2.276C15.047,-2.125 14.177,-2.641 14.052,-4.047C13.974,-4.984 14.448,-6.323 14.797,-7.771C15.26,-9.224 15.724,-10.682 15.625,-11.854C15.521,-13.026 14.885,-13.562 13.828,-13.469C11.37,-13.26 7.083,-9.583 0.844,-2.552C-0.99,-0.505 -2.818,1.542 -4.208,3.198C-5.271,4.589 -5.849,4.755 -5.052,3.031C-3.536,0.068 -0.958,-4.286 2.375,-9.411C26.089,-27.396 47.333,-56.146 46.828,-62.005C46.719,-63.292 45.953,-63.937 44.667,-63.823C38.219,-63.271 -8.188,-0.474 -7.557,6.792C-7.51,7.375 -7.125,7.698 -6.542,7.646ZM4.786,-12.927C18.604,-33.359 41.036,-62.094 44.786,-62.417C45.37,-62.469 45.5,-62.365 45.542,-61.896C45.984,-56.74 26.964,-30.896 4.786,-12.927Z" style="fill:white;fill-rule:nonzero;"/>
            </g>
        </g>
    </g>
    <g transform="matrix(1,0,0,1,175.769,225.035)">
        <g>
            <g>
                <path d="M3.896,0.016C7.531,-0.297 18.615,-4.557 26.292,-11.359C26.516,-11.495 26.609,-11.74 26.589,-11.974C26.563,-12.328 26.188,-12.531 25.839,-12.5C25.719,-12.49 25.604,-12.479 25.495,-12.354C17.917,-5.797 7.172,-1.682 3.776,-1.391C1.083,-1.156 -0.385,-1.74 -0.516,-3.26C-0.651,-4.786 0.359,-6.76 1.745,-8.531C2.474,-8.24 3.422,-8.203 4.714,-8.318C6.823,-8.5 9.365,-10.49 9.234,-12.01C9.135,-13.182 8.25,-13.818 6.964,-13.703C3.094,-13.37 -2.255,-7.005 -1.922,-3.141C-1.724,-0.797 0.5,0.313 3.896,0.016ZM4.604,-9.604C3.781,-9.536 3.188,-9.599 2.708,-9.677C4.12,-11.099 5.677,-12.177 7.083,-12.297C7.672,-12.349 7.917,-12.25 7.943,-11.901C8.005,-11.198 5.891,-9.719 4.604,-9.604Z" style="fill:white;fill-rule:nonzero;"/>
            </g>
        </g>
    </g>
    <g transform="matrix(1,0,0,1,225.688,220.728)">
        <g>
            <g>
                <path d="M-6.542,7.646C-6.073,7.609 -4.786,6.078 -3.193,4.052C-1.792,2.516 0.042,0.469 1.859,-1.693C7.781,-8.344 12.068,-12.021 13.943,-12.182C14.177,-12.203 14.302,-12.094 14.333,-11.745C14.406,-10.922 13.927,-9.583 13.573,-8.255C13.109,-6.797 12.651,-5.224 12.766,-3.932C12.948,-1.823 14.464,-0.656 16.927,-0.87C22.432,-1.344 33.547,-7.969 39.297,-12.479C39.521,-12.62 39.62,-12.865 39.599,-13.099C39.568,-13.448 39.198,-13.651 38.844,-13.625L38.495,-13.594C32.745,-9.083 21.958,-2.719 16.802,-2.276C15.047,-2.125 14.177,-2.641 14.052,-4.047C13.974,-4.984 14.448,-6.323 14.797,-7.771C15.26,-9.224 15.724,-10.682 15.625,-11.854C15.521,-13.026 14.885,-13.562 13.828,-13.469C11.37,-13.26 7.083,-9.583 0.844,-2.552C-0.99,-0.505 -2.818,1.542 -4.208,3.198C-5.271,4.589 -5.849,4.755 -5.052,3.031C-3.536,0.068 -0.958,-4.286 2.375,-9.411C26.089,-27.396 47.333,-56.146 46.828,-62.005C46.719,-63.292 45.953,-63.937 44.667,-63.823C38.219,-63.271 -8.188,-0.474 -7.557,6.792C-7.51,7.375 -7.125,7.698 -6.542,7.646ZM4.786,-12.927C18.604,-33.359 41.036,-62.094 44.786,-62.417C45.37,-62.469 45.5,-62.365 45.542,-61.896C45.984,-56.74 26.964,-30.896 4.786,-12.927Z" style="fill:white;fill-rule:nonzero;"/>
            </g>
        </g>
    </g>
    <g transform="matrix(1,0,0,1,262.717,217.533)">
        <g>
            <g>
                <path d="M15.828,-1.25C19.932,-1.604 30.328,-6.984 36.484,-12.24C36.594,-12.365 36.688,-12.609 36.667,-12.844C36.641,-13.198 36.385,-13.411 36.031,-13.38C35.797,-13.359 35.682,-13.349 35.573,-13.224C29.438,-7.734 19.339,-2.969 15.708,-2.656C13.714,-2.484 12.729,-2.99 12.599,-4.51C12.406,-6.734 14.036,-9.714 15.271,-11.823C15.99,-13.068 16.396,-13.812 16.359,-14.281C16.318,-14.75 15.938,-15.068 15.469,-15.031C14.88,-14.979 13.557,-13.922 11.255,-11.833C10.443,-13.062 9.583,-13.458 7.823,-13.307C3.839,-12.964 -6.141,-5.49 -5.797,-1.505C-5.698,-0.333 -4.813,0.297 -3.526,0.188C-0.245,-0.099 6.557,-6.115 11.172,-10.052C12.052,-10.839 12.818,-11.495 13.375,-11.896C13.589,-12.151 13.953,-12.062 13.63,-11.682C12.406,-9.453 11.104,-6.745 11.307,-4.401C11.51,-2.057 13.016,-1.005 15.828,-1.25ZM-3.646,-1.219C-4.234,-1.172 -4.479,-1.266 -4.505,-1.62C-4.75,-4.432 3.953,-11.672 7.938,-12.016C9.224,-12.13 9.594,-11.927 10.146,-11.026C5.656,-6.979 -0.833,-1.464 -3.646,-1.219Z" style="fill:white;fill-rule:nonzero;"/>
            </g>
        </g>
    </g>
    <g transform="matrix(1,0,0,1,296.934,214.58)">
        <g>
            <g>
                <path d="M7.13,-15.844C7.365,-15.865 7.484,-15.875 7.583,-16.12L8.01,-16.63C8.313,-17.245 8.729,-17.87 8.943,-18.125C9.052,-18.255 9.031,-18.49 9.021,-18.604C8.99,-18.958 8.724,-19.286 8.375,-19.255C8.141,-19.234 7.917,-19.099 7.807,-18.974C7.604,-18.599 7.193,-17.854 6.885,-17.359L6.453,-16.849C6.349,-16.719 6.359,-16.604 6.38,-16.37C6.411,-16.016 6.781,-15.812 7.13,-15.844ZM1,0.62C4.984,0.276 16.792,-6.526 22.776,-11.057C22.88,-11.182 22.979,-11.427 22.958,-11.661C22.927,-12.01 22.672,-12.229 22.203,-12.187L21.854,-12.156C16.104,-7.646 4.51,-1.099 0.875,-0.786C-0.411,-0.672 -1.036,-1.089 -1.141,-2.26C-1.281,-3.901 1.188,-8.13 4.818,-12.573C4.927,-12.703 5.031,-12.828 5.01,-13.062C4.979,-13.417 4.609,-13.62 4.255,-13.589C4.021,-13.568 3.906,-13.557 3.797,-13.432C-0.151,-8.604 -2.62,-4.38 -2.427,-2.151C-2.266,-0.276 -0.995,0.792 1,0.62Z" style="fill:white;fill-rule:nonzero;"/>
            </g>
        </g>
    </g>
    <g transform="matrix(1,0,0,1,317.44,212.81)">
        <g>
            <g>
                <path d="M2.615,12.526C9.646,11.917 28.891,-3.083 39.885,-12.531C39.99,-12.661 40.089,-12.901 40.068,-13.135C40.036,-13.49 39.781,-13.703 39.313,-13.661C39.198,-13.651 39.078,-13.641 38.974,-13.516C28.099,-4.078 9.172,10.542 2.495,11.12C1.089,11.24 0.578,10.813 0.479,9.641C0.182,6.24 5.656,-0.135 10.911,-6.255C15.516,-11.729 20.13,-17.083 19.885,-19.896C19.766,-21.302 18.042,-22.099 15.891,-23.802C19.927,-28.99 22.833,-33.609 22.693,-35.25C22.625,-36.068 22.104,-36.615 21.281,-36.542C17.651,-36.229 9.984,-29.312 10.234,-26.38C10.328,-25.328 11.573,-24.609 13.802,-23.385C10.286,-18.948 5.75,-14.073 1.359,-10.271C1.25,-10.141 1.151,-9.896 1.161,-9.781C1.203,-9.312 1.458,-9.099 1.807,-9.13C2.042,-9.146 2.161,-9.156 2.266,-9.286C6.224,-12.698 11.094,-17.839 15.031,-22.781C17.521,-21.344 18.411,-20.594 18.479,-19.776C18.672,-17.547 14.495,-12.583 9.885,-7.229C4.635,-0.99 -1.156,5.766 -0.813,9.75C-0.651,11.625 0.391,12.714 2.615,12.526ZM14.656,-24.401C12.427,-25.625 11.661,-26.271 11.641,-26.505C11.469,-28.495 17.714,-34.109 20.828,-34.969C21.172,-35.12 21.427,-34.901 21.339,-34.542C20.688,-32.479 16.896,-27.193 14.656,-24.401Z" style="fill:white;fill-rule:nonzero;"/>
            </g>
        </g>
    </g>
    <g transform="matrix(1,0,0,1,133.472,248.495)">
        <g>
            <g>
                <path d="M3.771,0.12C5.141,0.12 5.938,-0.385 6.401,-0.875L6.401,-4.245L4.125,-4.245L4.125,-3.536L5.604,-3.536L5.604,-1.26C5.292,-0.927 4.698,-0.599 3.823,-0.599L3.745,-0.599C2.167,-0.599 1.458,-1.635 1.458,-4.089L1.458,-4.531C1.458,-6.984 2.198,-8.026 3.656,-8.026L3.724,-8.026C5.052,-8.026 5.594,-7.26 5.594,-5.484L6.401,-5.484L6.401,-5.792C6.401,-7.734 5.505,-8.745 3.656,-8.745C1.693,-8.745 0.63,-7.516 0.63,-4.531L0.63,-4.089C0.63,-1.104 1.693,0.12 3.771,0.12Z" style="fill:white;fill-rule:nonzero;"/>
            </g>
        </g>
    </g>
    <g transform="matrix(1,0,0,1,142.292,248.495)">
        <g>
            <g>
                <path d="M0.818,-8.62L0.818,0L5.625,0L5.625,-0.719L1.615,-0.719L1.615,-4.047L5.073,-4.047L5.073,-4.75L1.615,-4.75L1.615,-7.901L5.625,-7.901L5.625,-8.62L0.818,-8.62Z" style="fill:white;fill-rule:nonzero;"/>
            </g>
        </g>
    </g>
    <g transform="matrix(1,0,0,1,150.018,248.495)">
        <g>
            <g>
                <path d="M5.26,0L5.26,-0.719L1.615,-0.719L1.615,-8.62L0.818,-8.62L0.818,0L5.26,0Z" style="fill:white;fill-rule:nonzero;"/>
            </g>
        </g>
    </g>
    <g transform="matrix(1,0,0,1,157.103,248.495)">
        <g>
            <g>
                <rect x="0.875" y="-8.62" width="0.792" height="8.62" style="fill:white;fill-rule:nonzero;"/>
            </g>
        </g>
    </g>
    <g transform="matrix(1,0,0,1,161.303,248.495)">
        <g>
            <g>
                <path d="M6.464,-8.62L5.714,-8.62L5.714,-3.349L5.745,-1.349L1.682,-8.62L0.818,-8.62L0.818,0L1.568,0L1.568,-5.271L1.526,-7.271L5.604,0L6.464,0L6.464,-8.62Z" style="fill:white;fill-rule:nonzero;"/>
            </g>
        </g>
    </g>
    <g transform="matrix(1,0,0,1,170.244,248.495)">
        <g>
            <g>
                <path d="M3.771,0.12C5.141,0.12 5.938,-0.385 6.401,-0.875L6.401,-4.245L4.125,-4.245L4.125,-3.536L5.604,-3.536L5.604,-1.26C5.292,-0.927 4.698,-0.599 3.823,-0.599L3.745,-0.599C2.167,-0.599 1.458,-1.635 1.458,-4.089L1.458,-4.531C1.458,-6.984 2.198,-8.026 3.656,-8.026L3.724,-8.026C5.052,-8.026 5.594,-7.26 5.594,-5.484L6.401,-5.484L6.401,-5.792C6.401,-7.734 5.505,-8.745 3.656,-8.745C1.693,-8.745 0.63,-7.516 0.63,-4.531L0.63,-4.089C0.63,-1.104 1.693,0.12 3.771,0.12Z" style="fill:white;fill-rule:nonzero;"/>
            </g>
        </g>
    </g>
    <g transform="matrix(1,0,0,1,179.064,248.495)">
        <g>
            <g>
                <path d="M3.771,0.12C5.141,0.12 5.938,-0.385 6.401,-0.875L6.401,-4.245L4.125,-4.245L4.125,-3.536L5.604,-3.536L5.604,-1.26C5.292,-0.927 4.698,-0.599 3.823,-0.599L3.745,-0.599C2.167,-0.599 1.458,-1.635 1.458,-4.089L1.458,-4.531C1.458,-6.984 2.198,-8.026 3.656,-8.026L3.724,-8.026C5.052,-8.026 5.594,-7.26 5.594,-5.484L6.401,-5.484L6.401,-5.792C6.401,-7.734 5.505,-8.745 3.656,-8.745C1.693,-8.745 0.63,-7.516 0.63,-4.531L0.63,-4.089C0.63,-1.104 1.693,0.12 3.771,0.12Z" style="fill:white;fill-rule:nonzero;"/>
            </g>
        </g>
    </g>
    <g transform="matrix(1,0,0,1,187.884,248.495)">
        <g>
            <g>
                <path d="M2.807,-8.708L0.323,0L1.182,0L1.802,-2.208L4.953,-2.208L5.573,0L6.432,0L3.948,-8.708L2.807,-8.708ZM3.37,-7.839L4.74,-2.927L2,-2.927L3.37,-7.839Z" style="fill:white;fill-rule:nonzero;"/>
            </g>
        </g>
    </g>
    <g transform="matrix(1,0,0,1,196.295,248.495)">
        <g>
            <g>
                <path d="M1.615,-3.505L3.203,-3.505C3.339,-3.505 3.469,-3.505 3.604,-3.516L4.974,0L5.849,0L4.354,-3.672C5.172,-3.932 5.849,-4.578 5.849,-5.948L5.849,-6.167C5.849,-8.156 4.432,-8.62 3.203,-8.62L0.818,-8.62L0.818,0L1.615,0L1.615,-3.505ZM1.615,-4.224L1.615,-7.901L3.229,-7.901C3.969,-7.901 5.031,-7.625 5.031,-6.146L5.031,-5.979C5.031,-4.5 3.969,-4.224 3.229,-4.224L1.615,-4.224Z" style="fill:white;fill-rule:nonzero;"/>
            </g>
        </g>
    </g>
    <g transform="matrix(1,0,0,1,204.407,248.495)">
        <g>
            <g>
                <path d="M2.807,-8.708L0.323,0L1.182,0L1.802,-2.208L4.953,-2.208L5.573,0L6.432,0L3.948,-8.708L2.807,-8.708ZM3.37,-7.839L4.74,-2.927L2,-2.927L3.37,-7.839Z" style="fill:white;fill-rule:nonzero;"/>
            </g>
        </g>
    </g>
    <g transform="matrix(1,0,0,1,212.818,248.495)">
        <g>
            <g>
                <path d="M6.464,-8.62L5.714,-8.62L5.714,-3.349L5.745,-1.349L1.682,-8.62L0.818,-8.62L0.818,0L1.568,0L1.568,-5.271L1.526,-7.271L5.604,0L6.464,0L6.464,-8.62Z" style="fill:white;fill-rule:nonzero;"/>
            </g>
        </g>
    </g>
    <g transform="matrix(1,0,0,1,221.76,248.495)">
        <g>
            <g>
                <path d="M3.24,-7.901L5.438,-7.901L5.438,-8.62L0.255,-8.62L0.255,-7.901L2.443,-7.901L2.443,0L3.24,0L3.24,-7.901Z" style="fill:white;fill-rule:nonzero;"/>
            </g>
        </g>
    </g>
    <g transform="matrix(1,0,0,1,229.11,248.495)">
        <g>
            <g>
                <rect x="0.875" y="-8.62" width="0.792" height="8.62" style="fill:white;fill-rule:nonzero;"/>
            </g>
        </g>
    </g>
    <g transform="matrix(1,0,0,1,233.31,248.495)">
        <g>
            <g>
                <path d="M0.818,-8.62L0.818,0L5.625,0L5.625,-0.719L1.615,-0.719L1.615,-4.047L5.073,-4.047L5.073,-4.75L1.615,-4.75L1.615,-7.901L5.625,-7.901L5.625,-8.62L0.818,-8.62Z" style="fill:white;fill-rule:nonzero;"/>
            </g>
        </g>
    </g>
    <g transform="matrix(1,0,0,1,244.904,248.495)">
        <g>
            <g>
                <path d="M3.583,0.12C5.557,0.12 6.542,-1.104 6.542,-4.089L6.542,-4.531C6.542,-7.516 5.557,-8.745 3.583,-8.745C1.615,-8.745 0.63,-7.516 0.63,-4.531L0.63,-4.089C0.63,-1.104 1.615,0.12 3.583,0.12ZM3.547,-0.599C2.099,-0.599 1.448,-1.635 1.448,-4.089L1.448,-4.531C1.448,-6.984 2.099,-8.026 3.547,-8.026L3.625,-8.026C5.073,-8.026 5.724,-6.984 5.724,-4.531L5.724,-4.089C5.724,-1.635 5.073,-0.599 3.625,-0.599L3.547,-0.599Z" style="fill:white;fill-rule:nonzero;"/>
            </g>
        </g>
    </g>
    <g transform="matrix(1,0,0,1,253.735,248.495)">
        <g>
            <g>
                <path d="M6.432,-4.089L6.432,-4.531C6.432,-7.516 5.193,-8.62 3.094,-8.62L0.818,-8.62L0.818,0L3.094,0C5.193,0 6.432,-1.104 6.432,-4.089ZM1.615,-0.719L1.615,-7.901L3.026,-7.901C4.688,-7.901 5.615,-6.984 5.615,-4.531L5.615,-4.089C5.615,-1.635 4.688,-0.719 3.026,-0.719L1.615,-0.719Z" style="fill:white;fill-rule:nonzero;"/>
            </g>
        </g>
    </g>
    <g transform="matrix(1,0,0,1,262.455,248.495)">
        <g>
            <g>
                <path d="M0.818,-8.62L0.818,0L5.625,0L5.625,-0.719L1.615,-0.719L1.615,-4.047L5.073,-4.047L5.073,-4.75L1.615,-4.75L1.615,-7.901L5.625,-7.901L5.625,-8.62L0.818,-8.62Z" style="fill:white;fill-rule:nonzero;"/>
            </g>
        </g>
    </g>
    <g transform="matrix(1,0,0,1,270.181,248.495)">
        <g>
            <g>
                <path d="M1.615,-3.505L3.203,-3.505C3.339,-3.505 3.469,-3.505 3.604,-3.516L4.974,0L5.849,0L4.354,-3.672C5.172,-3.932 5.849,-4.578 5.849,-5.948L5.849,-6.167C5.849,-8.156 4.432,-8.62 3.203,-8.62L0.818,-8.62L0.818,0L1.615,0L1.615,-3.505ZM1.615,-4.224L1.615,-7.901L3.229,-7.901C3.969,-7.901 5.031,-7.625 5.031,-6.146L5.031,-5.979C5.031,-4.5 3.969,-4.224 3.229,-4.224L1.615,-4.224Z" style="fill:white;fill-rule:nonzero;"/>
            </g>
        </g>
    </g>
    <g transform="matrix(1,0,0,1,282.162,248.495)">
        <g>
            <g>
                <path d="M3.771,0.12C5.141,0.12 5.938,-0.385 6.401,-0.875L6.401,-4.245L4.125,-4.245L4.125,-3.536L5.604,-3.536L5.604,-1.26C5.292,-0.927 4.698,-0.599 3.823,-0.599L3.745,-0.599C2.167,-0.599 1.458,-1.635 1.458,-4.089L1.458,-4.531C1.458,-6.984 2.198,-8.026 3.656,-8.026L3.724,-8.026C5.052,-8.026 5.594,-7.26 5.594,-5.484L6.401,-5.484L6.401,-5.792C6.401,-7.734 5.505,-8.745 3.656,-8.745C1.693,-8.745 0.63,-7.516 0.63,-4.531L0.63,-4.089C0.63,-1.104 1.693,0.12 3.771,0.12Z" style="fill:white;fill-rule:nonzero;"/>
            </g>
        </g>
    </g>
    <g transform="matrix(1,0,0,1,290.982,248.495)">
        <g>
            <g>
                <path d="M0.818,-8.62L0.818,0L5.625,0L5.625,-0.719L1.615,-0.719L1.615,-4.047L5.073,-4.047L5.073,-4.75L1.615,-4.75L1.615,-7.901L5.625,-7.901L5.625,-8.62L0.818,-8.62Z" style="fill:white;fill-rule:nonzero;"/>
            </g>
        </g>
    </g>
    <g transform="matrix(1,0,0,1,298.707,248.495)">
        <g>
            <g>
                <path d="M5.26,0L5.26,-0.719L1.615,-0.719L1.615,-8.62L0.818,-8.62L0.818,0L5.26,0Z" style="fill:white;fill-rule:nonzero;"/>
            </g>
        </g>
    </g>
    <g transform="matrix(1,0,0,1,305.792,248.495)">
        <g>
            <g>
                <path d="M6.432,-4.089L6.432,-4.531C6.432,-7.516 5.193,-8.62 3.094,-8.62L0.818,-8.62L0.818,0L3.094,0C5.193,0 6.432,-1.104 6.432,-4.089ZM1.615,-0.719L1.615,-7.901L3.026,-7.901C4.688,-7.901 5.615,-6.984 5.615,-4.531L5.615,-4.089C5.615,-1.635 4.688,-0.719 3.026,-0.719L1.615,-0.719Z" style="fill:white;fill-rule:nonzero;"/>
            </g>
        </g>
    </g>
    <g transform="matrix(1,0,0,1,318.381,248.495)">
        <g>
            <g>
                <path d="M0.443,-0.552L0.443,0L5.781,0L5.781,-0.719L2.818,-0.719L1.427,-0.687L5.672,-8.068L5.672,-8.62L0.552,-8.62L0.552,-7.901L3.292,-7.901L4.688,-7.937L0.443,-0.552Z" style="fill:white;fill-rule:nonzero;"/>
            </g>
        </g>
    </g>
    <g transform="matrix(1,0,0,1,326.261,248.495)">
        <g>
            <g>
                <path d="M3.526,0.12C5.359,0.12 6.302,-0.599 6.302,-2.677L6.302,-8.62L5.505,-8.62L5.505,-2.729C5.505,-1.094 4.854,-0.599 3.526,-0.599C2.198,-0.599 1.557,-1.094 1.557,-2.729L1.557,-8.62L0.76,-8.62L0.76,-2.677C0.76,-0.599 1.693,0.12 3.526,0.12Z" style="fill:white;fill-rule:nonzero;"/>
            </g>
        </g>
    </g>
    <g transform="matrix(1,0,0,1,334.982,248.495)">
        <g>
            <g>
                <path d="M1.615,-3.505L3.203,-3.505C3.339,-3.505 3.469,-3.505 3.604,-3.516L4.974,0L5.849,0L4.354,-3.672C5.172,-3.932 5.849,-4.578 5.849,-5.948L5.849,-6.167C5.849,-8.156 4.432,-8.62 3.203,-8.62L0.818,-8.62L0.818,0L1.615,0L1.615,-3.505ZM1.615,-4.224L1.615,-7.901L3.229,-7.901C3.969,-7.901 5.031,-7.625 5.031,-6.146L5.031,-5.979C5.031,-4.5 3.969,-4.224 3.229,-4.224L1.615,-4.224Z" style="fill:white;fill-rule:nonzero;"/>
            </g>
        </g>
    </g>
    <g transform="matrix(1,0,0,1,343.094,248.495)">
        <g>
            <g>
                <path d="M3.526,0.12C5.359,0.12 6.302,-0.599 6.302,-2.677L6.302,-8.62L5.505,-8.62L5.505,-2.729C5.505,-1.094 4.854,-0.599 3.526,-0.599C2.198,-0.599 1.557,-1.094 1.557,-2.729L1.557,-8.62L0.76,-8.62L0.76,-2.677C0.76,-0.599 1.693,0.12 3.526,0.12ZM3.094,-10.281L2.224,-10.281L2.224,-9.505L3.094,-9.505L3.094,-10.281ZM4.828,-10.281L3.958,-10.281L3.958,-9.505L4.828,-9.505L4.828,-10.281Z" style="fill:white;fill-rule:nonzero;"/>
            </g>
        </g>
    </g>
    <g transform="matrix(1,0,0,1,351.815,248.495)">
        <g>
            <g>
                <path d="M1.448,-4.089L1.448,-4.531C1.448,-6.984 2.109,-8.026 3.547,-8.026L3.625,-8.026C4.917,-8.026 5.458,-7.26 5.458,-5.484L6.276,-5.484L6.276,-5.792C6.276,-7.734 5.396,-8.745 3.557,-8.745C1.578,-8.745 0.63,-7.516 0.63,-4.531L0.63,-4.089C0.63,-1.104 1.578,0.12 3.557,0.12C5.396,0.12 6.276,-0.885 6.276,-2.698L6.276,-2.807L5.458,-2.807C5.458,-1.38 4.917,-0.599 3.625,-0.599L3.547,-0.599C2.099,-0.599 1.448,-1.635 1.448,-4.089Z" style="fill:white;fill-rule:nonzero;"/>
            </g>
        </g>
    </g>
    <g transform="matrix(1,0,0,1,360.303,248.495)">
        <g>
            <g>
                <path d="M1.615,-8.62L0.818,-8.62L0.818,0L1.615,0L1.615,-2.651L2.766,-4.276L4.927,0L5.833,0L3.271,-4.995L5.833,-8.62L4.865,-8.62L1.615,-3.891L1.615,-8.62Z" style="fill:white;fill-rule:nonzero;"/>
            </g>
        </g>
    </g>
</svg>
